<svg width="140" height="140" viewBox="0 0 140 140" fill="none" xmlns="http://www.w3.org/2000/svg"><path d="M43.75 74.375a39.375 39.375 0 0139.375 39.375v21.875H4.375V113.75A39.375 39.375 0 0143.75 74.375z" fill="#EC4B3C"/><path d="M61.438 78.562L43.75 96.25 26.06 78.562a39.224 39.224 0 0117.689-4.187 39.224 39.224 0 0117.688 4.187z" fill="#fff"/><path fill-rule="evenodd" clip-rule="evenodd" d="M35 109.375H17.5v8.75a8.75 8.75 0 1017.5 0v-8.75z" fill="#fff"/><path d="M50.313 102.812h4.374v4.376h-4.374v-4.376zm0 8.75h4.374v4.376h-4.374v-4.376zm0 8.75h4.374v4.376h-4.374v-4.376zM35 107.188H17.5a2.188 2.188 0 00-2.188 2.187v8.75a10.937 10.937 0 1021.876 0v-8.75A2.188 2.188 0 0035 107.188zm-2.188 10.937a6.561 6.561 0 01-11.202 4.64 6.561 6.561 0 01-1.922-4.64v-6.563h13.125v6.563z" fill="#212121"/><path fill-rule="evenodd" clip-rule="evenodd" d="M65.847 67.088a30.768 30.768 0 01-9.91 6.93 41.633 41.633 0 0129.376 39.732v21.875a2.188 2.188 0 01-2.188 2.187H4.375a2.188 2.188 0 01-2.188-2.187V113.75a41.634 41.634 0 0129.376-39.732A30.768 30.768 0 0115.18 56.875h-2.054a10.938 10.938 0 01-4.31-20.983 34.956 34.956 0 0169.87 0 10.937 10.937 0 01-.985 20.46V60c0 1.019-.288 2.498-1.215 3.785-1.007 1.4-2.668 2.415-4.985 2.415h-4.837a30.7 30.7 0 01-.816.888zm4.056-5.288H71.5c.486 0 .784-.099.966-.193.184-.094.328-.225.449-.392.272-.38.385-.9.385-1.215v-3.125h-.98a30.761 30.761 0 01-2.417 4.925zm9.112-11.222a6.563 6.563 0 00-4.64-11.203h-.726a30.014 30.014 0 010 13.125h.726a6.56 6.56 0 004.64-1.922zm-14.422-35.79A30.64 30.64 0 0043.75 6.563 30.64 30.64 0 0013.237 35h1.942a30.574 30.574 0 0157.142 0h1.942a30.64 30.64 0 00-9.67-20.212zm-14.28 13.65H63.26a26.184 26.184 0 00-45.364 13.125h19.291a4.375 4.375 0 004.376-4.376 8.75 8.75 0 018.75-8.75zM8.484 50.578a6.562 6.562 0 004.64 1.922h.726a30.014 30.014 0 010-13.125h-.726a6.562 6.562 0 00-4.64 11.203zm28.703-4.64H17.5A26.237 26.237 0 0060.42 66.2H52.1a4.493 4.493 0 01-3.6 1.8h-7a4.5 4.5 0 110-9h7a4.501 4.501 0 014.168 2.8h11.977a26.24 26.24 0 001.803-28.987H50.313a4.375 4.375 0 00-4.376 4.374 8.75 8.75 0 01-8.75 8.75zm6.562 47.219l13.88-13.88a36.84 36.84 0 00-27.76 0l13.88 13.88zm-32.044 1.755a37.204 37.204 0 00-5.143 18.838v19.688h35V97.156L25.68 81.274a37.203 37.203 0 00-13.975 13.638zm34.231 38.526h35V113.75A37.204 37.204 0 0061.82 81.274L45.937 97.156v36.282z" fill="#212121"/><path d="M99.188 61.188a34.954 34.954 0 00-28.239 55.617L66.375 129l12.195-4.574a34.994 34.994 0 0031.386 5.037 34.972 34.972 0 0013.95-8.52 34.974 34.974 0 009.853-30.221A34.99 34.99 0 00115.083 65a34.985 34.985 0 00-15.895-3.813z" fill="#fff"/><path d="M83.875 89.625v-2.188A13.125 13.125 0 0197 74.314a13.127 13.127 0 0113.125 13.124 15.845 15.845 0 01-4.64 11.203 6.577 6.577 0 00-1.923 4.642v1.656h-8.75v-1.656a17.128 17.128 0 015.016-12.11 5.271 5.271 0 001.547-3.734A4.377 4.377 0 0097 83.061a4.375 4.375 0 00-4.375 4.376v2.187h-8.75zm15.313 30.625a4.375 4.375 0 100-8.75 4.375 4.375 0 000 8.75z" fill="#EC4B3C"/><path d="M99.188 59A37.23 37.23 0 0062 96.188a36.824 36.824 0 006.495 20.932l-4.17 11.11a2.189 2.189 0 002.82 2.82l11.11-4.17a36.816 36.816 0 0020.933 6.495 37.188 37.188 0 000-74.375zm0 70a32.544 32.544 0 01-19.327-6.344 2.185 2.185 0 00-2.059-.282l-7.689 2.883 2.884-7.689a2.187 2.187 0 00-.283-2.058A32.784 32.784 0 1199.188 129z" fill="#212121"/><path d="M97 72.125a15.332 15.332 0 00-15.313 15.313v2.187a2.188 2.188 0 002.188 2.188h8.75a2.188 2.188 0 002.188-2.188v-2.188a2.188 2.188 0 014.374 0 3.076 3.076 0 01-.905 2.188 19.18 19.18 0 00-5.657 13.654v1.659a2.186 2.186 0 002.188 2.187h8.749c.581 0 1.137-.23 1.547-.641.411-.41.641-.966.641-1.546v-1.659a4.408 4.408 0 011.282-3.093 17.906 17.906 0 005.28-12.749A15.333 15.333 0 0097 72.126zm6.939 24.968a8.809 8.809 0 00-2.547 5.657H97a14.837 14.837 0 014.375-10.032 7.403 7.403 0 002.187-5.28 6.561 6.561 0 10-13.124 0h-4.376a10.937 10.937 0 1121.876 0 13.573 13.573 0 01-3.999 9.655zm-4.751 12.219a6.563 6.563 0 100 13.127 6.563 6.563 0 000-13.127zm0 8.75a2.19 2.19 0 01-2.022-1.35 2.188 2.188 0 112.022 1.35z" fill="#212121"/></svg>