<svg width="141" height="140" viewBox="0 0 141 140" fill="none" xmlns="http://www.w3.org/2000/svg"><path d="M47.979 20.952L32.546 36.386a4.304 4.304 0 000 6.087L47.979 56.5c1.68 1.681 16.257 1.681 17.938 0l10.037-7.572a4.304 4.304 0 000-6.087L54.066 20.952a4.304 4.304 0 00-6.087 0zM109.117 5.65L87.228 27.538a4.304 4.304 0 000 6.087l15.433 15.434a4.305 4.305 0 006.088 0l21.888-21.889a4.304 4.304 0 000-6.087L115.204 5.65a4.304 4.304 0 00-6.087 0z" fill="#EC4B3C"/><path d="M131.917 54.688H73.302l4.214-4.214a6.5 6.5 0 000-9.187L55.623 19.4a6.499 6.499 0 00-9.187 0L30.998 34.838a6.5 6.5 0 000 9.188l10.678 10.661h-6.01a2.188 2.188 0 00-2.156 2.549l8.75 52.5a2.186 2.186 0 002.157 1.827h78.75a2.183 2.183 0 002.156-1.829l8.75-52.5a2.184 2.184 0 00-2.156-2.546zm-79.39-32.194L74.42 44.39a2.117 2.117 0 010 2.992l-1.796 1.796L47.74 24.292l1.796-1.796a2.114 2.114 0 012.993-.002zM34.1 40.924a2.118 2.118 0 010-2.993l10.548-10.546 24.883 24.896-2.406 2.407h-19.25L34.1 40.924zm95.233 18.139l-1.457 8.75h-88.17l-1.456-8.75h91.083zm-83.064 48.125l-.728-4.375h76.501l-.728 4.375H46.269zm76.502-8.75H44.812l-4.374-26.25h86.708l-4.375 26.25z" fill="#212121"/><path d="M39.685 115.938L29.07 56.49a2.187 2.187 0 00-2.152-1.803h-17.5a2.188 2.188 0 00-2.188 2.188v8.75a2.187 2.187 0 002.188 2.188h17.23l9.055 50.697a2.186 2.186 0 002.153 1.802H48.85a10.828 10.828 0 00-2.244 6.563 10.937 10.937 0 1021.875 0 10.829 10.829 0 00-2.245-6.563h35.114a10.827 10.827 0 00-2.245 6.563 10.938 10.938 0 0021.875 0 10.826 10.826 0 00-2.244-6.563h6.619v-4.374h-85.67zm-28.08-52.5v-4.376h13.481l.781 4.376H11.604zm52.5 63.437a6.562 6.562 0 11-13.125 0 6.562 6.562 0 0113.125 0zm52.499 0a6.562 6.562 0 11-10.208-5.457 6.563 6.563 0 0110.208 5.457zM101.13 50.6a6.5 6.5 0 009.187 0l21.886-21.893a6.498 6.498 0 000-9.188L116.766 4.09a6.498 6.498 0 00-9.187 0L85.693 25.98a6.499 6.499 0 000 9.187L101.13 50.6zm27.98-24.989l-21.894 21.893a2.123 2.123 0 01-2.993 0L93.677 36.969l24.896-24.896 10.546 10.546a2.118 2.118 0 01-.009 2.992zm-40.324 3.465L110.68 7.184a2.106 2.106 0 011.496-.62 2.117 2.117 0 011.496.62l1.796 1.796-24.885 24.885-1.796-1.796a2.118 2.118 0 01-.002-2.993z" fill="#212121"/></svg>