<svg width="120" height="120" viewBox="0 0 120 120" fill="none" xmlns="http://www.w3.org/2000/svg"><path d="M54.375 97.5C78.192 97.5 97.5 78.192 97.5 54.375S78.192 11.25 54.375 11.25 11.25 30.558 11.25 54.375 30.558 97.5 54.375 97.5z" fill="#EC4B3C"/><path d="M61.75 58.125a16.875 16.875 0 000-33.75H37.375v26.25h-7.5v7.5h7.5v7.5h-7.5v7.5h7.5v15h7.5v-15h18.75v-7.5h-18.75v-7.5H61.75z" fill="#fff"/><path d="M45 30h16.875a9.375 9.375 0 110 18.75H45V30z" fill="#EC4B3C"/><path d="M45 50.625h16.875a11.25 11.25 0 000-22.5H45A1.875 1.875 0 0043.125 30v18.75A1.875 1.875 0 0045 50.625zm1.875-18.75h15a7.5 7.5 0 010 15h-15v-15z" fill="#212121"/><path d="M65.625 71.25v-7.5a1.875 1.875 0 00-1.875-1.875H46.875v-3.75h15a18.75 18.75 0 000-37.5H37.5a1.875 1.875 0 00-1.875 1.875v24.375H30a1.875 1.875 0 00-1.875 1.875v7.5A1.875 1.875 0 0030 58.125h5.625v3.75H30a1.875 1.875 0 00-1.875 1.875v7.5A1.875 1.875 0 0030 73.125h5.625V86.25a1.875 1.875 0 001.875 1.875H45a1.875 1.875 0 001.875-1.875V73.125H63.75a1.875 1.875 0 001.875-1.875zm-3.75-1.875H45a1.875 1.875 0 00-1.875 1.875v13.125h-3.75V71.25a1.875 1.875 0 00-1.875-1.875h-5.625v-3.75H37.5a1.875 1.875 0 001.875-1.875v-7.5a1.875 1.875 0 00-1.875-1.875h-5.625v-3.75H37.5a1.875 1.875 0 001.875-1.875V24.375h22.5a15 15 0 010 30H45a1.875 1.875 0 00-1.875 1.875v7.5A1.875 1.875 0 0045 65.625h16.875v3.75z" fill="#212121"/><path d="M96.629 23.261a52.478 52.478 0 10-73.37 73.367 52.51 52.51 0 0038.34 21.355 52.502 52.502 0 0035.03-94.722zm10.55 16.945l-1.952 1.093a52.234 52.234 0 00-2.42-7.174 48.993 48.993 0 014.372 6.08zm-.304 25.419a41.295 41.295 0 01-41.25 41.25 41.787 41.787 0 01-5.302-.347 52.587 52.587 0 0046.206-46.204 41.57 41.57 0 01.346 5.301zM43.965 102l.938-3.63c2.5.536 5.04.859 7.594.964v3.75A48.813 48.813 0 0143.965 102zm-30.84-47.625a41.25 41.25 0 1141.25 41.25 41.297 41.297 0 01-41.25-41.25zM102 64.785l-3.63-.938c.535-2.5.856-5.042.959-7.597h3.75A48.85 48.85 0 01102 64.785zM99.329 52.5a44.994 44.994 0 00-.964-7.594l3.63-.937a48.906 48.906 0 011.084 8.531h-3.75zm-1.904 14.972l3.63.937a48.275 48.275 0 01-3.277 8.12l-3.278-1.83a44.574 44.574 0 002.925-7.227zM56.25 99.328a45.006 45.006 0 007.594-.964l.938 3.63a48.717 48.717 0 01-8.532 1.084v-3.75zm12.165 1.727l-.937-3.63A44.704 44.704 0 0074.7 94.5l1.832 3.274a48.292 48.292 0 01-8.117 3.288v-.007zm11.39-5.108l-1.835-3.275a45.414 45.414 0 006.854-5.198l2.649 2.65a48.906 48.906 0 01-7.669 5.824zm10.312-8.475l-2.65-2.649a45.312 45.312 0 005.198-6.853l3.275 1.836a48.896 48.896 0 01-5.816 7.666h-.007zm7.308-46.194a44.574 44.574 0 00-2.924-7.226l3.273-1.834a48.363 48.363 0 013.278 8.119l-3.627.941zm-4.753-10.5a45.312 45.312 0 00-5.197-6.853l2.65-2.65a48.892 48.892 0 015.823 7.668l-3.276 1.835zm-7.848-9.504a45.414 45.414 0 00-6.854-5.198l1.834-3.275a48.906 48.906 0 017.669 5.823l-2.65 2.65zM74.7 14.25a44.698 44.698 0 00-7.226-2.925l.938-3.63a48.428 48.428 0 018.117 3.277L74.7 14.25zm-10.856-3.864c-2.5-.537-5.04-.86-7.594-.964v-3.75a48.84 48.84 0 018.535 1.084l-.94 3.63zM52.5 9.422a45.002 45.002 0 00-7.593.964l-.938-3.63A48.807 48.807 0 0152.5 5.672v3.75zm-11.223 1.903a44.702 44.702 0 00-7.227 2.925l-1.831-3.274c2.6-1.34 5.317-2.44 8.116-3.289l.942 3.638zm-10.5 4.753a45.413 45.413 0 00-6.853 5.198l-2.646-2.65a48.98 48.98 0 017.667-5.824l1.832 3.276zm-9.505 7.849a45.319 45.319 0 00-5.197 6.853l-3.276-1.836a48.897 48.897 0 015.824-7.666l2.65 2.649zM14.25 34.052a44.583 44.583 0 00-2.925 7.226l-3.63-.937a48.34 48.34 0 013.278-8.12l3.277 1.83zm-3.864 10.854a45.05 45.05 0 00-.964 7.594h-3.75a48.808 48.808 0 011.078-8.535l3.636.941zM9.422 56.25a45.05 45.05 0 00.964 7.594l-3.63.937a48.808 48.808 0 01-1.084-8.531h3.75zm1.903 11.222a44.583 44.583 0 002.925 7.226l-3.273 1.834a48.339 48.339 0 01-3.29-8.119l3.638-.941zm4.754 10.5a45.317 45.317 0 005.197 6.853l-2.65 2.647a48.892 48.892 0 01-5.823-7.666l3.276-1.834zm7.848 9.504a45.418 45.418 0 006.853 5.198l-1.835 3.275a48.986 48.986 0 01-7.667-5.823l2.65-2.65zm10.125 7.03a44.703 44.703 0 007.227 2.92l-.938 3.631a48.348 48.348 0 01-8.117-3.278l1.828-3.273zm12.203 11.741a45.007 45.007 0 006.272 2.437l-.938 3.612a49.244 49.244 0 01-8.12-3.267l1.67-2.981c.371.064.74.139 1.114.197l.002.002zm9.902 3.375c2.5.532 5.04.85 7.593.95v3.75a48.318 48.318 0 01-8.529-1.096l.936-3.604zm11.344.956a44.935 44.935 0 007.593-.964l.938 3.63a48.717 48.717 0 01-8.531 1.084v-3.75zm11.223-1.903a44.689 44.689 0 007.226-2.925l1.832 3.274a48.35 48.35 0 01-8.117 3.288l-.94-3.637zm10.5-4.753a45.313 45.313 0 006.853-5.198l2.65 2.65a48.944 48.944 0 01-7.67 5.824l-1.833-3.276zm9.505-7.849a45.325 45.325 0 005.197-6.853l3.276 1.836a48.924 48.924 0 01-5.824 7.666l-2.65-2.649zm7.029-10.125a44.573 44.573 0 002.921-7.226l3.63.937a48.267 48.267 0 01-3.277 8.12l-3.274-1.83zm3.861-10.854c.535-2.5.856-5.04.96-7.594h3.75a48.854 48.854 0 01-1.084 8.535l-3.626-.941zm.954-11.344a44.822 44.822 0 00-.953-7.594l3.602-.937c.619 2.805.986 5.66 1.097 8.531h-3.746zm-1.892-11.224a45.016 45.016 0 00-2.437-6.274c-.059-.375-.134-.75-.201-1.113l2.981-1.67a49.082 49.082 0 013.266 8.122l-3.609.935zm-67.38 52.701l-1.095 1.952a48.898 48.898 0 01-6.08-4.373 52.13 52.13 0 007.175 2.421z" fill="#212121"/></svg>