<svg width="121" height="120" viewBox="0 0 121 120" fill="none" xmlns="http://www.w3.org/2000/svg"><path d="M30.667 31.875h60v33.75h-60v-33.75z" fill="#fff"/><path d="M60.667 9.375l-35.625 15v7.5h71.25v-7.5l-35.625-15zm-35.625 56.25h71.25v7.5h-71.25v-7.5zm3.75-33.75h11.25v7.5h-11.25v-7.5zm0 26.25h11.25v7.5h-11.25v-7.5zm1.875-18.75h7.5v18.75h-7.5v-18.75zm30 3.75a9.375 9.375 0 00-9.375 9.375v13.125h18.75V52.5a9.375 9.375 0 00-9.375-9.375z" fill="#EC4B3C"/><path d="M60.667 26.25a3.75 3.75 0 100-7.5 3.75 3.75 0 000 7.5z" fill="#fff"/><path d="M81.292 31.875h11.25v7.5h-11.25v-7.5zm0 26.25h11.25v7.5h-11.25v-7.5zm1.875-18.75h7.5v18.75h-7.5v-18.75z" fill="#EC4B3C"/><path d="M116.917 93.75h-1.875V39.375A9.388 9.388 0 00105.667 30h-7.5v-5.625a1.876 1.876 0 00-1.148-1.729l-35.625-15a1.875 1.875 0 00-1.454 0l-35.625 15a1.876 1.876 0 00-1.148 1.729V30h-7.5a9.386 9.386 0 00-9.375 9.375V93.75H4.417a1.875 1.875 0 00-1.875 1.875v7.5a9.388 9.388 0 009.375 9.375h97.5a9.39 9.39 0 006.626-2.749 9.39 9.39 0 002.749-6.626v-7.5a1.877 1.877 0 00-1.875-1.875zm-90-68.13l33.75-14.21 33.75 14.21V30h-67.5v-4.38zm3.75 11.88v-3.75h7.5v3.75h-7.5zm5.625 3.75v15h-3.75v-15h3.75zM38.167 60v3.75h-7.5V60h7.5zm56.25 7.5v3.75h-67.5V67.5h67.5zM81.292 41.25v15a1.875 1.875 0 00-1.875 1.875v5.625h-7.5V52.5a11.25 11.25 0 00-22.5 0v11.25h-7.5v-5.625a1.875 1.875 0 00-1.875-1.875v-15a1.875 1.875 0 001.875-1.875V33.75h37.5v5.625a1.875 1.875 0 001.875 1.875zM68.167 52.5v11.25h-15V52.5a7.5 7.5 0 0115 0zm15-15v-3.75h7.5v3.75h-7.5zm5.625 3.75v15h-3.75v-15h3.75zM90.667 60v3.75h-7.5V60h7.5zM10.042 39.375a5.625 5.625 0 015.625-5.625h11.25v5.625a1.875 1.875 0 001.875 1.875v15a1.875 1.875 0 00-1.875 1.875v5.625h-1.875a1.875 1.875 0 00-1.875 1.875v7.5A1.875 1.875 0 0025.042 75h71.25a1.875 1.875 0 001.875-1.875v-7.5a1.875 1.875 0 00-1.875-1.875h-1.875v-5.625a1.875 1.875 0 00-1.875-1.875v-15a1.875 1.875 0 001.875-1.875V33.75h11.25a5.622 5.622 0 015.625 5.625V93.75h-30c-.497 0-.974.198-1.326.55l-5.075 5.075H46.443l-5.075-5.076a1.875 1.875 0 00-1.326-.549h-30V39.375zm105 63.75a5.622 5.622 0 01-1.648 3.977 5.622 5.622 0 01-3.977 1.648h-97.5a5.625 5.625 0 01-5.625-5.625V97.5h32.974l5.075 5.076c.352.351.829.549 1.326.549h30c.497 0 .974-.198 1.326-.549l5.075-5.076h32.974v5.625z" fill="#212121"/><path d="M107.542 101.25h3.75V105h-3.75v-3.75zm-7.5 0h3.75V105h-3.75v-3.75zm7.5-13.125v-48.75a1.877 1.877 0 00-1.875-1.875h-7.5v3.75h5.625v45h-86.25v-45h5.625V37.5h-7.5a1.875 1.875 0 00-1.875 1.875v48.75A1.875 1.875 0 0015.667 90h90a1.876 1.876 0 001.875-1.875zm-46.875-60a5.625 5.625 0 100-11.25 5.625 5.625 0 000 11.25zm0-7.5a1.875 1.875 0 110 3.751 1.875 1.875 0 010-3.751z" fill="#212121"/></svg>