<svg width="121" height="120" viewBox="0 0 121 120" fill="none" xmlns="http://www.w3.org/2000/svg"><path d="M94.083 43.125h-82.5a7.5 7.5 0 00-7.5 7.5v45a7.5 7.5 0 007.5 7.5h82.5a7.5 7.5 0 007.5-7.5v-45a7.5 7.5 0 00-7.5-7.5z" fill="#EC4B3C"/><path d="M24.708 50.625h-9.375a3.75 3.75 0 00-3.75 3.75v3.75a3.75 3.75 0 003.75 3.75h9.375a3.75 3.75 0 003.75-3.75v-3.75a3.75 3.75 0 00-3.75-3.75zm-7.5 41.25h11.25v3.75h-11.25v-3.75zm15 0h18.75v3.75h-18.75v-3.75zM23.77 71.25h-9.374a2.813 2.813 0 000 5.625h9.374a2.813 2.813 0 000-5.625zm22.5 0h-9.375a2.813 2.813 0 000 5.625h9.375a2.813 2.813 0 000-5.625zm22.5 0h-9.374a2.813 2.813 0 000 5.625h9.374a2.813 2.813 0 000-5.625zm22.5 0h-9.374a2.813 2.813 0 000 5.625h9.374a2.813 2.813 0 000-5.625z" fill="#fff"/><path d="M109.083 15h-82.5a9.386 9.386 0 00-9.375 9.375V41.25h-5.625a9.386 9.386 0 00-9.375 9.375v45A9.387 9.387 0 0011.583 105h82.5a9.389 9.389 0 009.375-9.375V78.75h5.625a9.389 9.389 0 009.375-9.375v-45A9.388 9.388 0 00109.083 15zm-82.5 3.75h82.5a5.622 5.622 0 015.625 5.625h-93.75a5.625 5.625 0 015.625-5.625zm88.125 9.375v5.625h-93.75v-5.625h93.75zm-15 67.5a5.625 5.625 0 01-5.625 5.625h-82.5a5.627 5.627 0 01-5.625-5.625v-45A5.625 5.625 0 0111.583 45h82.5a5.625 5.625 0 015.625 5.625v45zM109.083 75h-5.625V50.625a9.388 9.388 0 00-9.375-9.375H20.958V37.5h93.75v31.875A5.625 5.625 0 01109.083 75z" fill="#212121"/><path d="M24.708 48.75h-9.375a5.625 5.625 0 00-5.625 5.625v3.75a5.625 5.625 0 005.625 5.625h9.375a5.625 5.625 0 005.625-5.625v-3.75a5.625 5.625 0 00-5.625-5.625zm1.875 9.375A1.875 1.875 0 0124.708 60h-9.375a1.875 1.875 0 01-1.875-1.875v-3.75a1.875 1.875 0 011.875-1.875h9.375a1.875 1.875 0 011.875 1.875v3.75zm-9.375 33.75h11.25v3.75h-11.25v-3.75zm15 0h18.75v3.75h-18.75v-3.75zm-8.438-22.5h-9.374a4.688 4.688 0 000 9.375h9.374a4.688 4.688 0 000-9.375zm0 5.625h-9.374a.938.938 0 010-1.875h9.374a.938.938 0 010 1.875zm22.5-5.625h-9.375a4.688 4.688 0 000 9.375h9.375a4.688 4.688 0 000-9.375zm0 5.625h-9.375a.938.938 0 010-1.875h9.375a.938.938 0 010 1.875zm27.188-.937a4.687 4.687 0 00-4.688-4.688h-9.374a4.688 4.688 0 000 9.375h9.374a4.688 4.688 0 004.688-4.688zM68.77 75h-9.374a.938.938 0 010-1.875h9.374a.938.938 0 010 1.875zm22.5-5.625h-9.374a4.688 4.688 0 000 9.375h9.374a4.688 4.688 0 000-9.375zm0 5.625h-9.374a.938.938 0 010-1.875h9.374a.938.938 0 010 1.875z" fill="#212121"/></svg>