<svg width="80" height="80" viewBox="0 0 80 80" fill="none" xmlns="http://www.w3.org/2000/svg"><path d="M40 45c5.523 0 10-4.477 10-10s-4.477-10-10-10-10 4.477-10 10 4.477 10 10 10z" fill="#EC4B3C"/><path fill-rule="evenodd" clip-rule="evenodd" d="M37 30.667a1 1 0 011-1h4a3 3 0 110 6h-3V41h-2v-5.333h-1.334v-2h1.333v-3zm2 3h3a1 1 0 000-2h-3v2z" fill="#212121"/><path fill-rule="evenodd" clip-rule="evenodd" d="M35.666 36.334h7.333v2h-7.333v-2z" fill="#212121"/><path d="M20 50h7.5v7.5H20V50zm0 12.5h7.5V70H20v-7.5z" fill="#EC4B3C"/><path d="M65 13.75H53.75V12.5a1.25 1.25 0 00-1.25-1.25h-3.75V10a8.75 8.75 0 00-17.5 0v1.25H27.5a1.25 1.25 0 00-1.25 1.25v1.25H15A1.25 1.25 0 0013.75 15v62.5A1.25 1.25 0 0015 78.75h50a1.25 1.25 0 001.25-1.25V15A1.25 1.25 0 0065 13.75zM33.75 10a6.25 6.25 0 0112.5 0v1.25h-2.5V10a3.75 3.75 0 00-7.5 0v1.25h-2.5V10zm7.5 1.25h-2.5V10a1.25 1.25 0 012.5 0v1.25zm-12.5 2.5h22.5v5h-22.5v-5zm35 62.5h-47.5v-60h10V20a1.25 1.25 0 001.25 1.25h25A1.25 1.25 0 0053.75 20v-3.75h10v60z" fill="#212121"/><path d="M40 46.25A11.25 11.25 0 1028.75 35 11.263 11.263 0 0040 46.25zm0-20A8.75 8.75 0 1131.25 35 8.76 8.76 0 0140 26.25zm-12.5 22.5H20A1.25 1.25 0 0018.75 50v7.5A1.25 1.25 0 0020 58.75h7.5a1.25 1.25 0 001.25-1.25V50a1.25 1.25 0 00-1.25-1.25zm-1.25 7.5h-5v-5h5v5zm1.25 5H20a1.25 1.25 0 00-1.25 1.25V70A1.25 1.25 0 0020 71.25h7.5A1.25 1.25 0 0028.75 70v-7.5a1.25 1.25 0 00-1.25-1.25zm-1.25 7.5h-5v-5h5v5zm5-18.75h30v2.5h-30V50zm0 5h30v2.5h-30V55zm0 7.5h30V65h-30v-2.5zm0 5h30V70h-30v-2.5z" fill="#212121"/></svg>