<svg width="141" height="140" viewBox="0 0 141 140" fill="none" xmlns="http://www.w3.org/2000/svg">
    <path d="M47.9787 20.9524L32.5456 36.3856C30.8646 38.0665 30.8646 40.7919 32.5456 42.4728L47.9787 56.5C49.6597 58.181 64.236 58.181 65.917 56.5L75.9545 48.9282C77.6355 47.2472 77.6355 44.5219 75.9545 42.8409L54.066 20.9524C52.3851 19.2715 49.6597 19.2715 47.9787 20.9524Z" fill="#EC4B3C"/>
    <path d="M109.117 5.64958L87.2282 27.5381C85.5472 29.219 85.5473 31.9444 87.2282 33.6253L102.661 49.0585C104.342 50.7394 107.068 50.7394 108.749 49.0585L130.637 27.17C132.318 25.489 132.318 22.7637 130.637 21.0827L115.204 5.64959C113.523 3.96863 110.798 3.96863 109.117 5.64958Z" fill="#EC4B3C"/>
    <path d="M131.917 54.6875H73.3025L77.5156 50.4744C78.7333 49.2557 79.4174 47.6034 79.4174 45.8806C79.4174 44.1578 78.7333 42.5055 77.5156 41.2869L55.6231 19.4009C54.4045 18.1832 52.7522 17.4992 51.0294 17.4992C49.3066 17.4992 47.6543 18.1832 46.4356 19.4009L30.9984 34.8381C29.7807 36.0568 29.0967 37.7091 29.0967 39.4319C29.0967 41.1547 29.7807 42.807 30.9984 44.0256L41.6756 54.6875H35.6666C35.3488 54.6876 35.0349 54.7569 34.7466 54.8906C34.4584 55.0244 34.2027 55.2193 33.9975 55.4618C33.7922 55.7044 33.6422 55.9887 33.558 56.2951C33.4737 56.6015 33.4573 56.9225 33.5097 57.2359L42.2597 109.736C42.3451 110.246 42.6086 110.71 43.0035 111.044C43.3984 111.379 43.8991 111.562 44.4166 111.563H123.167C123.684 111.562 124.185 111.378 124.58 111.044C124.975 110.709 125.239 110.245 125.323 109.734L134.073 57.2338C134.126 56.9205 134.109 56.5997 134.024 56.2936C133.94 55.9875 133.79 55.7034 133.585 55.4611C133.379 55.2188 133.124 55.0241 132.836 54.8905C132.548 54.7569 132.234 54.6877 131.917 54.6875ZM52.5278 22.4941L74.4203 44.3888C74.8168 44.7858 75.0395 45.3239 75.0395 45.885C75.0395 46.4461 74.8168 46.9842 74.4203 47.3813L72.6244 49.1772L47.7394 24.2922L49.5353 22.4963C49.7316 22.2995 49.9647 22.1434 50.2214 22.0368C50.4781 21.9303 50.7532 21.8753 51.0311 21.8751C51.309 21.8749 51.5842 21.9295 51.841 22.0357C52.0979 22.1419 52.3312 22.2976 52.5278 22.4941V22.4941ZM34.1003 40.9238C33.7038 40.5267 33.4812 39.9886 33.4812 39.4275C33.4812 38.8664 33.7038 38.3283 34.1003 37.9313L44.6484 27.3853L69.5312 52.2813L67.125 54.6875H47.875L34.1003 40.9238ZM129.333 59.0625L127.876 67.8125H39.7069L38.25 59.0625H129.333ZM46.2694 107.188L45.5409 102.813H122.042L121.314 107.188H46.2694ZM122.771 98.4375H44.8125L40.4375 72.1875H127.146L122.771 98.4375Z" fill="#212121"/>
    <path d="M39.6854 115.938L29.0695 56.49C28.9792 55.9848 28.7141 55.5274 28.3206 55.1979C27.9271 54.8684 27.4302 54.6877 26.917 54.6875H9.41699C8.83683 54.6875 8.28043 54.918 7.8702 55.3282C7.45996 55.7384 7.22949 56.2948 7.22949 56.875V65.625C7.22949 66.2052 7.45996 66.7616 7.8702 67.1718C8.28043 67.582 8.83683 67.8125 9.41699 67.8125H26.6479L35.702 118.51C35.7923 119.015 36.0574 119.473 36.4509 119.802C36.8444 120.132 37.3412 120.312 37.8545 120.312H48.8489C47.4012 122.195 46.6125 124.501 46.6045 126.875C46.6045 129.776 47.7568 132.558 49.808 134.609C51.8592 136.66 54.6412 137.812 57.542 137.812C60.4428 137.812 63.2248 136.66 65.276 134.609C67.3272 132.558 68.4795 129.776 68.4795 126.875C68.4714 124.501 67.6828 122.195 66.2351 120.312H101.349C99.9012 122.195 99.1125 124.501 99.1045 126.875C99.1045 129.776 100.257 132.558 102.308 134.609C104.359 136.66 107.141 137.812 110.042 137.812C112.943 137.812 115.725 136.66 117.776 134.609C119.827 132.558 120.979 129.776 120.979 126.875C120.971 124.501 120.183 122.195 118.735 120.312H125.354V115.938H39.6854ZM11.6045 63.4375V59.0625H25.0861L25.867 63.4375H11.6045ZM64.1045 126.875C64.1045 128.173 63.7196 129.442 62.9985 130.521C62.2774 131.6 61.2525 132.441 60.0534 132.938C58.8542 133.435 57.5347 133.565 56.2617 133.311C54.9887 133.058 53.8194 132.433 52.9016 131.515C51.9838 130.598 51.3588 129.428 51.1056 128.155C50.8524 126.882 50.9823 125.563 51.479 124.364C51.9757 123.165 52.8169 122.14 53.8961 121.418C54.9753 120.697 56.2441 120.312 57.542 120.312C59.2825 120.312 60.9517 121.004 62.1824 122.235C63.4131 123.465 64.1045 125.135 64.1045 126.875ZM116.604 126.875C116.604 128.173 116.22 129.442 115.499 130.521C114.777 131.6 113.752 132.441 112.553 132.938C111.354 133.435 110.035 133.565 108.762 133.311C107.489 133.058 106.319 132.433 105.402 131.515C104.484 130.598 103.859 129.428 103.606 128.155C103.352 126.882 103.482 125.563 103.979 124.364C104.476 123.165 105.317 122.14 106.396 121.418C107.475 120.697 108.744 120.312 110.042 120.312C111.782 120.312 113.452 121.004 114.682 122.235C115.913 123.465 116.604 125.135 116.604 126.875V126.875Z" fill="#212121"/>
    <path d="M101.13 50.5991C102.349 51.8168 104.001 52.5008 105.724 52.5008C107.446 52.5008 109.099 51.8168 110.317 50.5991L132.203 28.7066C133.421 27.4879 134.105 25.8356 134.105 24.1128C134.105 22.39 133.421 20.7377 132.203 19.5191L116.766 4.08844C115.548 2.87072 113.895 2.18669 112.172 2.18669C110.45 2.18669 108.797 2.87072 107.579 4.08844L85.6928 25.9809C84.475 27.1996 83.791 28.8519 83.791 30.5747C83.791 32.2975 84.475 33.9498 85.6928 35.1684L101.13 50.5991ZM129.11 25.6113L107.216 47.5038C106.818 47.8997 106.28 48.122 105.719 48.122C105.158 48.122 104.62 47.8997 104.223 47.5038L93.6771 36.9688L118.573 12.0728L129.119 22.6188C129.514 23.0169 129.735 23.5557 129.734 24.1168C129.732 24.6779 129.508 25.2154 129.11 25.6113V25.6113ZM88.7859 29.0763L110.681 7.18375C110.877 6.98718 111.11 6.83124 111.367 6.72485C111.624 6.61846 111.899 6.5637 112.177 6.5637C112.455 6.5637 112.73 6.61846 112.987 6.72485C113.243 6.83124 113.477 6.98718 113.673 7.18375L115.469 8.97969L90.584 33.8647L88.7881 32.0688C88.3913 31.672 88.1682 31.134 88.1678 30.573C88.1674 30.0119 88.3897 29.4736 88.7859 29.0763V29.0763Z" fill="#212121"/>
</svg>
