<svg width="140" height="142" viewBox="0 0 140 142" fill="none" xmlns="http://www.w3.org/2000/svg">
    <path d="M100.625 44.9167H109.375V53.6667H100.625V44.9167Z" fill="white"/>
    <path d="M65.625 44.9167H74.375V53.6667H65.625V44.9167Z" fill="white"/>
    <path d="M30.625 44.9167H39.375V53.6667H30.625V44.9167Z" fill="white"/>
    <path d="M100.625 5.54167H109.375V14.2917H100.625V5.54167Z" fill="white"/>
    <path d="M65.625 5.54167H74.375V14.2917H65.625V5.54167Z" fill="white"/>
    <path d="M30.625 5.54167H39.375V14.2917H30.625V5.54167Z" fill="white"/>
    <path d="M63.4375 84.2917H76.5625V101.792H63.4375V84.2917Z" fill="white"/>
    <path d="M135.625 3.35417H126.875C125.665 3.35417 124.687 4.33417 124.687 5.54167V25.2292H120.312V5.54167C120.312 4.33417 119.335 3.35417 118.125 3.35417H91.875C90.6653 3.35417 89.6875 4.33417 89.6875 5.54167V25.2292H85.3125V5.54167C85.3125 4.33417 84.3347 3.35417 83.125 3.35417H56.875C55.6653 3.35417 54.6875 4.33417 54.6875 5.54167V25.2292H50.3125V5.54167C50.3125 4.33417 49.3347 3.35417 48.125 3.35417H21.875C20.6653 3.35417 19.6875 4.33417 19.6875 5.54167V25.2292H15.3125V5.54167C15.3125 4.33417 14.3347 3.35417 13.125 3.35417H4.375C3.16531 3.35417 2.1875 4.33417 2.1875 5.54167V136.792C2.1875 137.999 3.16531 138.979 4.375 138.979H13.125C14.3347 138.979 15.3125 137.999 15.3125 136.792V130.229H124.687V136.792C124.687 137.999 125.665 138.979 126.875 138.979H135.625C136.835 138.979 137.812 137.999 137.812 136.792V5.54167C137.812 4.33417 136.835 3.35417 135.625 3.35417ZM10.9375 134.604H6.5625V7.72917H10.9375V134.604ZM102.812 7.72917H107.187V12.1042H102.812V7.72917ZM94.0625 7.72917H98.4375V14.2917C98.4375 15.4992 99.4153 16.4792 100.625 16.4792H109.375C110.585 16.4792 111.562 15.4992 111.562 14.2917V7.72917H115.937V25.2292H94.0625V7.72917ZM67.8125 7.72917H72.1875V12.1042H67.8125V7.72917ZM59.0625 7.72917H63.4375V14.2917C63.4375 15.4992 64.4153 16.4792 65.625 16.4792H74.375C75.5847 16.4792 76.5625 15.4992 76.5625 14.2917V7.72917H80.9375V25.2292H59.0625V7.72917ZM32.8125 7.72917H37.1875V12.1042H32.8125V7.72917ZM24.0625 7.72917H28.4375V14.2917C28.4375 15.4992 29.4153 16.4792 30.625 16.4792H39.375C40.5847 16.4792 41.5625 15.4992 41.5625 14.2917V7.72917H45.9375V25.2292H24.0625V7.72917ZM124.687 29.6042V33.9792H15.3125V29.6042H124.687ZM65.625 86.4792H74.375V99.6042H65.625V86.4792ZM63.4375 103.979H76.5625C77.7722 103.979 78.75 102.999 78.75 101.792V86.4792H115.937V117.104H24.0625V86.4792H61.25V101.792C61.25 102.999 62.2278 103.979 63.4375 103.979ZM118.125 82.1042H21.875C20.6653 82.1042 19.6875 83.0842 19.6875 84.2917V117.104H15.3125V77.7292H124.687V117.104H120.312V84.2917C120.312 83.0842 119.335 82.1042 118.125 82.1042ZM15.3125 73.3542V68.9792H124.687V73.3542H15.3125ZM32.8125 47.1042H37.1875V51.4792H32.8125V47.1042ZM30.625 55.8542H39.375C40.5847 55.8542 41.5625 54.8742 41.5625 53.6667V47.1042H45.9375V64.6042H24.0625V47.1042H28.4375V53.6667C28.4375 54.8742 29.4153 55.8542 30.625 55.8542ZM67.8125 47.1042H72.1875V51.4792H67.8125V47.1042ZM65.625 55.8542H74.375C75.5847 55.8542 76.5625 54.8742 76.5625 53.6667V47.1042H80.9375V64.6042H59.0625V47.1042H63.4375V53.6667C63.4375 54.8742 64.4153 55.8542 65.625 55.8542ZM102.812 47.1042H107.187V51.4792H102.812V47.1042ZM100.625 55.8542H109.375C110.585 55.8542 111.562 54.8742 111.562 53.6667V47.1042H115.937V64.6042H94.0625V47.1042H98.4375V53.6667C98.4375 54.8742 99.4153 55.8542 100.625 55.8542ZM120.312 64.6042V44.9167C120.312 43.7092 119.335 42.7292 118.125 42.7292H91.875C90.6653 42.7292 89.6875 43.7092 89.6875 44.9167V64.6042H85.3125V44.9167C85.3125 43.7092 84.3347 42.7292 83.125 42.7292H56.875C55.6653 42.7292 54.6875 43.7092 54.6875 44.9167V64.6042H50.3125V44.9167C50.3125 43.7092 49.3347 42.7292 48.125 42.7292H21.875C20.6653 42.7292 19.6875 43.7092 19.6875 44.9167V64.6042H15.3125V38.3542H124.687V64.6042H120.312ZM15.3125 125.854V121.479H124.687V125.854H15.3125ZM133.437 134.604H129.062V7.72917H133.437V134.604Z" fill="#212121"/>
    <path d="M102.812 108.354H111.562V112.729H102.812V108.354Z" fill="#212121"/>
    <path d="M102.812 99.6042H111.562V103.979H102.812V99.6042Z" fill="#212121"/>
    <rect x="17.5" width="106.167" height="25.2292" fill="#F8F8F8"/>
    <rect x="16.917" y="39.375" width="106.167" height="25.2292" fill="#F8F8F8"/>
    <rect x="15.167" y="39.375" width="109.958" height="77.7292" fill="#F8F8F8"/>
    <rect x="35.3438" y="65.8437" width="68.3958" height="43.6042" fill="#EC4B3C"/>
    <path d="M111.173 65.8185C111.621 65.8185 112.051 65.6406 112.368 65.3239C112.684 65.0072 112.862 64.5777 112.862 64.1298V56.2417C112.862 55.7938 112.684 55.3643 112.368 55.0476C112.051 54.7309 111.621 54.553 111.173 54.553H104.53V47.9095C104.53 47.4616 104.352 47.0321 104.035 46.7154C103.719 46.3987 103.289 46.2208 102.841 46.2208H91.7317C91.2838 46.2208 90.8543 46.3987 90.5376 46.7154C90.2209 47.0321 90.043 47.4616 90.043 47.9095V54.553H83.6995V50.6869C83.6995 50.239 83.5216 49.8095 83.2049 49.4928C82.8882 49.1761 82.4587 48.9982 82.0108 48.9982H57.0142C56.5664 48.9982 56.1368 49.1761 55.8202 49.4928C55.5035 49.8095 55.3255 50.239 55.3255 50.6869V54.553H48.9821V47.9095C48.9821 47.4616 48.8041 47.0321 48.4874 46.7154C48.1708 46.3987 47.7412 46.2208 47.2934 46.2208H36.1838C35.7359 46.2208 35.3064 46.3987 34.9897 46.7154C34.673 47.0321 34.4951 47.4616 34.4951 47.9095V54.553H27.8516C27.4037 54.553 26.9742 54.7309 26.6575 55.0476C26.3408 55.3643 26.1629 55.7938 26.1629 56.2417V64.1298C26.1629 64.5777 26.3408 65.0072 26.6575 65.3239C26.9742 65.6406 27.4037 65.8185 27.8516 65.8185H31.7177V109.657H27.8516C27.4037 109.657 26.9742 109.835 26.6575 110.151C26.3408 110.468 26.1629 110.898 26.1629 111.346V119.234C26.1629 119.682 26.3408 120.111 26.6575 120.428C26.9742 120.744 27.4037 120.922 27.8516 120.922H111.173C111.621 120.922 112.051 120.744 112.368 120.428C112.684 120.111 112.862 119.682 112.862 119.234V111.346C112.862 110.898 112.684 110.468 112.368 110.151C112.051 109.835 111.621 109.657 111.173 109.657H107.307V65.8185H111.173ZM93.4204 49.5982H101.153V54.553H93.4204V49.5982ZM58.7029 52.3756H80.3221V54.553H58.7029V52.3756ZM37.8725 49.5982H45.6047V54.553H37.8725V49.5982ZM29.5403 57.9304H109.485V62.4411H29.5403V57.9304ZM109.485 117.545H29.5403V113.034H109.485V117.545ZM103.93 109.657H35.0951V65.8185H103.93V109.657Z" fill="#212121" stroke="#212121" stroke-width="0.6"/>
    <path d="M62.5689 90.515H66.3448L63.9993 99.8998C63.9225 100.207 63.9532 100.532 64.0862 100.819C64.2192 101.107 64.4465 101.34 64.7304 101.481C65.0143 101.621 65.3378 101.66 65.6471 101.592C65.9564 101.523 66.2329 101.351 66.4309 101.104L77.5405 87.2168C77.704 87.0126 77.8065 86.7662 77.8362 86.5062C77.8658 86.2463 77.8214 85.9832 77.7081 85.7473C77.5947 85.5115 77.417 85.3125 77.1955 85.1732C76.974 85.0339 76.7176 84.9601 76.4559 84.9602H72.68L75.0255 75.5768C75.1028 75.2693 75.0725 74.9446 74.9397 74.6567C74.8069 74.3688 74.5795 74.135 74.2955 73.9942C74.0114 73.8534 73.6877 73.814 73.3782 73.8826C73.0686 73.9513 72.7919 74.1237 72.5939 74.3714L61.4843 88.2583C61.3208 88.4626 61.2183 88.7089 61.1886 88.9689C61.159 89.2289 61.2034 89.492 61.3167 89.7278C61.4301 89.9637 61.6078 90.1627 61.8293 90.302C62.0509 90.4412 62.3072 90.5151 62.5689 90.515V90.515ZM70.7872 81.0718L69.5541 86.0087C69.5023 86.2136 69.498 86.4277 69.5414 86.6345C69.5849 86.8414 69.6751 87.0356 69.805 87.2024C69.9349 87.3691 70.1012 87.504 70.2911 87.5968C70.4811 87.6895 70.6897 87.7377 70.9011 87.7376H73.566L68.2376 94.4033L69.4707 89.4651C69.5223 89.2603 69.5264 89.0464 69.4828 88.8397C69.4392 88.633 69.349 88.4389 69.2191 88.2724C69.0893 88.1058 68.9231 87.971 68.7332 87.8784C68.5434 87.7857 68.3349 87.7375 68.1237 87.7376H65.4588L70.7872 81.0718Z" fill="white"/>
    <path d="M71.2913 78.6041C69.0795 81.375 64.6268 86.9895 64.5101 87.2812L62.833 88.5208L67.5726 89.3229L66.9893 98.1458L75.8122 87.2812C74.3052 86.9409 71.2913 86.2312 71.2913 86.1145V78.6041Z" fill="white"/>
    <path d="M91.7305 67.9958H91.4305V68.2958V71.0732V71.3732H91.7305H100.063H100.363V71.0732V68.2958V67.9958H100.063H91.7305Z" fill="#212121" stroke="#212121" stroke-width="0.6"/>
    <path d="M37.2723 73.8506V74.1506H37.5723H40.0497V76.628V76.928H40.3497H43.1271H43.4271V76.628V74.1506H45.9045H46.2045V73.8506V71.0732V70.7732H45.9045H43.4271V68.2958V67.9958H43.1271H40.3497H40.0497V68.2958V70.7732H37.5723H37.2723V71.0732V73.8506Z" fill="#212121" stroke="#212121" stroke-width="0.6"/>
</svg>
