<svg width="141" height="140" viewBox="0 0 141 140" fill="none" xmlns="http://www.w3.org/2000/svg">
    <path d="M114.083 74.375H135.958V120.312H114.083V74.375Z" fill="#EC4B3C"/>
    <path d="M4.70801 74.375H26.583V120.312H4.70801V74.375Z" fill="#EC4B3C"/>
    <path d="M33.1455 45.9375V10.9375C33.1455 7.31281 36.0833 4.375 39.708 4.375H100.958C104.583 4.375 107.521 7.31281 107.521 10.9375V45.9375C107.521 49.5622 104.583 52.5 100.958 52.5H81.2705L70.333 63.4375L59.3955 52.5H39.708C36.0833 52.5 33.1455 49.5622 33.1455 45.9375Z" fill="#EC4B3C"/>
    <path d="M50.6455 32.8125L60.0364 42.2034C61.0274 43.1944 62.3705 43.75 63.7705 43.75C65.1705 43.75 66.5136 43.1944 67.5046 42.2034L90.0205 19.6875L83.458 13.125L63.7705 32.8125L57.208 26.25L50.6455 32.8125Z" fill="white"/>
    <path d="M26.583 76.5625H114.083V80.9375H26.583V76.5625Z" fill="black"/>
    <path d="M99.1468 124.687C96.9089 124.687 94.8068 123.817 93.2252 122.233L75.3489 104.359L78.4421 101.266L96.3183 119.14C97.0643 119.886 98.0924 120.312 99.1468 120.312C101.352 120.312 103.146 118.519 103.146 116.312C103.146 115.244 102.73 114.238 101.975 113.483L80.3649 91.875H73.4261L62.7533 102.546C61.1718 104.129 59.0718 105 56.8318 105C52.2161 105 48.458 101.244 48.458 96.6241C48.458 94.3884 49.3286 92.2863 50.9102 90.7025L64.4114 77.2012L67.5046 80.2944L54.0033 93.7934C53.2486 94.5525 52.833 95.5566 52.833 96.6241C52.833 98.8313 54.6268 100.625 56.8318 100.625C57.8839 100.625 58.9143 100.198 59.6602 99.4547L70.9739 88.1409C71.383 87.7297 71.9386 87.5 72.5205 87.5H81.2705C81.8524 87.5 82.408 87.7297 82.8171 88.1409L105.068 110.39C106.65 111.974 107.521 114.076 107.521 116.312C107.521 120.932 103.762 124.687 99.1468 124.687V124.687Z" fill="black"/>
    <path d="M72.8964 133.437C70.6586 133.437 68.5564 132.567 66.9749 130.983L53.4736 117.484L56.5668 114.391L70.068 127.89C70.8139 128.636 71.8421 129.062 72.8964 129.062C75.1014 129.062 76.8952 127.269 76.8952 125.062C76.8952 123.994 76.4796 122.988 75.7249 122.233L78.818 119.142C80.3996 120.724 81.2702 122.826 81.2702 125.062C81.2702 129.682 77.5121 133.437 72.8964 133.437V133.437Z" fill="black"/>
    <path d="M59.7718 137.812C57.5339 137.812 55.4318 136.942 53.8502 135.358L36.6149 118.125H26.583V113.75H37.5205C38.1024 113.75 38.658 113.98 39.0671 114.391L56.9433 132.265C57.6893 133.011 58.7174 133.438 59.7718 133.438C61.9768 133.438 63.7705 131.644 63.7705 129.437C63.7705 128.369 63.3549 127.363 62.6002 126.608L65.6933 123.517C67.2749 125.099 68.1455 127.201 68.1455 129.437C68.1455 134.057 64.3874 137.812 59.7718 137.812V137.812Z" fill="black"/>
    <path d="M105.333 113.75H114.083V118.125H105.333V113.75Z" fill="black"/>
    <path d="M86.0214 129.062C83.7836 129.062 81.6814 128.192 80.0999 126.608L64.4111 110.922L67.5043 107.828L83.193 123.515C83.939 124.261 84.9671 124.687 86.0214 124.687C88.2264 124.687 90.0202 122.894 90.0202 120.687C90.0202 119.619 89.6046 118.613 88.8499 117.858L91.943 114.767C93.5246 116.349 94.3952 118.451 94.3952 120.687C94.3952 125.307 90.6371 129.062 86.0214 129.062V129.062Z" fill="black"/>
    <path d="M70.333 65.625C69.773 65.625 69.213 65.4106 68.7864 64.9841L58.4899 54.6875H39.708C34.8824 54.6875 30.958 50.7631 30.958 45.9375V10.9375C30.958 6.11187 34.8824 2.1875 39.708 2.1875H100.958C105.784 2.1875 109.708 6.11187 109.708 10.9375V45.9375C109.708 50.7631 105.784 54.6875 100.958 54.6875H82.1761L71.8796 64.9841C71.453 65.4106 70.893 65.625 70.333 65.625ZM39.708 6.5625C37.2952 6.5625 35.333 8.52469 35.333 10.9375V45.9375C35.333 48.3503 37.2952 50.3125 39.708 50.3125H59.3955C59.9774 50.3125 60.533 50.5422 60.9421 50.9534L70.333 60.3444L79.7239 50.9534C80.133 50.5422 80.6886 50.3125 81.2705 50.3125H100.958C103.371 50.3125 105.333 48.3503 105.333 45.9375V10.9375C105.333 8.52469 103.371 6.5625 100.958 6.5625H39.708Z" fill="black"/>
    <path d="M63.7701 45.9375C61.7773 45.9375 59.9004 45.1609 58.4895 43.75L49.0985 34.3591C48.2432 33.5037 48.2432 32.1212 49.0985 31.2659L55.661 24.7034C56.5163 23.8481 57.8988 23.8481 58.7541 24.7034L63.7701 29.7194L81.911 11.5784C82.7663 10.7231 84.1488 10.7231 85.0041 11.5784L91.5666 18.1409C92.422 18.9962 92.422 20.3787 91.5666 21.2341L69.0507 43.75C67.6398 45.1609 65.7629 45.9375 63.7701 45.9375ZM53.7382 32.8125L61.5826 40.6569C62.7529 41.825 64.7873 41.8272 65.9576 40.6569L86.9269 19.6875L83.4576 16.2181L65.3166 34.3591C64.4613 35.2144 63.0788 35.2144 62.2235 34.3591L57.2076 29.3431L53.7382 32.8125Z" fill="black"/>
    <path d="M26.583 122.5H4.70801C3.49832 122.5 2.52051 121.52 2.52051 120.312V74.375C2.52051 73.1675 3.49832 72.1875 4.70801 72.1875H26.583C27.7927 72.1875 28.7705 73.1675 28.7705 74.375V120.312C28.7705 121.52 27.7927 122.5 26.583 122.5ZM6.89551 118.125H24.3955V76.5625H6.89551V118.125Z" fill="black"/>
    <path d="M135.958 122.5H114.083C112.873 122.5 111.896 121.52 111.896 120.312V74.375C111.896 73.1675 112.873 72.1875 114.083 72.1875H135.958C137.168 72.1875 138.146 73.1675 138.146 74.375V120.312C138.146 121.52 137.168 122.5 135.958 122.5ZM116.271 118.125H133.771V76.5625H116.271V118.125Z" fill="black"/>
</svg>
