<svg width="141" height="140" viewBox="0 0 141 140" fill="none" xmlns="http://www.w3.org/2000/svg">
    <path d="M92.208 21.875H4.70801V91.875H92.208V21.875Z" fill="#EC4B3C"/>
    <path d="M79.083 13.125H17.833V70H79.083V13.125Z" fill="white"/>
    <path d="M57.208 13.125V48.125L48.458 39.375L39.708 48.125V13.125" fill="#EC4B3C"/>
    <path d="M4.70801 19.6875H15.6455V13.125C15.6455 12.5448 15.876 11.9884 16.2862 11.5782C16.6964 11.168 17.2528 10.9375 17.833 10.9375H79.083C79.6632 10.9375 80.2196 11.168 80.6298 11.5782C81.04 11.9884 81.2705 12.5448 81.2705 13.125V19.6875H92.208C92.7882 19.6875 93.3446 19.918 93.7548 20.3282C94.165 20.7384 94.3955 21.2948 94.3955 21.875V50.3125H113.775C115.576 50.3104 117.35 50.7542 118.938 51.6042C120.526 52.4542 121.879 53.684 122.877 55.1841L137.778 77.5359C138.017 77.8958 138.145 78.318 138.146 78.75V109.375C138.146 111.115 137.454 112.785 136.223 114.015C134.993 115.246 133.323 115.938 131.583 115.938H124.846C124.322 119.579 122.504 122.911 119.724 125.32C116.943 127.73 113.387 129.056 109.708 129.056C106.029 129.056 102.473 127.73 99.6924 125.32C96.912 122.911 95.0935 119.579 94.5705 115.938H67.9705C67.5235 119.067 66.1169 121.981 63.9445 124.279C61.7721 126.576 58.9408 128.142 55.8408 128.763C52.7407 129.384 49.5245 129.028 46.6352 127.744C43.7458 126.461 41.3256 124.313 39.708 121.597C38.0904 124.313 35.6702 126.461 32.7809 127.744C29.8915 129.028 26.6753 129.384 23.5752 128.763C20.4752 128.142 17.6439 126.576 15.4715 124.279C13.2991 121.981 11.8925 119.067 11.4455 115.938H4.70801C4.12785 115.938 3.57145 115.707 3.16121 115.297C2.75097 114.887 2.52051 114.33 2.52051 113.75V21.875C2.52051 21.2948 2.75097 20.7384 3.16121 20.3282C3.57145 19.918 4.12785 19.6875 4.70801 19.6875ZM55.0205 15.3125H41.8955V42.8444L46.9114 37.8284C47.3217 37.4183 47.878 37.188 48.458 37.188C49.0381 37.188 49.5944 37.4183 50.0046 37.8284L55.0205 42.8444V15.3125ZM76.8955 15.3125H59.3955V48.125C59.3954 48.5576 59.2671 48.9804 59.0267 49.3401C58.7863 49.6997 58.4447 49.98 58.0451 50.1455C57.6454 50.3111 57.2057 50.3544 56.7814 50.27C56.3571 50.1857 55.9674 49.9774 55.6614 49.6716L48.458 42.4681L41.2546 49.6716C40.8444 50.0818 40.2881 50.3124 39.708 50.3125C39.4205 50.3134 39.1356 50.2569 38.8702 50.1462C38.4706 49.9806 38.129 49.7001 37.8888 49.3403C37.6486 48.9805 37.5204 48.5576 37.5205 48.125V15.3125H20.0205V67.8125H76.8955V15.3125ZM90.0205 24.0625H81.2705V70C81.2705 70.5802 81.04 71.1366 80.6298 71.5468C80.2196 71.957 79.6632 72.1875 79.083 72.1875H17.833C17.2528 72.1875 16.6964 71.957 16.2862 71.5468C15.876 71.1366 15.6455 70.5802 15.6455 70V24.0625H6.89551V89.6875H90.0205V24.0625ZM119.235 57.61C118.636 56.71 117.825 55.9721 116.872 55.4621C115.919 54.9522 114.855 54.686 113.775 54.6875H105.333V67.8125C105.333 70.1331 106.255 72.3587 107.896 73.9997C109.537 75.6406 111.762 76.5625 114.083 76.5625H131.872L119.235 57.61ZM133.771 89.6875H127.208C126.628 89.6875 126.071 89.918 125.661 90.3282C125.251 90.7384 125.021 91.2948 125.021 91.875V96.25C125.021 96.8302 125.251 97.3866 125.661 97.7968C126.071 98.207 126.628 98.4375 127.208 98.4375H133.771V89.6875ZM109.708 124.688C111.871 124.688 113.986 124.046 115.785 122.844C117.583 121.642 118.985 119.934 119.813 117.936C120.641 115.937 120.857 113.738 120.435 111.616C120.013 109.495 118.972 107.546 117.442 106.016C115.912 104.486 113.963 103.445 111.842 103.023C109.72 102.601 107.521 102.817 105.522 103.645C103.524 104.473 101.816 105.875 100.614 107.673C99.412 109.472 98.7705 111.587 98.7705 113.75C98.774 116.65 99.9274 119.43 101.978 121.48C104.028 123.531 106.808 124.684 109.708 124.688V124.688ZM52.833 124.688C54.9962 124.688 57.1109 124.046 58.9096 122.844C60.7082 121.642 62.1101 119.934 62.9379 117.936C63.7658 115.937 63.9824 113.738 63.5603 111.616C63.1383 109.495 62.0966 107.546 60.567 106.016C59.0374 104.486 57.0885 103.445 54.9668 103.023C52.8451 102.601 50.646 102.817 48.6474 103.645C46.6488 104.473 44.9406 105.875 43.7388 107.673C42.537 109.472 41.8955 111.587 41.8955 113.75C41.899 116.65 43.0524 119.43 45.1029 121.48C47.1533 123.531 49.9333 124.684 52.833 124.688ZM26.583 124.688C28.7462 124.688 30.8609 124.046 32.6596 122.844C34.4582 121.642 35.8601 119.934 36.6879 117.936C37.5158 115.937 37.7324 113.738 37.3103 111.616C36.8883 109.495 35.8466 107.546 34.317 106.016C32.7874 104.486 30.8385 103.445 28.7168 103.023C26.5951 102.601 24.396 102.817 22.3974 103.645C20.3988 104.473 18.6906 105.875 17.4888 107.673C16.287 109.472 15.6455 111.587 15.6455 113.75C15.649 116.65 16.8024 119.43 18.8529 121.48C20.9033 123.531 23.6833 124.684 26.583 124.688ZM6.89551 111.562H11.4455C11.8925 108.433 13.2991 105.519 15.4715 103.221C17.6439 100.924 20.4752 99.3577 23.5752 98.7369C26.6753 98.1162 29.8915 98.4721 32.7809 99.7556C35.6702 101.039 38.0904 103.187 39.708 105.903C41.3256 103.187 43.7458 101.039 46.6352 99.7556C49.5245 98.4721 52.7407 98.1162 55.8408 98.7369C58.9408 99.3577 61.7721 100.924 63.9445 103.221C66.1169 105.519 67.5235 108.433 67.9705 111.562H94.5705C95.0935 107.921 96.912 104.589 99.6924 102.18C102.473 99.7701 106.029 98.4437 109.708 98.4437C113.387 98.4437 116.943 99.7701 119.724 102.18C122.504 104.589 124.322 107.921 124.846 111.562H131.583C132.163 111.562 132.72 111.332 133.13 110.922C133.54 110.512 133.771 109.955 133.771 109.375V102.812H127.208C125.468 102.812 123.798 102.121 122.568 100.89C121.337 99.6597 120.646 97.9905 120.646 96.25V91.875C120.646 90.1345 121.337 88.4653 122.568 87.2346C123.798 86.0039 125.468 85.3125 127.208 85.3125H133.771V80.9375H114.083C110.603 80.934 107.267 79.5501 104.806 77.0894C102.345 74.6288 100.961 71.2924 100.958 67.8125V54.6875H94.3955V91.875C94.3955 92.4552 94.165 93.0116 93.7548 93.4218C93.3446 93.832 92.7882 94.0625 92.208 94.0625H6.89551V111.562Z" fill="#212121"/>
    <path d="M109.708 107.188C111.006 107.188 112.275 107.572 113.354 108.293C114.433 109.015 115.274 110.04 115.771 111.239C116.268 112.438 116.398 113.757 116.144 115.03C115.891 116.303 115.266 117.473 114.348 118.39C113.431 119.308 112.261 119.933 110.988 120.186C109.715 120.44 108.396 120.31 107.197 119.813C105.998 119.316 104.973 118.475 104.251 117.396C103.53 116.317 103.146 115.048 103.146 113.75C103.146 112.01 103.837 110.34 105.068 109.11C106.298 107.879 107.968 107.188 109.708 107.188V107.188ZM109.708 115.938C110.141 115.938 110.564 115.809 110.923 115.569C111.283 115.328 111.563 114.987 111.729 114.587C111.895 114.187 111.938 113.748 111.853 113.323C111.769 112.899 111.561 112.509 111.255 112.203C110.949 111.897 110.559 111.689 110.135 111.605C109.71 111.52 109.271 111.563 108.871 111.729C108.471 111.895 108.13 112.175 107.889 112.535C107.649 112.894 107.521 113.317 107.521 113.75C107.521 114.33 107.751 114.887 108.161 115.297C108.571 115.707 109.128 115.938 109.708 115.938Z" fill="#212121"/>
    <path d="M26.583 107.188C27.8809 107.188 29.1497 107.572 30.2289 108.293C31.3081 109.015 32.1493 110.04 32.646 111.239C33.1427 112.438 33.2726 113.757 33.0194 115.03C32.7662 116.303 32.1412 117.473 31.2234 118.39C30.3056 119.308 29.1363 119.933 27.8633 120.186C26.5903 120.44 25.2708 120.31 24.0716 119.813C22.8725 119.316 21.8476 118.475 21.1265 117.396C20.4054 116.317 20.0205 115.048 20.0205 113.75C20.0205 112.01 20.7119 110.34 21.9426 109.11C23.1733 107.879 24.8425 107.188 26.583 107.188ZM26.583 115.938C27.0157 115.938 27.4386 115.809 27.7983 115.569C28.158 115.328 28.4384 114.987 28.604 114.587C28.7696 114.187 28.8129 113.748 28.7285 113.323C28.6441 112.899 28.4357 112.509 28.1298 112.203C27.8239 111.897 27.4341 111.689 27.0098 111.605C26.5854 111.52 26.1456 111.563 25.7459 111.729C25.3462 111.895 25.0045 112.175 24.7642 112.535C24.5238 112.894 24.3955 113.317 24.3955 113.75C24.3955 114.33 24.626 114.887 25.0362 115.297C25.4464 115.707 26.0028 115.938 26.583 115.938Z" fill="#212121"/>
    <path d="M52.833 107.188C54.1309 107.188 55.3997 107.572 56.4789 108.293C57.5581 109.015 58.3993 110.04 58.896 111.239C59.3927 112.438 59.5226 113.757 59.2694 115.03C59.0162 116.303 58.3912 117.473 57.4734 118.39C56.5556 119.308 55.3863 119.933 54.1133 120.186C52.8403 120.44 51.5208 120.31 50.3216 119.813C49.1225 119.316 48.0976 118.475 47.3765 117.396C46.6554 116.317 46.2705 115.048 46.2705 113.75C46.2705 112.01 46.9619 110.34 48.1926 109.11C49.4233 107.879 51.0925 107.188 52.833 107.188ZM52.833 115.938C53.2657 115.938 53.6886 115.809 54.0483 115.569C54.408 115.328 54.6884 114.987 54.854 114.587C55.0196 114.187 55.0629 113.748 54.9785 113.323C54.8941 112.899 54.6857 112.509 54.3798 112.203C54.0739 111.897 53.6841 111.689 53.2598 111.605C52.8354 111.52 52.3956 111.563 51.9959 111.729C51.5962 111.895 51.2545 112.175 51.0142 112.535C50.7738 112.894 50.6455 113.317 50.6455 113.75C50.6455 114.33 50.876 114.887 51.2862 115.297C51.6964 115.707 52.2528 115.938 52.833 115.938Z" fill="#212121"/>
</svg>
