<svg width="141" height="140" viewBox="0 0 141 140" fill="none" xmlns="http://www.w3.org/2000/svg">
    <path d="M114.417 135.625C110.091 135.625 105.861 134.342 102.264 131.938C98.6666 129.535 95.8628 126.118 94.2071 122.121C92.5515 118.124 92.1183 113.726 92.9623 109.482C93.8064 105.239 95.8898 101.341 98.949 98.2821C102.008 95.2228 105.906 93.1394 110.149 92.2953C114.393 91.4513 118.791 91.8845 122.788 93.5401C126.785 95.1958 130.202 97.9996 132.605 101.597C135.009 105.194 136.292 109.424 136.292 113.75C136.286 119.55 133.979 125.11 129.878 129.211C125.777 133.312 120.217 135.619 114.417 135.625V135.625Z" fill="#EC4B3C"/>
    <path d="M118.886 13.101H9.51074C8.35042 13.101 7.23762 13.5619 6.41715 14.3824C5.59668 15.2028 5.13574 16.3156 5.13574 17.476V38.601H123.261V17.476C123.261 16.3156 122.8 15.2028 121.979 14.3824C121.159 13.5619 120.046 13.101 118.886 13.101Z" fill="#EC4B3C"/>
    <path d="M15.9795 4.375H29.1045V21.875H15.9795V4.375Z" fill="#EC4B3C"/>
    <path d="M42.2295 4.375H55.3545V21.875H42.2295V4.375Z" fill="#EC4B3C"/>
    <path d="M72.8545 4.375H85.9795V21.875H72.8545V4.375Z" fill="#EC4B3C"/>
    <path d="M99.1045 4.375H112.229V21.875H99.1045V4.375Z" fill="#EC4B3C"/>
    <path d="M61.917 19.6875H66.292V24.0625H61.917V19.6875Z" fill="#E2E7F6"/>
    <rect x="80.667" y="93" width="11" height="11" fill="white"/>
    <path d="M110.042 124.687C109.462 124.687 108.905 124.457 108.495 124.047L101.933 117.484L105.026 114.391L110.042 119.407L125.995 103.453L129.088 106.547L111.588 124.047C111.178 124.457 110.622 124.687 110.042 124.687V124.687Z" fill="#F2F2F2"/>
    <path d="M125.354 92.3431V17.5C125.354 15.7595 124.663 14.0903 123.432 12.8596C122.202 11.6289 120.532 10.9375 118.792 10.9375H114.417V4.375C114.417 3.79484 114.187 3.23844 113.776 2.8282C113.366 2.41797 112.81 2.1875 112.229 2.1875H99.1045C98.5243 2.1875 97.9679 2.41797 97.5577 2.8282C97.1475 3.23844 96.917 3.79484 96.917 4.375V10.9375H88.167V4.375C88.167 3.79484 87.9365 3.23844 87.5263 2.8282C87.1161 2.41797 86.5597 2.1875 85.9795 2.1875H72.8545C72.2743 2.1875 71.7179 2.41797 71.3077 2.8282C70.8975 3.23844 70.667 3.79484 70.667 4.375V10.9375H57.542V4.375C57.542 3.79484 57.3115 3.23844 56.9013 2.8282C56.4911 2.41797 55.9347 2.1875 55.3545 2.1875H42.2295C41.6493 2.1875 41.0929 2.41797 40.6827 2.8282C40.2725 3.23844 40.042 3.79484 40.042 4.375V10.9375H31.292V4.375C31.292 3.79484 31.0615 3.23844 30.6513 2.8282C30.2411 2.41797 29.6847 2.1875 29.1045 2.1875H15.9795C15.3993 2.1875 14.8429 2.41797 14.4327 2.8282C14.0225 3.23844 13.792 3.79484 13.792 4.375V10.9375H9.41699C7.67651 10.9375 6.00731 11.6289 4.7766 12.8596C3.5459 14.0903 2.85449 15.7595 2.85449 17.5V122.5C2.85449 124.24 3.5459 125.91 4.7766 127.14C6.00731 128.371 7.67651 129.062 9.41699 129.062H95.8648C98.1377 131.819 100.996 134.035 104.233 135.548C107.469 137.062 111.002 137.835 114.575 137.812C118.148 137.789 121.671 136.97 124.887 135.415C128.104 133.86 130.934 131.608 133.171 128.822C135.408 126.036 136.997 122.787 137.821 119.311C138.645 115.834 138.684 112.218 137.936 108.724C137.187 105.231 135.669 101.948 133.493 99.1142C131.317 96.2806 128.537 93.9676 125.354 92.3431V92.3431ZM101.292 6.5625H110.042V19.6875H101.292V6.5625ZM75.042 6.5625H83.792V19.6875H75.042V6.5625ZM44.417 6.5625H53.167V19.6875H44.417V6.5625ZM18.167 6.5625H26.917V19.6875H18.167V6.5625ZM9.41699 15.3125H13.792V21.875C13.792 22.4552 14.0225 23.0116 14.4327 23.4218C14.8429 23.832 15.3993 24.0625 15.9795 24.0625H29.1045C29.6847 24.0625 30.2411 23.832 30.6513 23.4218C31.0615 23.0116 31.292 22.4552 31.292 21.875V15.3125H40.042V21.875C40.042 22.4552 40.2725 23.0116 40.6827 23.4218C41.0929 23.832 41.6493 24.0625 42.2295 24.0625H55.3545C55.9347 24.0625 56.4911 23.832 56.9013 23.4218C57.3115 23.0116 57.542 22.4552 57.542 21.875V15.3125H70.667V21.875C70.667 22.4552 70.8975 23.0116 71.3077 23.4218C71.7179 23.832 72.2743 24.0625 72.8545 24.0625H85.9795C86.5597 24.0625 87.1161 23.832 87.5263 23.4218C87.9365 23.0116 88.167 22.4552 88.167 21.875V15.3125H96.917V21.875C96.917 22.4552 97.1475 23.0116 97.5577 23.4218C97.9679 23.832 98.5243 24.0625 99.1045 24.0625H112.229C112.81 24.0625 113.366 23.832 113.776 23.4218C114.187 23.0116 114.417 22.4552 114.417 21.875V15.3125H118.792C119.372 15.3125 119.929 15.543 120.339 15.9532C120.749 16.3634 120.979 16.9198 120.979 17.5V37.1875H7.22949V17.5C7.22949 16.9198 7.45996 16.3634 7.8702 15.9532C8.28043 15.543 8.83683 15.3125 9.41699 15.3125V15.3125ZM9.41699 124.688C8.83683 124.688 8.28043 124.457 7.8702 124.047C7.45996 123.637 7.22949 123.08 7.22949 122.5V41.5625H120.979V90.6194C116.176 89.2391 111.06 89.3987 106.352 91.0757C101.644 92.7526 97.5791 95.8627 94.7295 99.9688V91.875C94.7295 91.2948 94.499 90.7384 94.0888 90.3282C93.6786 89.918 93.1222 89.6875 92.542 89.6875H79.417C78.8368 89.6875 78.2804 89.918 77.8702 90.3282C77.46 90.7384 77.2295 91.2948 77.2295 91.875V105C77.2295 105.58 77.46 106.137 77.8702 106.547C78.2804 106.957 78.8368 107.188 79.417 107.188H91.2864C89.6007 113.027 90.2176 119.29 93.0101 124.688H9.41699ZM90.3545 94.0625V102.812H81.6045V94.0625H90.3545ZM114.417 133.438C110.523 133.438 106.717 132.283 103.479 130.12C100.242 127.956 97.7182 124.881 96.2281 121.284C94.738 117.687 94.3481 113.728 95.1078 109.909C95.8674 106.09 97.7425 102.582 100.496 99.8288C103.249 97.0755 106.757 95.2004 110.576 94.4408C114.395 93.6811 118.354 94.071 121.951 95.5611C125.548 97.0512 128.623 99.5746 130.787 102.812C132.95 106.05 134.104 109.856 134.104 113.75C134.099 118.97 132.023 123.974 128.332 127.665C124.641 131.356 119.637 133.432 114.417 133.438V133.438Z" fill="black"/>
    <path d="M61.9131 19.6875H66.2881V24.0625H61.9131V19.6875Z" fill="black"/>
    <rect x="14.667" y="49" width="11" height="11" fill="white"/>
    <rect x="15.667" y="72" width="11" height="11" fill="white"/>
    <rect x="14.667" y="93" width="11" height="11" fill="white"/>
    <rect x="36.667" y="49" width="11" height="11" fill="white"/>
    <rect x="37.667" y="72" width="11" height="11" fill="white"/>
    <rect x="36.667" y="93" width="11" height="11" fill="white"/>
    <rect x="58.667" y="49" width="11" height="11" fill="white"/>
    <rect x="59.667" y="72" width="11" height="11" fill="white"/>
    <rect x="58.667" y="93" width="11" height="11" fill="white"/>
    <rect x="80.667" y="49" width="11" height="11" fill="white"/>
    <rect x="81.667" y="72" width="11" height="11" fill="white"/>
    <rect x="102.667" y="49" width="11" height="11" fill="white"/>
    <rect x="103.667" y="72" width="11" height="11" fill="white"/>
    <path d="M13.792 63.4375H26.917C27.4972 63.4375 28.0536 63.207 28.4638 62.7968C28.874 62.3866 29.1045 61.8302 29.1045 61.25V48.125C29.1045 47.5448 28.874 46.9884 28.4638 46.5782C28.0536 46.168 27.4972 45.9375 26.917 45.9375H13.792C13.2118 45.9375 12.6554 46.168 12.2452 46.5782C11.835 46.9884 11.6045 47.5448 11.6045 48.125V61.25C11.6045 61.8302 11.835 62.3866 12.2452 62.7968C12.6554 63.207 13.2118 63.4375 13.792 63.4375ZM15.9795 50.3125H24.7295V59.0625H15.9795V50.3125Z" fill="black"/>
    <path d="M35.667 63.4375H48.792C49.3722 63.4375 49.9286 63.207 50.3388 62.7968C50.749 62.3866 50.9795 61.8302 50.9795 61.25V48.125C50.9795 47.5448 50.749 46.9884 50.3388 46.5782C49.9286 46.168 49.3722 45.9375 48.792 45.9375H35.667C35.0868 45.9375 34.5304 46.168 34.1202 46.5782C33.71 46.9884 33.4795 47.5448 33.4795 48.125V61.25C33.4795 61.8302 33.71 62.3866 34.1202 62.7968C34.5304 63.207 35.0868 63.4375 35.667 63.4375ZM37.8545 50.3125H46.6045V59.0625H37.8545V50.3125Z" fill="black"/>
    <path d="M57.542 63.4375H70.667C71.2472 63.4375 71.8036 63.207 72.2138 62.7968C72.624 62.3866 72.8545 61.8302 72.8545 61.25V48.125C72.8545 47.5448 72.624 46.9884 72.2138 46.5782C71.8036 46.168 71.2472 45.9375 70.667 45.9375H57.542C56.9618 45.9375 56.4054 46.168 55.9952 46.5782C55.585 46.9884 55.3545 47.5448 55.3545 48.125V61.25C55.3545 61.8302 55.585 62.3866 55.9952 62.7968C56.4054 63.207 56.9618 63.4375 57.542 63.4375ZM59.7295 50.3125H68.4795V59.0625H59.7295V50.3125Z" fill="black"/>
    <path d="M79.417 63.4375H92.542C93.1222 63.4375 93.6786 63.207 94.0888 62.7968C94.499 62.3866 94.7295 61.8302 94.7295 61.25V48.125C94.7295 47.5448 94.499 46.9884 94.0888 46.5782C93.6786 46.168 93.1222 45.9375 92.542 45.9375H79.417C78.8368 45.9375 78.2804 46.168 77.8702 46.5782C77.46 46.9884 77.2295 47.5448 77.2295 48.125V61.25C77.2295 61.8302 77.46 62.3866 77.8702 62.7968C78.2804 63.207 78.8368 63.4375 79.417 63.4375ZM81.6045 50.3125H90.3545V59.0625H81.6045V50.3125Z" fill="black"/>
    <path d="M101.292 63.4375H114.417C114.997 63.4375 115.554 63.207 115.964 62.7968C116.374 62.3866 116.604 61.8302 116.604 61.25V48.125C116.604 47.5448 116.374 46.9884 115.964 46.5782C115.554 46.168 114.997 45.9375 114.417 45.9375H101.292C100.712 45.9375 100.155 46.168 99.7452 46.5782C99.335 46.9884 99.1045 47.5448 99.1045 48.125V61.25C99.1045 61.8302 99.335 62.3866 99.7452 62.7968C100.155 63.207 100.712 63.4375 101.292 63.4375ZM103.479 50.3125H112.229V59.0625H103.479V50.3125Z" fill="black"/>
    <path d="M13.792 85.3125H26.917C27.4972 85.3125 28.0536 85.082 28.4638 84.6718C28.874 84.2616 29.1045 83.7052 29.1045 83.125V70C29.1045 69.4198 28.874 68.8634 28.4638 68.4532C28.0536 68.043 27.4972 67.8125 26.917 67.8125H13.792C13.2118 67.8125 12.6554 68.043 12.2452 68.4532C11.835 68.8634 11.6045 69.4198 11.6045 70V83.125C11.6045 83.7052 11.835 84.2616 12.2452 84.6718C12.6554 85.082 13.2118 85.3125 13.792 85.3125ZM15.9795 72.1875H24.7295V80.9375H15.9795V72.1875Z" fill="black"/>
    <path d="M35.667 85.3125H48.792C49.3722 85.3125 49.9286 85.082 50.3388 84.6718C50.749 84.2616 50.9795 83.7052 50.9795 83.125V70C50.9795 69.4198 50.749 68.8634 50.3388 68.4532C49.9286 68.043 49.3722 67.8125 48.792 67.8125H35.667C35.0868 67.8125 34.5304 68.043 34.1202 68.4532C33.71 68.8634 33.4795 69.4198 33.4795 70V83.125C33.4795 83.7052 33.71 84.2616 34.1202 84.6718C34.5304 85.082 35.0868 85.3125 35.667 85.3125ZM37.8545 72.1875H46.6045V80.9375H37.8545V72.1875Z" fill="black"/>
    <path d="M57.542 85.3125H70.667C71.2472 85.3125 71.8036 85.082 72.2138 84.6718C72.624 84.2616 72.8545 83.7052 72.8545 83.125V70C72.8545 69.4198 72.624 68.8634 72.2138 68.4532C71.8036 68.043 71.2472 67.8125 70.667 67.8125H57.542C56.9618 67.8125 56.4054 68.043 55.9952 68.4532C55.585 68.8634 55.3545 69.4198 55.3545 70V83.125C55.3545 83.7052 55.585 84.2616 55.9952 84.6718C56.4054 85.082 56.9618 85.3125 57.542 85.3125ZM59.7295 72.1875H68.4795V80.9375H59.7295V72.1875Z" fill="black"/>
    <path d="M13.792 107.188H26.917C27.4972 107.188 28.0536 106.957 28.4638 106.547C28.874 106.137 29.1045 105.58 29.1045 105V91.875C29.1045 91.2948 28.874 90.7384 28.4638 90.3282C28.0536 89.918 27.4972 89.6875 26.917 89.6875H13.792C13.2118 89.6875 12.6554 89.918 12.2452 90.3282C11.835 90.7384 11.6045 91.2948 11.6045 91.875V105C11.6045 105.58 11.835 106.137 12.2452 106.547C12.6554 106.957 13.2118 107.188 13.792 107.188ZM15.9795 94.0625H24.7295V102.812H15.9795V94.0625Z" fill="black"/>
    <path d="M35.667 107.188H48.792C49.3722 107.188 49.9286 106.957 50.3388 106.547C50.749 106.137 50.9795 105.58 50.9795 105V91.875C50.9795 91.2948 50.749 90.7384 50.3388 90.3282C49.9286 89.918 49.3722 89.6875 48.792 89.6875H35.667C35.0868 89.6875 34.5304 89.918 34.1202 90.3282C33.71 90.7384 33.4795 91.2948 33.4795 91.875V105C33.4795 105.58 33.71 106.137 34.1202 106.547C34.5304 106.957 35.0868 107.188 35.667 107.188ZM37.8545 94.0625H46.6045V102.812H37.8545V94.0625Z" fill="black"/>
    <path d="M57.542 107.188H70.667C71.2472 107.188 71.8036 106.957 72.2138 106.547C72.624 106.137 72.8545 105.58 72.8545 105V91.875C72.8545 91.2948 72.624 90.7384 72.2138 90.3282C71.8036 89.918 71.2472 89.6875 70.667 89.6875H57.542C56.9618 89.6875 56.4054 89.918 55.9952 90.3282C55.585 90.7384 55.3545 91.2948 55.3545 91.875V105C55.3545 105.58 55.585 106.137 55.9952 106.547C56.4054 106.957 56.9618 107.188 57.542 107.188ZM59.7295 94.0625H68.4795V102.812H59.7295V94.0625Z" fill="black"/>
    <path d="M79.417 85.3125H92.542C93.1222 85.3125 93.6786 85.082 94.0888 84.6718C94.499 84.2616 94.7295 83.7052 94.7295 83.125V70C94.7295 69.4198 94.499 68.8634 94.0888 68.4532C93.6786 68.043 93.1222 67.8125 92.542 67.8125H79.417C78.8368 67.8125 78.2804 68.043 77.8702 68.4532C77.46 68.8634 77.2295 69.4198 77.2295 70V83.125C77.2295 83.7052 77.46 84.2616 77.8702 84.6718C78.2804 85.082 78.8368 85.3125 79.417 85.3125ZM81.6045 72.1875H90.3545V80.9375H81.6045V72.1875Z" fill="black"/>
    <path d="M101.292 85.3125H114.417C114.997 85.3125 115.554 85.082 115.964 84.6718C116.374 84.2616 116.604 83.7052 116.604 83.125V70C116.604 69.4198 116.374 68.8634 115.964 68.4532C115.554 68.043 114.997 67.8125 114.417 67.8125H101.292C100.712 67.8125 100.155 68.043 99.7452 68.4532C99.335 68.8634 99.1045 69.4198 99.1045 70V83.125C99.1045 83.7052 99.335 84.2616 99.7452 84.6718C100.155 85.082 100.712 85.3125 101.292 85.3125ZM103.479 72.1875H112.229V80.9375H103.479V72.1875Z" fill="black"/>
    <path d="M11.6006 113.75H85.9756V118.125H11.6006V113.75Z" fill="black"/>
    <path d="M110.042 119.407L105.026 114.391L101.927 117.484L108.489 124.047C108.692 124.25 108.934 124.411 109.199 124.521C109.465 124.631 109.749 124.688 110.037 124.688C110.324 124.688 110.609 124.631 110.875 124.521C111.14 124.411 111.381 124.25 111.585 124.047L129.085 106.547L125.989 103.453L110.042 119.407Z" fill="black"/>
</svg>
