<svg width="140" height="140" viewBox="0 0 140 140" fill="none" xmlns="http://www.w3.org/2000/svg">
    <path d="M43.75 74.375C54.1929 74.375 64.2081 78.5234 71.5923 85.9077C78.9766 93.2919 83.125 103.307 83.125 113.75V135.625H4.375V113.75C4.375 103.307 8.52343 93.2919 15.9077 85.9077C23.2919 78.5234 33.3071 74.375 43.75 74.375V74.375Z" fill="#EC4B3C"/>
    <path d="M61.4378 78.5619L43.7496 96.25L26.0615 78.5619C31.5484 75.8005 37.6071 74.3664 43.7496 74.375C49.8922 74.3664 55.9509 75.8005 61.4378 78.5619V78.5619Z" fill="white"/>
    <path fill-rule="evenodd" clip-rule="evenodd" d="M35 109.375H31.2594H17.5V118.125C17.5 120.446 18.4219 122.671 20.0628 124.312C21.7038 125.953 23.9294 126.875 26.25 126.875C28.5706 126.875 30.7962 125.953 32.4372 124.312C34.0781 122.671 35 120.446 35 118.125V109.375Z" fill="white"/>
    <path d="M50.3125 102.812H54.6875V107.188H50.3125V102.812Z" fill="#212121"/>
    <path d="M50.3125 111.562H54.6875V115.938H50.3125V111.562Z" fill="#212121"/>
    <path d="M50.3125 120.312H54.6875V124.688H50.3125V120.312Z" fill="#212121"/>
    <path d="M35 107.188H17.5C16.9198 107.188 16.3634 107.418 15.9532 107.828C15.543 108.238 15.3125 108.795 15.3125 109.375V118.125C15.3125 121.026 16.4648 123.808 18.516 125.859C20.5672 127.91 23.3492 129.062 26.25 129.062C29.1508 129.062 31.9328 127.91 33.984 125.859C36.0352 123.808 37.1875 121.026 37.1875 118.125V109.375C37.1875 108.795 36.957 108.238 36.5468 107.828C36.1366 107.418 35.5802 107.188 35 107.188ZM32.8125 118.125C32.8125 119.865 32.1211 121.535 30.8904 122.765C29.6597 123.996 27.9905 124.688 26.25 124.688C24.5095 124.688 22.8403 123.996 21.6096 122.765C20.3789 121.535 19.6875 119.865 19.6875 118.125V111.562H32.8125V118.125Z" fill="#212121"/>
    <path fill-rule="evenodd" clip-rule="evenodd" d="M65.8466 67.0885C63.0342 70.0313 59.6658 72.3867 55.9366 74.0184C64.434 76.6361 71.8702 81.9054 77.1562 89.0549C82.4423 96.2045 85.3006 104.859 85.3125 113.75V135.625C85.3125 136.205 85.082 136.762 84.6718 137.172C84.2616 137.582 83.7052 137.812 83.125 137.812H4.375C3.79484 137.812 3.23844 137.582 2.8282 137.172C2.41797 136.762 2.1875 136.205 2.1875 135.625V113.75C2.19944 104.859 5.05771 96.2045 10.3438 89.0549C15.6298 81.9054 23.066 76.6361 31.5634 74.0184C27.8342 72.3867 24.4658 70.0313 21.6534 67.0885C18.8409 64.1458 16.6403 60.6743 15.1791 56.875H13.125C10.6093 56.8708 8.17197 55.9996 6.22368 54.4081C4.27539 52.8166 2.93528 50.6022 2.42917 48.1379C1.92307 45.6737 2.28191 43.1103 3.44522 40.8797C4.60854 38.6492 6.50522 36.8878 8.81563 35.8925C9.13598 26.8413 12.9568 18.2677 19.4733 11.9778C25.9898 5.68792 34.6931 2.17273 43.75 2.17273C52.8069 2.17273 61.5102 5.68792 68.0267 11.9778C74.5432 18.2677 78.364 26.8413 78.6844 35.8925C80.9948 36.8878 82.8915 38.6492 84.0548 40.8797C85.2181 43.1103 85.5769 45.6737 85.0708 48.1379C84.5647 50.6022 83.2246 52.8166 81.2763 54.4081C80.2086 55.2803 78.9939 55.9362 77.7 56.3516V60C77.7 61.0187 77.4125 62.4978 76.4854 63.7855C75.4775 65.1853 73.817 66.2 71.5 66.2H66.6631C66.397 66.5012 66.1248 66.7975 65.8466 67.0885ZM69.9026 61.8H71.5C71.9859 61.8 72.2844 61.7012 72.4664 61.6073C72.6501 61.5126 72.7941 61.3819 72.9146 61.2145C73.1875 60.8355 73.3 60.3146 73.3 60V56.875H72.3209C71.6615 58.5896 70.8515 60.2374 69.9026 61.8ZM79.0154 50.5779C80.2461 49.3472 80.9375 47.678 80.9375 45.9375C80.9375 44.197 80.2461 42.5278 79.0154 41.2971C77.7847 40.0664 76.1155 39.375 74.375 39.375H73.6488C74.6171 43.6964 74.6171 48.1786 73.6488 52.5H74.375C76.1155 52.5 77.7847 51.8086 79.0154 50.5779ZM64.5925 14.7877C58.9326 9.51293 51.4868 6.57453 43.75 6.56251C36.0132 6.57453 28.5674 9.51293 22.9075 14.7877C17.2477 20.0626 13.7928 27.2832 13.2366 35H15.1791C17.3853 29.2097 21.2989 24.2264 26.4012 20.7104C31.5034 17.1944 37.5536 15.3117 43.75 15.3117C49.9464 15.3117 55.9966 17.1944 61.0988 20.7104C66.2011 24.2264 70.1147 29.2097 72.3209 35H74.2634C73.7072 27.2832 70.2523 20.0626 64.5925 14.7877ZM50.3125 28.4375H63.2603C59.9732 24.7538 55.7115 22.0744 50.9671 20.7086C46.2226 19.3428 41.1887 19.3462 36.4461 20.7183C31.7035 22.0905 27.4454 24.7755 24.1632 28.4636C20.881 32.1518 18.7083 36.6927 17.8959 41.5625H37.1875C38.3478 41.5625 39.4606 41.1016 40.2811 40.2811C41.1016 39.4606 41.5625 38.3478 41.5625 37.1875C41.5625 34.8669 42.4844 32.6413 44.1253 31.0003C45.7663 29.3594 47.9919 28.4375 50.3125 28.4375ZM8.48461 50.5779C9.71532 51.8086 11.3845 52.5 13.125 52.5H13.8512C12.8829 48.1786 12.8829 43.6964 13.8512 39.375H13.125C11.3845 39.375 9.71532 40.0664 8.48461 41.2971C7.2539 42.5278 6.5625 44.197 6.5625 45.9375C6.5625 47.678 7.2539 49.3472 8.48461 50.5779ZM37.1875 45.9375H17.5C17.498 49.9634 18.4226 53.9357 20.202 57.547C21.9815 61.1583 24.5681 64.3117 27.7617 66.7629C30.9553 69.2142 34.6701 70.8977 38.6187 71.6831C42.5672 72.4684 46.6436 72.3346 50.5321 71.2919C54.1571 70.3199 57.5282 68.5824 60.4199 66.2H52.1003C51.2793 67.293 49.9722 68 48.5 68H41.5C39.0147 68 37 65.9853 37 63.5C37 61.0147 39.0147 59 41.5 59H48.5C50.3838 59 51.9972 60.1575 52.6678 61.8H64.6452C65.9976 60.0159 67.1206 58.0603 67.9818 55.9782C69.5205 52.2579 70.1824 48.2335 69.9164 44.2164C69.6503 40.1993 68.4634 36.2973 66.4475 32.8125H50.3125C49.1522 32.8125 48.0394 33.2734 47.2189 34.0939C46.3984 34.9144 45.9375 36.0272 45.9375 37.1875C45.9375 39.5081 45.0156 41.7337 43.3747 43.3747C41.7337 45.0156 39.5081 45.9375 37.1875 45.9375ZM43.75 93.1569L57.6297 79.2772C48.7305 75.6576 38.7695 75.6576 29.8703 79.2772L43.75 93.1569ZM11.7056 94.9123C8.34447 100.622 6.56894 107.125 6.5625 113.75V133.438H41.5625V97.1556L25.6812 81.2744C19.8915 84.4948 15.0667 89.203 11.7056 94.9123ZM45.9375 133.438H80.9375V113.75C80.9311 107.125 79.1555 100.622 75.7944 94.9123C72.4333 89.203 67.6085 84.4948 61.8188 81.2744L45.9375 97.1556V133.438Z" fill="#212121"/>
    <path d="M99.1875 61.1875C92.7249 61.179 86.3865 62.9624 80.8764 66.3394C75.3664 69.7164 70.9004 74.5548 67.9747 80.3172C65.0489 86.0796 63.778 92.5403 64.3031 98.9815C64.8281 105.423 67.1287 111.592 70.949 116.805L66.375 129L78.5703 124.426C83.0324 127.684 88.2027 129.839 93.658 130.715C99.1133 131.59 104.698 131.161 109.956 129.463C115.214 127.765 119.994 124.845 123.906 120.943C127.818 117.042 130.751 112.269 132.463 107.016C134.176 101.763 134.62 96.1794 133.759 90.7218C132.898 85.2641 130.757 80.088 127.511 75.6171C124.265 71.1463 120.006 67.5078 115.083 64.9998C110.16 62.4917 104.713 61.1853 99.1875 61.1875V61.1875Z" fill="white"/>
    <path d="M83.875 89.625V87.4375C83.875 83.9565 85.2578 80.6181 87.7192 78.1567C90.1806 75.6953 93.519 74.3125 97 74.3125V74.3125C100.481 74.3125 103.819 75.6953 106.281 78.1567C108.742 80.6181 110.125 83.9565 110.125 87.4375V87.4375C110.125 89.5179 109.715 91.578 108.919 93.5C108.123 95.4221 106.956 97.1686 105.485 98.6397C104.876 99.2492 104.392 99.9729 104.062 100.769C103.732 101.566 103.562 102.419 103.562 103.282V104.938H94.8125V103.282C94.8125 101.033 95.2554 98.8055 96.1161 96.7277C96.9767 94.6499 98.2382 92.7619 99.8284 91.1716V91.1716C100.319 90.6812 100.708 90.099 100.973 89.4583C101.238 88.8177 101.375 88.131 101.375 87.4375V87.4375C101.375 86.2772 100.914 85.1644 100.094 84.3439C99.2731 83.5234 98.1603 83.0625 97 83.0625C95.8397 83.0625 94.7269 83.5234 93.9064 84.3439C93.0859 85.1644 92.625 86.2772 92.625 87.4375V89.625H83.875Z" fill="#EC4B3C"/>
    <path d="M99.1875 120.25C101.604 120.25 103.562 118.291 103.562 115.875C103.562 113.459 101.604 111.5 99.1875 111.5C96.7713 111.5 94.8125 113.459 94.8125 115.875C94.8125 118.291 96.7713 120.25 99.1875 120.25Z" fill="#EC4B3C"/>
    <path d="M99.1875 59C89.3282 59.011 79.8758 62.9325 72.9041 69.9041C65.9325 76.8757 62.011 86.3281 62 96.1875C61.99 103.662 64.2553 110.963 68.4947 117.12L64.3253 128.23C64.1765 128.624 64.1444 129.052 64.233 129.464C64.3216 129.875 64.527 130.253 64.8247 130.55C65.1224 130.848 65.4997 131.053 65.9113 131.142C66.3228 131.231 66.7512 131.199 67.145 131.05L78.2553 126.88C84.4117 131.12 91.7126 133.385 99.1875 133.375C109.05 133.375 118.509 129.457 125.483 122.483C132.457 115.509 136.375 106.05 136.375 96.1875C136.375 86.3248 132.457 76.866 125.483 69.892C118.509 62.918 109.05 59 99.1875 59V59ZM99.1875 129C92.233 129.005 85.4599 126.781 79.861 122.656C79.5681 122.442 79.2267 122.304 78.8674 122.255C78.5081 122.206 78.1421 122.247 77.8025 122.374L70.1135 125.257L72.9966 117.568C73.1239 117.229 73.1647 116.863 73.1155 116.503C73.0662 116.144 72.9284 115.803 72.7144 115.51C68.3791 109.554 66.176 102.312 66.4604 94.9505C66.7447 87.5894 69.5 80.5386 74.2818 74.935C79.0636 69.3314 85.5933 65.5015 92.8181 64.063C100.043 62.6245 107.542 63.6612 114.105 67.0058C120.669 70.3505 125.914 75.8082 128.997 82.499C132.079 89.1898 132.818 96.7236 131.094 103.886C129.371 111.048 125.286 117.421 119.497 121.977C113.708 126.533 106.554 129.007 99.1875 129Z" fill="#212121"/>
    <path d="M97 72.125C92.9405 72.1302 89.0487 73.7452 86.1782 76.6157C83.3077 79.4862 81.6927 83.378 81.6875 87.4375V89.625C81.6875 90.2052 81.918 90.7616 82.3282 91.1718C82.7384 91.582 83.2948 91.8125 83.875 91.8125H92.625C93.2052 91.8125 93.7616 91.582 94.1718 91.1718C94.582 90.7616 94.8125 90.2052 94.8125 89.625V87.4375C94.8125 86.8573 95.043 86.3009 95.4532 85.8907C95.8634 85.4805 96.4198 85.25 97 85.25C97.5802 85.25 98.1366 85.4805 98.5468 85.8907C98.957 86.3009 99.1875 86.8573 99.1875 87.4375C99.1885 87.8439 99.1091 88.2464 98.9536 88.6219C98.7982 88.9973 98.5699 89.3383 98.2819 89.625C96.4828 91.4137 95.0564 93.5416 94.0854 95.8854C93.1144 98.2292 92.618 100.742 92.625 103.279V104.938C92.625 105.518 92.8555 106.074 93.2657 106.484C93.6759 106.895 94.2323 107.125 94.8125 107.125H103.562C104.143 107.125 104.699 106.895 105.109 106.484C105.52 106.074 105.75 105.518 105.75 104.938V103.279C105.754 102.12 106.214 101.009 107.032 100.186C108.711 98.516 110.043 96.5292 110.949 94.3409C111.856 92.1525 112.319 89.8061 112.312 87.4375C112.307 83.378 110.692 79.4862 107.822 76.6157C104.951 73.7452 101.06 72.1302 97 72.125V72.125ZM103.939 97.0931C102.432 98.6074 101.527 100.618 101.392 102.75H97C97.1267 98.9707 98.6916 95.3824 101.375 92.7181C102.071 92.0265 102.623 91.2036 102.998 90.2971C103.374 89.3906 103.565 88.4187 103.562 87.4375C103.562 85.697 102.871 84.0278 101.64 82.7971C100.41 81.5664 98.7405 80.875 97 80.875C95.2595 80.875 93.5903 81.5664 92.3596 82.7971C91.1289 84.0278 90.4375 85.697 90.4375 87.4375H86.0625C86.0625 84.5367 87.2148 81.7547 89.266 79.7035C91.3172 77.6523 94.0992 76.5 97 76.5C99.9008 76.5 102.683 77.6523 104.734 79.7035C106.785 81.7547 107.937 84.5367 107.938 87.4375C107.943 89.2314 107.592 91.0085 106.906 92.6659C106.219 94.3234 105.211 95.8281 103.939 97.0931V97.0931Z" fill="#212121"/>
    <path d="M99.1875 109.312C97.8896 109.312 96.6208 109.697 95.5416 110.418C94.4624 111.14 93.6212 112.164 93.1245 113.364C92.6278 114.563 92.4979 115.882 92.7511 117.155C93.0043 118.428 93.6293 119.598 94.5471 120.515C95.4649 121.433 96.6342 122.058 97.9072 122.311C99.1802 122.565 100.5 122.435 101.699 121.938C102.898 121.441 103.923 120.6 104.644 119.521C105.365 118.442 105.75 117.173 105.75 115.875C105.75 114.135 105.059 112.465 103.828 111.235C102.597 110.004 100.928 109.313 99.1875 109.312ZM99.1875 118.062C98.7549 118.062 98.3319 117.934 97.9722 117.694C97.6125 117.453 97.3321 117.112 97.1665 116.712C97.001 116.312 96.9576 115.873 97.042 115.448C97.1264 115.024 97.3348 114.634 97.6407 114.328C97.9466 114.022 98.3364 113.814 98.7607 113.73C99.1851 113.645 99.6249 113.688 100.025 113.854C100.424 114.02 100.766 114.3 101.006 114.66C101.247 115.019 101.375 115.442 101.375 115.875C101.375 116.455 101.145 117.012 100.734 117.422C100.324 117.832 99.7677 118.062 99.1875 118.062Z" fill="#212121"/>
</svg>
