<svg width="40" height="40" viewBox="0 0 40 40" fill="none" xmlns="http://www.w3.org/2000/svg">
    <path d="M29.1667 35C27.6196 35 26.1358 34.3854 25.0419 33.2915C23.9479 32.1975 23.3333 30.7138 23.3333 29.1667C23.3333 27.6196 23.9479 26.1358 25.0419 25.0419C26.1358 23.9479 27.6196 23.3333 29.1667 23.3333C30.7138 23.3333 32.1975 23.9479 33.2915 25.0419C34.3854 26.1358 35 27.6196 35 29.1667C35 30.7138 34.3854 32.1975 33.2915 33.2915C32.1975 34.3854 30.7138 35 29.1667 35ZM29.1667 31.6667C29.8297 31.6667 30.4656 31.4033 30.9344 30.9344C31.4033 30.4656 31.6667 29.8297 31.6667 29.1667C31.6667 28.5036 31.4033 27.8677 30.9344 27.3989C30.4656 26.9301 29.8297 26.6667 29.1667 26.6667C28.5036 26.6667 27.8677 26.9301 27.3989 27.3989C26.9301 27.8677 26.6667 28.5036 26.6667 29.1667C26.6667 29.8297 26.9301 30.4656 27.3989 30.9344C27.8677 31.4033 28.5036 31.6667 29.1667 31.6667ZM10.8333 16.6667C10.0673 16.6667 9.30875 16.5158 8.60101 16.2226C7.89328 15.9295 7.25022 15.4998 6.70854 14.9581C6.16687 14.4164 5.73719 13.7734 5.44404 13.0657C5.15088 12.3579 5 11.5994 5 10.8333C5 10.0673 5.15088 9.30875 5.44404 8.60101C5.73719 7.89328 6.16687 7.25022 6.70854 6.70854C7.25022 6.16687 7.89328 5.73719 8.60101 5.44404C9.30875 5.15088 10.0673 5 10.8333 5C12.3804 5 13.8642 5.61458 14.9581 6.70854C16.0521 7.80251 16.6667 9.28624 16.6667 10.8333C16.6667 12.3804 16.0521 13.8642 14.9581 14.9581C13.8642 16.0521 12.3804 16.6667 10.8333 16.6667ZM10.8333 13.3333C11.4964 13.3333 12.1323 13.0699 12.6011 12.6011C13.0699 12.1323 13.3333 11.4964 13.3333 10.8333C13.3333 10.1703 13.0699 9.53441 12.6011 9.06557C12.1323 8.59672 11.4964 8.33333 10.8333 8.33333C10.1703 8.33333 9.53441 8.59672 9.06557 9.06557C8.59672 9.53441 8.33333 10.1703 8.33333 10.8333C8.33333 11.4964 8.59672 12.1323 9.06557 12.6011C9.53441 13.0699 10.1703 13.3333 10.8333 13.3333ZM31.785 5.85833L34.1417 8.215L8.21667 34.1417L5.86 31.785L31.7833 5.85833H31.785Z" fill="#E84C3D"/>
</svg>
