<svg width="40" height="40" viewBox="0 0 40 40" fill="none" xmlns="http://www.w3.org/2000/svg">
    <path d="M25.0001 3.33338C26.1706 3.33325 27.3204 3.64127 28.3341 4.22649C29.3478 4.81171 30.1895 5.6535 30.7747 6.66721C31.3598 7.68092 31.6678 8.83082 31.6675 10.0013C31.6673 11.1718 31.3589 12.3216 30.7734 13.3351L38.3334 13.3334V16.6667H35.0001V33.3334C35.0001 33.7754 34.8245 34.1993 34.5119 34.5119C34.1994 34.8245 33.7754 35.0001 33.3334 35.0001H6.66675C6.22472 35.0001 5.8008 34.8245 5.48824 34.5119C5.17568 34.1993 5.00008 33.7754 5.00008 33.3334V16.6667H1.66675V13.3334L9.22675 13.3351C8.39985 11.9032 8.13456 10.2151 8.48239 8.59867C8.83021 6.9822 9.76633 5.55266 11.109 4.58764C12.4516 3.62261 14.105 3.19097 15.748 3.37652C17.391 3.56206 18.9065 4.35156 20.0001 5.59172C20.6244 4.88069 21.3935 4.31134 22.2559 3.92185C23.1182 3.53235 24.0539 3.33172 25.0001 3.33338ZM18.3334 16.6667H8.33342V31.6667H18.3334V16.6667ZM31.6667 16.6667H21.6667V31.6667H31.6667V16.6667ZM15.0001 6.66672C14.1351 6.66285 13.3025 6.99536 12.6782 7.59402C12.0538 8.19267 11.6866 9.01058 11.6542 9.87495C11.6217 10.7393 11.9265 11.5825 12.5042 12.2262C13.0819 12.87 13.8873 13.264 14.7501 13.3251L15.0001 13.3334H18.3334V10.0001C18.3335 9.20349 18.0482 8.43324 17.5294 7.82881C17.0106 7.22438 16.2925 6.82573 15.5051 6.70505L15.2484 6.67505L15.0001 6.66672ZM25.0001 6.66672C24.1591 6.66645 23.3491 6.98406 22.7325 7.55588C22.1159 8.1277 21.7382 8.91146 21.6751 9.75005L21.6667 10.0001V13.3334H25.0001C25.841 13.3337 26.651 13.016 27.2677 12.4442C27.8843 11.8724 28.262 11.0886 28.3251 10.2501L28.3334 10.0001C28.3334 9.116 27.9822 8.26815 27.3571 7.64303C26.732 7.01791 25.8841 6.66672 25.0001 6.66672Z" fill="#E84C3D"/>
</svg>
