<svg width="40" height="40" viewBox="0 0 40 40" fill="none" xmlns="http://www.w3.org/2000/svg">
    <path d="M18.3333 18.3333V11.6667H21.6666V18.3333H28.3333V21.6667H21.6666V28.3333H18.3333V21.6667H11.6666V18.3333H18.3333ZM19.9999 36.6667C10.7949 36.6667 3.33325 29.205 3.33325 20C3.33325 10.795 10.7949 3.33334 19.9999 3.33334C29.2049 3.33334 36.6666 10.795 36.6666 20C36.6666 29.205 29.2049 36.6667 19.9999 36.6667ZM19.9999 33.3333C23.5361 33.3333 26.9275 31.9286 29.428 29.4281C31.9285 26.9276 33.3333 23.5362 33.3333 20C33.3333 16.4638 31.9285 13.0724 29.428 10.5719C26.9275 8.07143 23.5361 6.66668 19.9999 6.66668C16.4637 6.66668 13.0723 8.07143 10.5718 10.5719C8.07134 13.0724 6.66659 16.4638 6.66659 20C6.66659 23.5362 8.07134 26.9276 10.5718 29.4281C13.0723 31.9286 16.4637 33.3333 19.9999 33.3333Z" fill="#E84C3D"/>
</svg>
