<svg width="121" height="120" viewBox="0 0 121 120" fill="none" xmlns="http://www.w3.org/2000/svg">
    <path d="M94.083 43.125H11.583C7.44087 43.125 4.08301 46.4829 4.08301 50.625V95.625C4.08301 99.7671 7.44087 103.125 11.583 103.125H94.083C98.2251 103.125 101.583 99.7671 101.583 95.625V50.625C101.583 46.4829 98.2251 43.125 94.083 43.125Z" fill="#EC4B3C"/>
    <path d="M24.708 50.625H15.333C13.2619 50.625 11.583 52.3039 11.583 54.375V58.125C11.583 60.1961 13.2619 61.875 15.333 61.875H24.708C26.7791 61.875 28.458 60.1961 28.458 58.125V54.375C28.458 52.3039 26.7791 50.625 24.708 50.625Z" fill="white"/>
    <path d="M17.208 91.875H28.458V95.625H17.208V91.875Z" fill="white"/>
    <path d="M32.208 91.875H50.958V95.625H32.208V91.875Z" fill="white"/>
    <path d="M23.7705 71.25H14.3955C12.8422 71.25 11.583 72.5092 11.583 74.0625C11.583 75.6158 12.8422 76.875 14.3955 76.875H23.7705C25.3238 76.875 26.583 75.6158 26.583 74.0625C26.583 72.5092 25.3238 71.25 23.7705 71.25Z" fill="white"/>
    <path d="M46.2705 71.25H36.8955C35.3422 71.25 34.083 72.5092 34.083 74.0625C34.083 75.6158 35.3422 76.875 36.8955 76.875H46.2705C47.8238 76.875 49.083 75.6158 49.083 74.0625C49.083 72.5092 47.8238 71.25 46.2705 71.25Z" fill="white"/>
    <path d="M68.7705 71.25H59.3955C57.8422 71.25 56.583 72.5092 56.583 74.0625C56.583 75.6158 57.8422 76.875 59.3955 76.875H68.7705C70.3238 76.875 71.583 75.6158 71.583 74.0625C71.583 72.5092 70.3238 71.25 68.7705 71.25Z" fill="white"/>
    <path d="M91.2705 71.25H81.8955C80.3422 71.25 79.083 72.5092 79.083 74.0625C79.083 75.6158 80.3422 76.875 81.8955 76.875H91.2705C92.8238 76.875 94.083 75.6158 94.083 74.0625C94.083 72.5092 92.8238 71.25 91.2705 71.25Z" fill="white"/>
    <path d="M109.083 15H26.583C24.0975 15.003 21.7147 15.9917 19.9572 17.7492C18.1997 19.5067 17.211 21.8895 17.208 24.375V41.25H11.583C9.09752 41.253 6.71468 42.2417 4.95717 43.9992C3.19966 45.7567 2.21099 48.1395 2.20801 50.625V95.625C2.21099 98.1105 3.19966 100.493 4.95717 102.251C6.71468 104.008 9.09752 104.997 11.583 105H94.083C96.5685 104.997 98.9513 104.008 100.709 102.251C102.466 100.493 103.455 98.1105 103.458 95.625V78.75H109.083C111.568 78.747 113.951 77.7583 115.709 76.0008C117.466 74.2433 118.455 71.8605 118.458 69.375V24.375C118.455 21.8895 117.466 19.5067 115.709 17.7492C113.951 15.9917 111.568 15.003 109.083 15ZM26.583 18.75H109.083C110.575 18.75 112.006 19.3426 113.06 20.3975C114.115 21.4524 114.708 22.8832 114.708 24.375H20.958C20.958 22.8832 21.5506 21.4524 22.6055 20.3975C23.6604 19.3426 25.0912 18.75 26.583 18.75ZM114.708 28.125V33.75H20.958V28.125H114.708ZM99.708 95.625C99.708 97.1168 99.1154 98.5476 98.0605 99.6025C97.0056 100.657 95.5749 101.25 94.083 101.25H11.583C10.0912 101.25 8.66042 100.657 7.60553 99.6025C6.55064 98.5476 5.95801 97.1168 5.95801 95.625V50.625C5.95801 49.1332 6.55064 47.7024 7.60553 46.6475C8.66042 45.5926 10.0912 45 11.583 45H94.083C95.5749 45 97.0056 45.5926 98.0605 46.6475C99.1154 47.7024 99.708 49.1332 99.708 50.625V95.625ZM109.083 75H103.458V50.625C103.455 48.1395 102.466 45.7567 100.709 43.9992C98.9513 42.2417 96.5685 41.253 94.083 41.25H20.958V37.5H114.708V69.375C114.708 70.8668 114.115 72.2976 113.06 73.3525C112.006 74.4074 110.575 75 109.083 75Z" fill="#212121"/>
    <path d="M24.708 48.75H15.333C13.8412 48.75 12.4104 49.3426 11.3555 50.3975C10.3006 51.4524 9.70801 52.8832 9.70801 54.375V58.125C9.70801 59.6168 10.3006 61.0476 11.3555 62.1025C12.4104 63.1574 13.8412 63.75 15.333 63.75H24.708C26.1999 63.75 27.6306 63.1574 28.6855 62.1025C29.7404 61.0476 30.333 59.6168 30.333 58.125V54.375C30.333 52.8832 29.7404 51.4524 28.6855 50.3975C27.6306 49.3426 26.1999 48.75 24.708 48.75ZM26.583 58.125C26.583 58.6223 26.3855 59.0992 26.0338 59.4508C25.6822 59.8025 25.2053 60 24.708 60H15.333C14.8357 60 14.3588 59.8025 14.0072 59.4508C13.6556 59.0992 13.458 58.6223 13.458 58.125V54.375C13.458 53.8777 13.6556 53.4008 14.0072 53.0492C14.3588 52.6975 14.8357 52.5 15.333 52.5H24.708C25.2053 52.5 25.6822 52.6975 26.0338 53.0492C26.3855 53.4008 26.583 53.8777 26.583 54.375V58.125Z" fill="#212121"/>
    <path d="M17.208 91.875H28.458V95.625H17.208V91.875Z" fill="#212121"/>
    <path d="M32.208 91.875H50.958V95.625H32.208V91.875Z" fill="#212121"/>
    <path d="M23.7705 69.375H14.3955C13.1523 69.375 11.96 69.8689 11.0809 70.7479C10.2019 71.627 9.70801 72.8193 9.70801 74.0625C9.70801 75.3057 10.2019 76.498 11.0809 77.3771C11.96 78.2561 13.1523 78.75 14.3955 78.75H23.7705C25.0137 78.75 26.206 78.2561 27.0851 77.3771C27.9641 76.498 28.458 75.3057 28.458 74.0625C28.458 72.8193 27.9641 71.627 27.0851 70.7479C26.206 69.8689 25.0137 69.375 23.7705 69.375ZM23.7705 75H14.3955C14.1469 75 13.9084 74.9012 13.7326 74.7254C13.5568 74.5496 13.458 74.3111 13.458 74.0625C13.458 73.8139 13.5568 73.5754 13.7326 73.3996C13.9084 73.2238 14.1469 73.125 14.3955 73.125H23.7705C24.0191 73.125 24.2576 73.2238 24.4334 73.3996C24.6092 73.5754 24.708 73.8139 24.708 74.0625C24.708 74.3111 24.6092 74.5496 24.4334 74.7254C24.2576 74.9012 24.0191 75 23.7705 75Z" fill="#212121"/>
    <path d="M46.2705 69.375H36.8955C35.6523 69.375 34.46 69.8689 33.5809 70.7479C32.7019 71.627 32.208 72.8193 32.208 74.0625C32.208 75.3057 32.7019 76.498 33.5809 77.3771C34.46 78.2561 35.6523 78.75 36.8955 78.75H46.2705C47.5137 78.75 48.706 78.2561 49.5851 77.3771C50.4641 76.498 50.958 75.3057 50.958 74.0625C50.958 72.8193 50.4641 71.627 49.5851 70.7479C48.706 69.8689 47.5137 69.375 46.2705 69.375ZM46.2705 75H36.8955C36.6469 75 36.4084 74.9012 36.2326 74.7254C36.0568 74.5496 35.958 74.3111 35.958 74.0625C35.958 73.8139 36.0568 73.5754 36.2326 73.3996C36.4084 73.2238 36.6469 73.125 36.8955 73.125H46.2705C46.5191 73.125 46.7576 73.2238 46.9334 73.3996C47.1092 73.5754 47.208 73.8139 47.208 74.0625C47.208 74.3111 47.1092 74.5496 46.9334 74.7254C46.7576 74.9012 46.5191 75 46.2705 75Z" fill="#212121"/>
    <path d="M73.458 74.0625C73.458 72.8193 72.9642 71.627 72.0851 70.7479C71.206 69.8689 70.0137 69.375 68.7705 69.375H59.3955C58.1523 69.375 56.96 69.8689 56.0809 70.7479C55.2019 71.627 54.708 72.8193 54.708 74.0625C54.708 75.3057 55.2019 76.498 56.0809 77.3771C56.96 78.2561 58.1523 78.75 59.3955 78.75H68.7705C70.0137 78.75 71.206 78.2561 72.0851 77.3771C72.9642 76.498 73.458 75.3057 73.458 74.0625ZM68.7705 75H59.3955C59.1469 75 58.9084 74.9012 58.7326 74.7254C58.5568 74.5496 58.458 74.3111 58.458 74.0625C58.458 73.8139 58.5568 73.5754 58.7326 73.3996C58.9084 73.2238 59.1469 73.125 59.3955 73.125H68.7705C69.0191 73.125 69.2576 73.2238 69.4334 73.3996C69.6092 73.5754 69.708 73.8139 69.708 74.0625C69.708 74.3111 69.6092 74.5496 69.4334 74.7254C69.2576 74.9012 69.0191 75 68.7705 75Z" fill="#212121"/>
    <path d="M91.2705 69.375H81.8955C80.6523 69.375 79.46 69.8689 78.5809 70.7479C77.7019 71.627 77.208 72.8193 77.208 74.0625C77.208 75.3057 77.7019 76.498 78.5809 77.3771C79.46 78.2561 80.6523 78.75 81.8955 78.75H91.2705C92.5137 78.75 93.706 78.2561 94.5851 77.3771C95.4642 76.498 95.958 75.3057 95.958 74.0625C95.958 72.8193 95.4642 71.627 94.5851 70.7479C93.706 69.8689 92.5137 69.375 91.2705 69.375ZM91.2705 75H81.8955C81.6469 75 81.4084 74.9012 81.2326 74.7254C81.0568 74.5496 80.958 74.3111 80.958 74.0625C80.958 73.8139 81.0568 73.5754 81.2326 73.3996C81.4084 73.2238 81.6469 73.125 81.8955 73.125H91.2705C91.5191 73.125 91.7576 73.2238 91.9334 73.3996C92.1092 73.5754 92.208 73.8139 92.208 74.0625C92.208 74.3111 92.1092 74.5496 91.9334 74.7254C91.7576 74.9012 91.5191 75 91.2705 75Z" fill="#212121"/>
</svg>
