<svg width="120" height="120" viewBox="0 0 120 120" fill="none" xmlns="http://www.w3.org/2000/svg">
    <path d="M54.375 97.5C78.1923 97.5 97.5 78.1923 97.5 54.375C97.5 30.5577 78.1923 11.25 54.375 11.25C30.5577 11.25 11.25 30.5577 11.25 54.375C11.25 78.1923 30.5577 97.5 54.375 97.5Z" fill="#EC4B3C"/>
    <path d="M61.75 58.125C66.2255 58.125 70.5177 56.3471 73.6824 53.1824C76.8471 50.0177 78.625 45.7255 78.625 41.25C78.625 36.7745 76.8471 32.4822 73.6824 29.3176C70.5177 26.1529 66.2255 24.375 61.75 24.375H37.375V50.625H29.875V58.125H37.375V65.625H29.875V73.125H37.375V88.125H44.875V73.125H63.625V65.625H44.875V58.125H61.75Z" fill="white"/>
    <path d="M45 30H61.875C64.3614 30 66.746 30.9877 68.5041 32.7459C70.2623 34.504 71.25 36.8886 71.25 39.375C71.25 41.8614 70.2623 44.246 68.5041 46.0041C66.746 47.7623 64.3614 48.75 61.875 48.75H45V30Z" fill="#EC4B3C"/>
    <path d="M45 50.625H61.875C64.8587 50.625 67.7202 49.4397 69.83 47.33C71.9397 45.2202 73.125 42.3587 73.125 39.375C73.125 36.3913 71.9397 33.5298 69.83 31.42C67.7202 29.3103 64.8587 28.125 61.875 28.125H45C44.5027 28.125 44.0258 28.3225 43.6742 28.6742C43.3225 29.0258 43.125 29.5027 43.125 30V48.75C43.125 49.2473 43.3225 49.7242 43.6742 50.0758C44.0258 50.4275 44.5027 50.625 45 50.625ZM46.875 31.875H61.875C63.8641 31.875 65.7718 32.6652 67.1783 34.0717C68.5848 35.4782 69.375 37.3859 69.375 39.375C69.375 41.3641 68.5848 43.2718 67.1783 44.6783C65.7718 46.0848 63.8641 46.875 61.875 46.875H46.875V31.875Z" fill="#212121"/>
    <path d="M65.625 71.25V63.75C65.625 63.2527 65.4275 62.7758 65.0758 62.4242C64.7242 62.0725 64.2473 61.875 63.75 61.875H46.875V58.125H61.875C66.8478 58.125 71.6169 56.1496 75.1333 52.6333C78.6496 49.1169 80.625 44.3478 80.625 39.375C80.625 34.4022 78.6496 29.6331 75.1333 26.1167C71.6169 22.6004 66.8478 20.625 61.875 20.625H37.5C37.0027 20.625 36.5258 20.8225 36.1742 21.1742C35.8225 21.5258 35.625 22.0027 35.625 22.5V46.875H30C29.5027 46.875 29.0258 47.0725 28.6742 47.4242C28.3225 47.7758 28.125 48.2527 28.125 48.75V56.25C28.125 56.7473 28.3225 57.2242 28.6742 57.5758C29.0258 57.9275 29.5027 58.125 30 58.125H35.625V61.875H30C29.5027 61.875 29.0258 62.0725 28.6742 62.4242C28.3225 62.7758 28.125 63.2527 28.125 63.75V71.25C28.125 71.7473 28.3225 72.2242 28.6742 72.5758C29.0258 72.9275 29.5027 73.125 30 73.125H35.625V86.25C35.625 86.7473 35.8225 87.2242 36.1742 87.5758C36.5258 87.9275 37.0027 88.125 37.5 88.125H45C45.4973 88.125 45.9742 87.9275 46.3258 87.5758C46.6775 87.2242 46.875 86.7473 46.875 86.25V73.125H63.75C64.2473 73.125 64.7242 72.9275 65.0758 72.5758C65.4275 72.2242 65.625 71.7473 65.625 71.25ZM61.875 69.375H45C44.5027 69.375 44.0258 69.5725 43.6742 69.9242C43.3225 70.2758 43.125 70.7527 43.125 71.25V84.375H39.375V71.25C39.375 70.7527 39.1775 70.2758 38.8258 69.9242C38.4742 69.5725 37.9973 69.375 37.5 69.375H31.875V65.625H37.5C37.9973 65.625 38.4742 65.4275 38.8258 65.0758C39.1775 64.7242 39.375 64.2473 39.375 63.75V56.25C39.375 55.7527 39.1775 55.2758 38.8258 54.9242C38.4742 54.5725 37.9973 54.375 37.5 54.375H31.875V50.625H37.5C37.9973 50.625 38.4742 50.4275 38.8258 50.0758C39.1775 49.7242 39.375 49.2473 39.375 48.75V24.375H61.875C65.8532 24.375 69.6686 25.9554 72.4816 28.7684C75.2946 31.5814 76.875 35.3968 76.875 39.375C76.875 43.3532 75.2946 47.1686 72.4816 49.9816C69.6686 52.7946 65.8532 54.375 61.875 54.375H45C44.5027 54.375 44.0258 54.5725 43.6742 54.9242C43.3225 55.2758 43.125 55.7527 43.125 56.25V63.75C43.125 64.2473 43.3225 64.7242 43.6742 65.0758C44.0258 65.4275 44.5027 65.625 45 65.625H61.875V69.375Z" fill="#212121"/>
    <path d="M96.6286 23.2613C92.1492 17.1716 86.4071 12.1216 79.7951 8.45685C73.1831 4.79214 65.8574 2.59923 58.3193 2.02821C50.7813 1.45719 43.2088 2.52154 36.1202 5.14842C29.0316 7.7753 22.5943 11.9027 17.2487 17.2481C11.9032 22.5935 7.7756 29.0308 5.14854 36.1193C2.52147 43.2078 1.45693 50.7803 2.02775 58.3183C2.59858 65.8564 4.7913 73.1822 8.45585 79.7943C12.1204 86.4063 17.1703 92.1486 23.2598 96.6281C27.7314 102.743 33.4732 107.817 40.0911 111.504C46.709 115.19 54.0463 117.4 61.5991 117.983C69.1519 118.565 76.7413 117.507 83.8464 114.879C90.9514 112.252 97.4037 108.118 102.76 102.762C108.117 97.4054 112.251 90.9532 114.878 83.8483C117.506 76.7433 118.565 69.1539 117.982 61.6011C117.4 54.0482 115.19 46.7109 111.504 40.0929C107.818 33.4749 102.743 27.7329 96.6286 23.2613ZM107.179 40.2056L105.227 41.2987C104.595 38.852 103.786 36.4545 102.807 34.125C104.417 36.0371 105.879 38.07 107.179 40.2056ZM106.875 65.625C106.863 76.5614 102.513 87.0463 94.7799 94.7794C87.0467 102.513 76.5618 106.863 65.6254 106.875C63.8524 106.872 62.0813 106.756 60.3229 106.528C72.1071 105.167 83.0849 99.8618 91.4731 91.474C99.8614 83.0861 105.167 72.1085 106.529 60.3244C106.757 62.0821 106.873 63.8525 106.875 65.625ZM43.9654 102L44.9029 98.37C47.4022 98.9063 49.9427 99.2288 52.4967 99.3337V103.084C49.6266 102.974 46.7718 102.612 43.9654 102ZM13.1254 54.375C13.1254 46.2165 15.5447 38.2413 20.0773 31.4577C24.6099 24.6742 31.0523 19.3871 38.5898 16.265C46.1272 13.1429 54.4212 12.326 62.4229 13.9176C70.4246 15.5092 77.7747 19.4379 83.5436 25.2068C89.3125 30.9758 93.2412 38.3258 94.8328 46.3275C96.4245 54.3292 95.6076 62.6232 92.4855 70.1607C89.3634 77.6981 84.0762 84.1405 77.2927 88.6731C70.5092 93.2057 62.5339 95.625 54.3754 95.625C43.4391 95.6126 32.9542 91.2626 25.221 83.5294C17.4878 75.7963 13.1379 65.3114 13.1254 54.375ZM102 64.785L98.3705 63.8475C98.9051 61.3468 99.2256 58.8051 99.3286 56.25H103.079C102.971 59.1212 102.61 61.9773 102 64.785ZM99.3286 52.5C99.2236 49.946 98.9012 47.4055 98.3648 44.9063L101.995 43.9688C102.606 46.7751 102.969 49.6299 103.079 52.5H99.3286ZM97.4254 67.4719L101.055 68.4094C100.211 71.2092 99.1138 73.9266 97.7779 76.5281L94.5005 74.6981C95.6846 72.3794 96.6634 69.9614 97.4254 67.4719ZM56.2504 99.3281C58.8045 99.2231 61.3449 98.9007 63.8442 98.3644L64.7817 101.994C61.9754 102.606 59.1205 102.969 56.2504 103.078V99.3281ZM68.4154 101.055L67.4779 97.425C69.966 96.6621 72.3827 95.6833 74.7004 94.5L76.5323 97.7738C73.9318 99.1135 71.215 100.214 68.4154 101.062V101.055ZM79.8042 95.9475L77.9704 92.6719C80.4141 91.1601 82.7088 89.4198 84.8236 87.4744L87.4729 90.1237C85.1145 92.3125 82.5458 94.2632 79.8042 95.9475ZM90.1167 87.4725L87.4673 84.8231C89.4132 82.7087 91.1535 80.414 92.6648 77.97L95.9404 79.8056C94.2585 82.5463 92.3103 85.1143 90.1242 87.4725H90.1167ZM97.4254 41.2781C96.6634 38.7886 95.6846 36.3706 94.5005 34.0519L97.7742 32.2181C99.1101 34.8197 100.207 37.537 101.052 40.3369L97.4254 41.2781ZM92.6723 30.7781C91.161 28.3341 89.4207 26.0394 87.4748 23.925L90.1242 21.2756C92.313 23.6334 94.2637 26.2015 95.948 28.9425L92.6723 30.7781ZM84.8236 21.2738C82.7088 19.3284 80.4141 17.5881 77.9704 16.0763L79.8042 12.8006C82.5458 14.4849 85.1145 16.4356 87.4729 18.6244L84.8236 21.2738ZM74.7004 14.25C72.3815 13.0664 69.9635 12.0877 67.4742 11.325L68.4117 7.695C71.2109 8.53965 73.9277 9.63665 76.5286 10.9725L74.7004 14.25ZM63.8442 10.3856C61.3449 9.84928 58.8045 9.52686 56.2504 9.42188V5.67188C59.1218 5.78119 61.9779 6.14384 64.7854 6.75563L63.8442 10.3856ZM52.5004 9.42188C49.9464 9.52686 47.406 9.84928 44.9067 10.3856L43.9692 6.75563C46.7755 6.14406 49.6303 5.78141 52.5004 5.67188V9.42188ZM41.2767 11.325C38.7874 12.0877 36.3694 13.0664 34.0504 14.25L32.2186 10.9763C34.8191 9.63654 37.5358 8.53577 40.3354 7.6875L41.2767 11.325ZM30.7767 16.0781C28.333 17.5899 26.0384 19.3302 23.9236 21.2756L21.2779 18.6263C23.6361 16.4379 26.2041 14.4873 28.9448 12.8025L30.7767 16.0781ZM21.2723 23.9269C19.3265 26.0413 17.5861 28.336 16.0748 30.78L12.7992 28.9444C14.4835 26.2034 16.4342 23.6353 18.6229 21.2775L21.2723 23.9269ZM14.2504 34.0519C13.0663 36.3706 12.0875 38.7886 11.3254 41.2781L7.69544 40.3406C8.54009 37.5408 9.63709 34.8234 10.9729 32.2219L14.2504 34.0519ZM10.3861 44.9063C9.84972 47.4055 9.52731 49.946 9.42232 52.5H5.67232C5.77978 49.6288 6.14055 46.7727 6.75044 43.965L10.3861 44.9063ZM9.42232 56.25C9.52731 58.804 9.84972 61.3445 10.3861 63.8437L6.75607 64.7812C6.14451 61.9749 5.78185 59.1201 5.67232 56.25H9.42232ZM11.3254 67.4719C12.0875 69.9614 13.0663 72.3794 14.2504 74.6981L10.9767 76.5319C9.63698 73.9307 8.53621 71.2133 7.68794 68.4131L11.3254 67.4719ZM16.0786 77.9719C17.5899 80.4158 19.3302 82.7106 21.2761 84.825L18.6267 87.4725C16.4379 85.1147 14.4872 82.5466 12.8029 79.8056L16.0786 77.9719ZM23.9273 87.4762C26.0421 89.4216 28.3368 91.1619 30.7804 92.6737L28.9448 95.9494C26.2041 94.2646 23.6361 92.3139 21.2779 90.1256L23.9273 87.4762ZM34.0523 94.5056C36.3714 95.6879 38.7894 96.6654 41.2786 97.4269L40.3411 101.057C37.5418 100.212 34.8251 99.1152 32.2242 97.7794L34.0523 94.5056ZM46.2548 106.247C48.2817 107.215 50.3782 108.029 52.5267 108.684L51.5892 112.296C48.7906 111.45 46.073 110.357 43.4686 109.029L45.1392 106.048C45.5104 106.112 45.8798 106.187 46.2529 106.245L46.2548 106.247ZM56.1567 109.622C58.6563 110.154 61.1968 110.472 63.7504 110.572V114.322C60.8804 114.211 58.0259 113.844 55.2211 113.226L56.1567 109.622ZM67.5005 110.578C70.0545 110.473 72.5949 110.151 75.0942 109.614L76.0317 113.244C73.2254 113.856 70.3705 114.219 67.5005 114.328V110.578ZM78.7242 108.675C81.2135 107.912 83.6315 106.934 85.9504 105.75L87.7823 109.024C85.1818 110.363 82.465 111.464 79.6654 112.312L78.7242 108.675ZM89.2242 103.922C91.6682 102.411 93.9629 100.67 96.0773 98.7244L98.7267 101.374C96.3682 103.563 93.7995 105.513 91.0579 107.198L89.2242 103.922ZM98.7286 96.0731C100.674 93.9587 102.415 91.664 103.926 89.22L107.202 91.0556C105.517 93.7966 103.567 96.3647 101.378 98.7225L98.7286 96.0731ZM105.758 85.9481C106.941 83.6293 107.918 81.2113 108.679 78.7219L112.309 79.6594C111.465 82.4592 110.368 85.1766 109.032 87.7781L105.758 85.9481ZM109.619 75.0937C110.154 72.5944 110.475 70.0539 110.579 67.5H114.329C114.219 70.3714 113.857 73.2274 113.245 76.035L109.619 75.0937ZM110.573 63.75C110.472 61.1962 110.154 58.6558 109.62 56.1563L113.222 55.2188C113.841 58.0242 114.208 60.8793 114.319 63.75H110.573ZM108.681 52.5263C108.026 50.377 107.212 48.2799 106.244 46.2525C106.185 45.8775 106.11 45.5025 106.043 45.1387L109.024 43.4681C110.352 46.0731 111.446 48.7913 112.29 51.5906L108.681 52.5263ZM41.3011 105.227L40.2061 107.179C38.0704 105.879 36.0376 104.417 34.1254 102.806C36.4555 103.786 38.8537 104.595 41.3011 105.227Z" fill="#212121"/>
</svg>