<svg width="121" height="120" viewBox="0 0 121 120" fill="none" xmlns="http://www.w3.org/2000/svg">
    <path d="M30.667 31.875H90.667V65.625H30.667V31.875Z" fill="white"/>
    <path d="M60.667 9.375L25.042 24.375V31.875H96.292V24.375L60.667 9.375Z" fill="#EC4B3C"/>
    <path d="M25.042 65.625H96.292V73.125H25.042V65.625Z" fill="#EC4B3C"/>
    <path d="M28.792 31.875H40.042V39.375H28.792V31.875Z" fill="#EC4B3C"/>
    <path d="M28.792 58.125H40.042V65.625H28.792V58.125Z" fill="#EC4B3C"/>
    <path d="M30.667 39.375H38.167V58.125H30.667V39.375Z" fill="#EC4B3C"/>
    <path d="M60.667 43.125C58.1806 43.125 55.796 44.1127 54.0379 45.8709C52.2797 47.629 51.292 50.0136 51.292 52.5V65.625H70.042V52.5C70.042 50.0136 69.0543 47.629 67.2961 45.8709C65.538 44.1127 63.1534 43.125 60.667 43.125Z" fill="#EC4B3C"/>
    <path d="M60.667 26.25C62.7381 26.25 64.417 24.5711 64.417 22.5C64.417 20.4289 62.7381 18.75 60.667 18.75C58.5959 18.75 56.917 20.4289 56.917 22.5C56.917 24.5711 58.5959 26.25 60.667 26.25Z" fill="white"/>
    <path d="M81.292 31.875H92.542V39.375H81.292V31.875Z" fill="#EC4B3C"/>
    <path d="M81.292 58.125H92.542V65.625H81.292V58.125Z" fill="#EC4B3C"/>
    <path d="M83.167 39.375H90.667V58.125H83.167V39.375Z" fill="#EC4B3C"/>
    <path d="M116.917 93.75H115.042V39.375C115.039 36.8895 114.05 34.5067 112.293 32.7492C110.535 30.9916 108.152 30.003 105.667 30H98.167V24.375C98.1671 24.0059 98.0583 23.645 97.8542 23.3374C97.65 23.0299 97.3597 22.7895 97.0195 22.6462L61.3945 7.64625C61.1642 7.5493 60.9169 7.49936 60.667 7.49936C60.4171 7.49936 60.1698 7.5493 59.9395 7.64625L24.3145 22.6462C23.9743 22.7895 23.6839 23.0299 23.4798 23.3374C23.2757 23.645 23.1669 24.0059 23.167 24.375V30H15.667C13.1815 30.003 10.7987 30.9916 9.04115 32.7492C7.28365 34.5067 6.29497 36.8895 6.29199 39.375V93.75H4.41699C3.91971 93.75 3.4428 93.9475 3.09117 94.2992C2.73954 94.6508 2.54199 95.1277 2.54199 95.625V103.125C2.54497 105.61 3.53365 107.993 5.29115 109.751C7.04866 111.508 9.4315 112.497 11.917 112.5H109.417C111.902 112.497 114.285 111.508 116.043 109.751C117.8 107.993 118.789 105.61 118.792 103.125V95.625C118.792 95.1277 118.594 94.6508 118.243 94.2992C117.891 93.9475 117.414 93.75 116.917 93.75ZM26.917 25.62L60.667 11.4094L94.417 25.62V30H26.917V25.62ZM30.667 37.5V33.75H38.167V37.5H30.667ZM36.292 41.25V56.25H32.542V41.25H36.292ZM38.167 60V63.75H30.667V60H38.167ZM94.417 67.5V71.25H26.917V67.5H94.417ZM81.292 41.25V56.25C80.7947 56.25 80.3178 56.4475 79.9662 56.7992C79.6145 57.1508 79.417 57.6277 79.417 58.125V63.75H71.917V52.5C71.917 49.5163 70.7317 46.6548 68.6219 44.545C66.5122 42.4353 63.6507 41.25 60.667 41.25C57.6833 41.25 54.8218 42.4353 52.712 44.545C50.6023 46.6548 49.417 49.5163 49.417 52.5V63.75H41.917V58.125C41.917 57.6277 41.7195 57.1508 41.3678 56.7992C41.0162 56.4475 40.5393 56.25 40.042 56.25V41.25C40.5393 41.25 41.0162 41.0525 41.3678 40.7008C41.7195 40.3492 41.917 39.8723 41.917 39.375V33.75H79.417V39.375C79.417 39.8723 79.6145 40.3492 79.9662 40.7008C80.3178 41.0525 80.7947 41.25 81.292 41.25ZM68.167 52.5V63.75H53.167V52.5C53.167 50.5109 53.9572 48.6032 55.3637 47.1967C56.7702 45.7902 58.6779 45 60.667 45C62.6561 45 64.5638 45.7902 65.9703 47.1967C67.3768 48.6032 68.167 50.5109 68.167 52.5ZM83.167 37.5V33.75H90.667V37.5H83.167ZM88.792 41.25V56.25H85.042V41.25H88.792ZM90.667 60V63.75H83.167V60H90.667ZM10.042 39.375C10.042 37.8832 10.6346 36.4524 11.6895 35.3975C12.7444 34.3426 14.1751 33.75 15.667 33.75H26.917V39.375C26.917 39.8723 27.1145 40.3492 27.4662 40.7008C27.8178 41.0525 28.2947 41.25 28.792 41.25V56.25C28.2947 56.25 27.8178 56.4475 27.4662 56.7992C27.1145 57.1508 26.917 57.6277 26.917 58.125V63.75H25.042C24.5447 63.75 24.0678 63.9475 23.7162 64.2992C23.3645 64.6508 23.167 65.1277 23.167 65.625V73.125C23.167 73.6223 23.3645 74.0992 23.7162 74.4508C24.0678 74.8025 24.5447 75 25.042 75H96.292C96.7893 75 97.2662 74.8025 97.6178 74.4508C97.9695 74.0992 98.167 73.6223 98.167 73.125V65.625C98.167 65.1277 97.9695 64.6508 97.6178 64.2992C97.2662 63.9475 96.7893 63.75 96.292 63.75H94.417V58.125C94.417 57.6277 94.2195 57.1508 93.8678 56.7992C93.5162 56.4475 93.0393 56.25 92.542 56.25V41.25C93.0393 41.25 93.5162 41.0525 93.8678 40.7008C94.2195 40.3492 94.417 39.8723 94.417 39.375V33.75H105.667C107.159 33.75 108.59 34.3426 109.644 35.3975C110.699 36.4524 111.292 37.8832 111.292 39.375V93.75H81.292C80.7948 93.7501 80.3179 93.9477 79.9664 94.2994L74.8907 99.375H46.4432L41.3676 94.2994C41.0161 93.9477 40.5392 93.7501 40.042 93.75H10.042V39.375ZM115.042 103.125C115.042 104.617 114.449 106.048 113.394 107.102C112.34 108.157 110.909 108.75 109.417 108.75H11.917C10.4251 108.75 8.99441 108.157 7.93952 107.102C6.88462 106.048 6.29199 104.617 6.29199 103.125V97.5H39.2657L44.3414 102.576C44.6929 102.927 45.1698 103.125 45.667 103.125H75.667C76.1642 103.125 76.6411 102.927 76.9926 102.576L82.0682 97.5H115.042V103.125Z" fill="#212121"/>
    <path d="M107.542 101.25H111.292V105H107.542V101.25Z" fill="#212121"/>
    <path d="M100.042 101.25H103.792V105H100.042V101.25Z" fill="#212121"/>
    <path d="M107.542 88.125V39.375C107.542 38.8777 107.344 38.4008 106.993 38.0492C106.641 37.6975 106.164 37.5 105.667 37.5H98.167V41.25H103.792V86.25H17.542V41.25H23.167V37.5H15.667C15.1697 37.5 14.6928 37.6975 14.3412 38.0492C13.9895 38.4008 13.792 38.8777 13.792 39.375V88.125C13.792 88.6223 13.9895 89.0992 14.3412 89.4508C14.6928 89.8025 15.1697 90 15.667 90H105.667C106.164 90 106.641 89.8025 106.993 89.4508C107.344 89.0992 107.542 88.6223 107.542 88.125Z" fill="#212121"/>
    <path d="M60.667 28.125C61.7795 28.125 62.867 27.7951 63.7921 27.177C64.7171 26.5589 65.4381 25.6804 65.8638 24.6526C66.2896 23.6248 66.401 22.4938 66.1839 21.4026C65.9669 20.3115 65.4311 19.3092 64.6445 18.5225C63.8578 17.7359 62.8555 17.2001 61.7644 16.9831C60.6732 16.766 59.5422 16.8774 58.5144 17.3032C57.4866 17.7289 56.6081 18.4499 55.99 19.3749C55.3719 20.2999 55.042 21.3875 55.042 22.5C55.042 23.9918 55.6346 25.4226 56.6895 26.4775C57.7444 27.5324 59.1751 28.125 60.667 28.125ZM60.667 20.625C61.0378 20.625 61.4003 20.735 61.7087 20.941C62.017 21.147 62.2573 21.4399 62.3993 21.7825C62.5412 22.1251 62.5783 22.5021 62.506 22.8658C62.4336 23.2295 62.255 23.5636 61.9928 23.8258C61.7306 24.0881 61.3965 24.2666 61.0328 24.339C60.6691 24.4113 60.2921 24.3742 59.9495 24.2323C59.6069 24.0904 59.314 23.85 59.108 23.5417C58.902 23.2334 58.792 22.8708 58.792 22.5C58.792 22.0027 58.9895 21.5258 59.3412 21.1742C59.6928 20.8225 60.1697 20.625 60.667 20.625Z" fill="#212121"/>
</svg>