<svg width="80" height="80" viewBox="0 0 80 80" fill="none" xmlns="http://www.w3.org/2000/svg">
    <path d="M40 45C45.5228 45 50 40.5228 50 35C50 29.4772 45.5228 25 40 25C34.4772 25 30 29.4772 30 35C30 40.5228 34.4772 45 40 45Z" fill="#EC4B3C"/>
    <path fill-rule="evenodd" clip-rule="evenodd" d="M36.9993 30.667C36.9993 30.1147 37.4471 29.667 37.9993 29.667H41.9993C42.795 29.667 43.5581 29.9831 44.1207 30.5457C44.6833 31.1083 44.9993 31.8713 44.9993 32.667C44.9993 33.4626 44.6833 34.2257 44.1207 34.7883C43.5581 35.3509 42.795 35.667 41.9993 35.667H38.9993V41.0003H36.9993V35.667H35.666V33.667H36.9993V30.667ZM38.9993 33.667H41.9993C42.2646 33.667 42.5189 33.5616 42.7065 33.3741C42.894 33.1866 42.9993 32.9322 42.9993 32.667C42.9993 32.4018 42.894 32.1474 42.7065 31.9599C42.5189 31.7723 42.2646 31.667 41.9993 31.667H38.9993V33.667Z" fill="#212121"/>
    <path fill-rule="evenodd" clip-rule="evenodd" d="M35.666 36.334H42.9993V38.334H35.666V36.334Z" fill="#212121"/>
    <path d="M20 50H27.5V57.5H20V50Z" fill="#EC4B3C"/>
    <path d="M20 62.5H27.5V70H20V62.5Z" fill="#EC4B3C"/>
    <path d="M65 13.75H53.75V12.5C53.75 12.1685 53.6183 11.8505 53.3839 11.6161C53.1495 11.3817 52.8315 11.25 52.5 11.25H48.75V10C48.75 7.67936 47.8281 5.45376 46.1872 3.81282C44.5462 2.17187 42.3206 1.25 40 1.25C37.6794 1.25 35.4538 2.17187 33.8128 3.81282C32.1719 5.45376 31.25 7.67936 31.25 10V11.25H27.5C27.1685 11.25 26.8505 11.3817 26.6161 11.6161C26.3817 11.8505 26.25 12.1685 26.25 12.5V13.75H15C14.6685 13.75 14.3505 13.8817 14.1161 14.1161C13.8817 14.3505 13.75 14.6685 13.75 15V77.5C13.75 77.8315 13.8817 78.1495 14.1161 78.3839C14.3505 78.6183 14.6685 78.75 15 78.75H65C65.3315 78.75 65.6495 78.6183 65.8839 78.3839C66.1183 78.1495 66.25 77.8315 66.25 77.5V15C66.25 14.6685 66.1183 14.3505 65.8839 14.1161C65.6495 13.8817 65.3315 13.75 65 13.75ZM33.75 10C33.75 8.3424 34.4085 6.75269 35.5806 5.58058C36.7527 4.40848 38.3424 3.75 40 3.75C41.6576 3.75 43.2473 4.40848 44.4194 5.58058C45.5915 6.75269 46.25 8.3424 46.25 10V11.25H43.75V10C43.75 9.00544 43.3549 8.05161 42.6516 7.34835C41.9484 6.64509 40.9946 6.25 40 6.25C39.0054 6.25 38.0516 6.64509 37.3483 7.34835C36.6451 8.05161 36.25 9.00544 36.25 10V11.25H33.75V10ZM41.25 11.25H38.75V10C38.75 9.66848 38.8817 9.35054 39.1161 9.11612C39.3505 8.8817 39.6685 8.75 40 8.75C40.3315 8.75 40.6495 8.8817 40.8839 9.11612C41.1183 9.35054 41.25 9.66848 41.25 10V11.25ZM28.75 13.75H51.25V18.75H28.75V13.75ZM63.75 76.25H16.25V16.25H26.25V20C26.25 20.3315 26.3817 20.6495 26.6161 20.8839C26.8505 21.1183 27.1685 21.25 27.5 21.25H52.5C52.8315 21.25 53.1495 21.1183 53.3839 20.8839C53.6183 20.6495 53.75 20.3315 53.75 20V16.25H63.75V76.25Z" fill="#212121"/>
    <path d="M40 46.25C42.225 46.25 44.4001 45.5902 46.2502 44.354C48.1002 43.1179 49.5422 41.3609 50.3936 39.3052C51.2451 37.2495 51.4679 34.9875 51.0338 32.8052C50.5998 30.623 49.5283 28.6184 47.955 27.0451C46.3816 25.4717 44.3771 24.4003 42.1948 23.9662C40.0125 23.5321 37.7505 23.7549 35.6948 24.6064C33.6391 25.4578 31.8821 26.8998 30.646 28.7498C29.4098 30.5999 28.75 32.775 28.75 35C28.7536 37.9826 29.9401 40.8419 32.0491 42.9509C34.1581 45.0599 37.0174 46.2464 40 46.25ZM40 26.25C41.7306 26.25 43.4223 26.7632 44.8612 27.7246C46.3002 28.6861 47.4217 30.0527 48.0839 31.6515C48.7462 33.2504 48.9195 35.0097 48.5819 36.707C48.2443 38.4044 47.4109 39.9635 46.1872 41.1872C44.9635 42.4109 43.4044 43.2443 41.707 43.5819C40.0097 43.9195 38.2504 43.7462 36.6515 43.084C35.0527 42.4217 33.6861 41.3002 32.7246 39.8612C31.7632 38.4223 31.25 36.7306 31.25 35C31.2526 32.6802 32.1754 30.4561 33.8157 28.8157C35.4561 27.1754 37.6802 26.2527 40 26.25Z" fill="#212121"/>
    <path d="M27.5 48.75H20C19.6685 48.75 19.3505 48.8817 19.1161 49.1161C18.8817 49.3505 18.75 49.6685 18.75 50V57.5C18.75 57.8315 18.8817 58.1495 19.1161 58.3839C19.3505 58.6183 19.6685 58.75 20 58.75H27.5C27.8315 58.75 28.1495 58.6183 28.3839 58.3839C28.6183 58.1495 28.75 57.8315 28.75 57.5V50C28.75 49.6685 28.6183 49.3505 28.3839 49.1161C28.1495 48.8817 27.8315 48.75 27.5 48.75ZM26.25 56.25H21.25V51.25H26.25V56.25Z" fill="#212121"/>
    <path d="M27.5 61.25H20C19.6685 61.25 19.3505 61.3817 19.1161 61.6161C18.8817 61.8505 18.75 62.1685 18.75 62.5V70C18.75 70.3315 18.8817 70.6495 19.1161 70.8839C19.3505 71.1183 19.6685 71.25 20 71.25H27.5C27.8315 71.25 28.1495 71.1183 28.3839 70.8839C28.6183 70.6495 28.75 70.3315 28.75 70V62.5C28.75 62.1685 28.6183 61.8505 28.3839 61.6161C28.1495 61.3817 27.8315 61.25 27.5 61.25ZM26.25 68.75H21.25V63.75H26.25V68.75Z" fill="#212121"/>
    <path d="M31.25 50H61.25V52.5H31.25V50Z" fill="#212121"/>
    <path d="M31.25 55H61.25V57.5H31.25V55Z" fill="#212121"/>
    <path d="M31.25 62.5H61.25V65H31.25V62.5Z" fill="#212121"/>
    <path d="M31.25 67.5H61.25V70H31.25V67.5Z" fill="#212121"/>
</svg>