<svg width="80" height="80" viewBox="0 0 80 80" fill="none" xmlns="http://www.w3.org/2000/svg">
    <path d="M25 42.5C30.9674 42.5 36.6903 44.8705 40.9099 49.0901C45.1295 53.3097 47.5 59.0326 47.5 65V77.5H2.5V65C2.5 59.0326 4.87053 53.3097 9.0901 49.0901C13.3097 44.8705 19.0326 42.5 25 42.5Z" fill="#EC4B3C"/>
    <path d="M35.1076 44.8925L25.0001 55L14.8926 44.8925C18.0279 43.3146 21.4901 42.4951 25.0001 42.5C28.5101 42.4951 31.9722 43.3146 35.1076 44.8925Z" fill="white"/>
    <path fill-rule="evenodd" clip-rule="evenodd" d="M20 62.5H17.8625H10V67.5C10 68.8261 10.5268 70.0979 11.4645 71.0355C12.4021 71.9732 13.6739 72.5 15 72.5C16.3261 72.5 17.5979 71.9732 18.5355 71.0355C19.4732 70.0979 20 68.8261 20 67.5V62.5Z" fill="white"/>
    <path d="M28.75 58.75H31.25V61.25H28.75V58.75Z" fill="#212121"/>
    <path d="M28.75 63.75H31.25V66.25H28.75V63.75Z" fill="#212121"/>
    <path d="M28.75 68.75H31.25V71.25H28.75V68.75Z" fill="#212121"/>
    <path d="M20 61.25H10C9.66848 61.25 9.35054 61.3817 9.11612 61.6161C8.8817 61.8505 8.75 62.1685 8.75 62.5V67.5C8.75 69.1576 9.40848 70.7473 10.5806 71.9194C11.7527 73.0915 13.3424 73.75 15 73.75C16.6576 73.75 18.2473 73.0915 19.4194 71.9194C20.5915 70.7473 21.25 69.1576 21.25 67.5V62.5C21.25 62.1685 21.1183 61.8505 20.8839 61.6161C20.6495 61.3817 20.3315 61.25 20 61.25ZM18.75 67.5C18.75 68.4946 18.3549 69.4484 17.6517 70.1516C16.9484 70.8549 15.9946 71.25 15 71.25C14.0054 71.25 13.0516 70.8549 12.3483 70.1516C11.6451 69.4484 11.25 68.4946 11.25 67.5V63.75H18.75V67.5Z" fill="#212121"/>
    <path fill-rule="evenodd" clip-rule="evenodd" d="M37.6266 38.336C36.0195 40.0175 34.0947 41.3635 31.9638 42.2959C36.8194 43.7917 41.0687 46.8027 44.0893 50.8882C47.1099 54.9736 48.7432 59.9188 48.75 64.9996V77.4996C48.75 77.8312 48.6183 78.1491 48.3839 78.3835C48.1495 78.618 47.8315 78.7496 47.5 78.7496H2.5C2.16848 78.7496 1.85054 78.618 1.61612 78.3835C1.3817 78.1491 1.25 77.8312 1.25 77.4996V64.9996C1.25682 59.9188 2.89012 54.9736 5.91073 50.8882C8.93134 46.8027 13.1806 43.7917 18.0363 42.2959C15.9053 41.3635 13.9805 40.0175 12.3734 38.336C10.7662 36.6544 9.50876 34.6707 8.67375 32.4996H7.5C6.06247 32.4973 4.6697 31.9994 3.55639 31.09C2.44308 30.1806 1.6773 28.9152 1.3881 27.507C1.0989 26.0989 1.30395 24.6341 1.9687 23.3595C2.63345 22.0849 3.71727 21.0784 5.0375 20.5097C5.22056 15.3375 7.4039 10.4383 11.1276 6.84412C14.8513 3.24989 19.8246 1.24121 25 1.24121C30.1754 1.24121 35.1487 3.24989 38.8724 6.84412C42.5961 10.4383 44.7794 15.3375 44.9625 20.5097C46.2827 21.0784 47.3666 22.0849 48.0313 23.3595C48.6961 24.6341 48.9011 26.0989 48.6119 27.507C48.3227 28.9152 47.5569 30.1806 46.4436 31.09C45.8335 31.5884 45.1394 31.9632 44.4 32.2006V34.2854C44.4 34.8675 44.2357 35.7127 43.7059 36.4485C43.13 37.2484 42.1812 37.8282 40.8571 37.8282H38.0932C37.9412 38.0003 37.7856 38.1696 37.6266 38.336ZM39.9443 35.3139H40.8571C41.1348 35.3139 41.3054 35.2575 41.4094 35.2038C41.5143 35.1497 41.5966 35.075 41.6655 34.9794C41.8214 34.7628 41.8857 34.4651 41.8857 34.2854V32.4996H41.3263C40.9494 33.4794 40.4865 34.421 39.9443 35.3139ZM45.1517 28.9013C45.8549 28.198 46.25 27.2442 46.25 26.2497C46.25 25.2551 45.8549 24.3013 45.1517 23.598C44.4484 22.8947 43.4946 22.4997 42.5 22.4997H42.085C42.6383 24.969 42.6383 27.5303 42.085 29.9997H42.5C43.4946 29.9997 44.4484 29.6046 45.1517 28.9013ZM36.91 8.44979C33.6758 5.43561 29.421 3.75652 25 3.74966C20.579 3.75652 16.3242 5.43561 13.09 8.44979C9.8558 11.464 7.88158 15.5901 7.56375 19.9997H8.67375C9.93448 16.6909 12.1708 13.8433 15.0864 11.8342C18.002 9.82503 21.4592 8.74919 25 8.74919C28.5408 8.74919 31.998 9.82503 34.9136 11.8342C37.8292 13.8433 40.0655 16.6909 41.3263 19.9997H42.4363C42.1184 15.5901 40.1442 11.464 36.91 8.44979ZM28.75 16.2497H36.1488C34.2704 14.1447 31.8352 12.6136 29.124 11.8331C26.4129 11.0527 23.5364 11.0546 20.8263 11.8387C18.1163 12.6228 15.6831 14.1571 13.8075 16.2646C11.932 18.3721 10.6905 20.9669 10.2262 23.7497H21.25C21.913 23.7497 22.5489 23.4863 23.0178 23.0174C23.4866 22.5486 23.75 21.9127 23.75 21.2497C23.75 19.9236 24.2768 18.6518 25.2145 17.7141C26.1522 16.7764 27.4239 16.2497 28.75 16.2497ZM4.84835 28.9013C5.55161 29.6046 6.50544 29.9997 7.5 29.9997H7.915C7.36166 27.5303 7.36166 24.969 7.915 22.4997H7.5C6.50544 22.4997 5.55161 22.8947 4.84835 23.598C4.14509 24.3013 3.75 25.2551 3.75 26.2497C3.75 27.2442 4.14509 28.198 4.84835 28.9013ZM21.25 26.2497H10C9.99888 28.5502 10.5272 30.8201 11.544 32.8837C12.5608 34.9473 14.0389 36.7492 15.8638 38.1499C17.6887 39.5506 19.8115 40.5126 22.0678 40.9614C24.3241 41.4102 26.6535 41.3337 28.8755 40.7379C30.9469 40.1824 32.8732 39.1896 34.5256 37.8282H29.7716C29.3025 38.4528 28.5556 38.8568 27.7143 38.8568H23.7143C22.2941 38.8568 21.1429 37.7055 21.1429 36.2854C21.1429 34.8652 22.2941 33.7139 23.7143 33.7139H27.7143C28.7907 33.7139 29.7127 34.3753 30.0959 35.3139H36.9401C37.7129 34.2945 38.3546 33.177 38.8467 31.9872C39.726 29.8613 40.1043 27.5616 39.9522 25.2662C39.8002 22.9707 39.1219 20.741 37.97 18.7497H28.75C28.087 18.7497 27.4511 19.013 26.9822 19.4819C26.5134 19.9507 26.25 20.5866 26.25 21.2497C26.25 22.5757 25.7232 23.8475 24.7855 24.7852C23.8479 25.7229 22.5761 26.2497 21.25 26.2497ZM25 53.2321L32.9312 45.3009C27.846 43.2326 22.154 43.2326 17.0688 45.3009L25 53.2321ZM6.6889 54.2352C4.76827 57.4977 3.75368 61.2138 3.75 64.9996V76.2496H23.75V55.5171L14.675 46.4422C11.3665 48.2824 8.60954 50.9728 6.6889 54.2352ZM26.25 76.2496H46.25V64.9996C46.2463 61.2138 45.2317 57.4977 43.3111 54.2352C41.3905 50.9728 38.6335 48.2824 35.325 46.4422L26.25 55.5171V76.2496Z" fill="#212121"/>
    <path d="M56.6777 34.9639C52.9848 34.959 49.3629 35.9781 46.2143 37.9078C43.0657 39.8375 40.5137 42.6023 38.8418 45.8951C37.17 49.1879 36.4437 52.8797 36.7438 56.5604C37.0438 60.2411 38.3584 63.7666 40.5415 66.7451L37.9277 73.7139L44.8965 71.1001C47.4462 72.962 50.4007 74.1935 53.518 74.6938C56.6353 75.1941 59.8268 74.9489 62.8311 73.9784C65.8355 73.0079 68.5672 71.3396 70.8027 69.1101C73.0382 66.8807 74.7138 64.1534 75.6925 61.1517C76.6711 58.15 76.9248 54.9592 76.433 51.8406C75.9411 48.7219 74.7176 45.7641 72.8626 43.2094C71.0076 40.6546 68.5738 38.5755 65.7607 37.1423C62.9475 35.7091 59.8349 34.9626 56.6777 34.9639Z" fill="white"/>
    <path d="M47.9277 51.2139V49.9639C47.9277 47.9747 48.7179 46.0671 50.1244 44.6606C51.531 43.254 53.4386 42.4639 55.4277 42.4639C57.4169 42.4639 59.3245 43.254 60.731 44.6606C62.1376 46.0671 62.9277 47.9747 62.9277 49.9639C62.9278 51.1527 62.6937 52.3299 62.2388 53.4282C61.7839 54.5265 61.1171 55.5245 60.2765 56.3651C59.9281 56.7134 59.6517 57.1269 59.4632 57.5821C59.2747 58.0372 59.1777 58.525 59.1777 59.0176V59.9639H54.1777V59.0176C54.1777 57.7325 54.4308 56.4599 54.9226 55.2726C55.4144 54.0852 56.1353 53.0064 57.044 52.0976C57.3242 51.8174 57.5464 51.4847 57.6981 51.1186C57.8497 50.7525 57.9277 50.3601 57.9277 49.9639C57.9277 49.3008 57.6643 48.6649 57.1955 48.1961C56.7267 47.7273 56.0908 47.4639 55.4277 47.4639C54.7647 47.4639 54.1288 47.7273 53.66 48.1961C53.1911 48.6649 52.9277 49.3008 52.9277 49.9639V51.2139H47.9277Z" fill="#EC4B3C"/>
    <path d="M56.6777 68.7139C58.0584 68.7139 59.1777 67.5946 59.1777 66.2139C59.1777 64.8332 58.0584 63.7139 56.6777 63.7139C55.297 63.7139 54.1777 64.8332 54.1777 66.2139C54.1777 67.5946 55.297 68.7139 56.6777 68.7139Z" fill="#EC4B3C"/>
    <path d="M56.6778 33.7139C51.0438 33.7202 45.6425 35.961 41.6587 39.9448C37.6749 43.9286 35.434 49.3299 35.4278 54.9639C35.422 59.2352 36.7165 63.4072 39.139 66.9251L36.7565 73.2739C36.6714 73.4989 36.6531 73.7437 36.7037 73.9789C36.7543 74.2141 36.8718 74.4296 37.0419 74.5998C37.212 74.7699 37.4276 74.8873 37.6627 74.9379C37.8979 74.9885 38.1427 74.9702 38.3678 74.8851L44.7165 72.5026C48.2344 74.9252 52.4064 76.2196 56.6778 76.2139C62.3136 76.2139 67.7186 73.975 71.7038 69.9899C75.6889 66.0047 77.9278 60.5997 77.9278 54.9639C77.9278 49.328 75.6889 43.923 71.7038 39.9378C67.7186 35.9527 62.3136 33.7139 56.6778 33.7139ZM56.6778 73.7139C52.7038 73.7165 48.8334 72.4461 45.634 70.0889C45.4667 69.9666 45.2716 69.8878 45.0662 69.8597C44.8609 69.8315 44.6518 69.8549 44.4578 69.9276L40.064 71.5751L41.7115 67.1814C41.7842 66.9873 41.8076 66.7782 41.7794 66.5729C41.7513 66.3675 41.6725 66.1724 41.5503 66.0051C39.0729 62.6018 37.814 58.4633 37.9765 54.257C38.139 50.0507 39.7134 46.0216 42.4459 42.8196C45.1784 39.6175 48.9096 37.429 53.0381 36.607C57.1665 35.785 61.4515 36.3774 65.202 38.2886C68.9526 40.1999 71.9502 43.3186 73.7115 47.1419C75.4727 50.9652 75.895 55.2702 74.9102 59.3629C73.9254 63.4555 71.5909 67.0972 68.2832 69.7008C64.9754 72.3044 60.8872 73.718 56.6778 73.7139Z" fill="#212121"/>
    <path d="M55.4277 41.2139C53.108 41.2168 50.8841 42.1397 49.2438 43.78C47.6035 45.4203 46.6807 47.6441 46.6777 49.9639V51.2139C46.6777 51.5454 46.8094 51.8633 47.0438 52.0978C47.2783 52.3322 47.5962 52.4639 47.9277 52.4639H52.9277C53.2593 52.4639 53.5772 52.3322 53.8116 52.0978C54.046 51.8633 54.1777 51.5454 54.1777 51.2139V49.9639C54.1777 49.6323 54.3094 49.3144 54.5438 49.08C54.7783 48.8456 55.0962 48.7139 55.4277 48.7139C55.7593 48.7139 56.0772 48.8456 56.3116 49.08C56.546 49.3144 56.6777 49.6323 56.6777 49.9639C56.6783 50.1961 56.6329 50.4261 56.5441 50.6407C56.4553 50.8552 56.3248 51.05 56.1602 51.2139C55.1322 52.236 54.3171 53.4519 53.7622 54.7913C53.2074 56.1306 52.9237 57.5667 52.9277 59.0164V59.9639C52.9277 60.2954 53.0594 60.6133 53.2938 60.8478C53.5283 61.0822 53.8462 61.2139 54.1777 61.2139H59.1777C59.5093 61.2139 59.8272 61.0822 60.0616 60.8478C60.296 60.6133 60.4277 60.2954 60.4277 59.9639V59.0164C60.4299 58.3538 60.6931 57.7188 61.1602 57.2489C62.12 56.2945 62.8808 55.1591 63.3988 53.9087C63.9168 52.6582 64.1815 51.3174 64.1777 49.9639C64.1748 47.6441 63.2519 45.4203 61.6116 43.78C59.9713 42.1397 57.7475 41.2168 55.4277 41.2139ZM59.3927 55.4814C58.5316 56.3467 58.0145 57.4955 57.9377 58.7139H55.4277C55.5002 56.5543 56.3944 54.5038 57.9277 52.9814C58.3254 52.5861 58.6407 52.1159 58.8552 51.5979C59.0698 51.08 59.1794 50.5245 59.1777 49.9639C59.1777 48.9693 58.7826 48.0155 58.0794 47.3122C57.3761 46.609 56.4223 46.2139 55.4277 46.2139C54.4332 46.2139 53.4793 46.609 52.7761 47.3122C52.0728 48.0155 51.6777 48.9693 51.6777 49.9639H49.1777C49.1777 48.3063 49.8362 46.7166 51.0083 45.5444C52.1804 44.3723 53.7701 43.7139 55.4277 43.7139C57.0853 43.7139 58.675 44.3723 59.8472 45.5444C61.0193 46.7166 61.6777 48.3063 61.6777 49.9639C61.6807 50.989 61.4802 52.0045 61.088 52.9515C60.6958 53.8986 60.1196 54.7585 59.3927 55.4814Z" fill="#212121"/>
    <path d="M56.6777 62.4639C55.9361 62.4639 55.211 62.6838 54.5943 63.0959C53.9777 63.5079 53.497 64.0936 53.2132 64.7788C52.9294 65.464 52.8551 66.218 52.9998 66.9455C53.1445 67.6729 53.5016 68.3411 54.0261 68.8655C54.5505 69.39 55.2187 69.7471 55.9461 69.8918C56.6736 70.0365 57.4276 69.9622 58.1128 69.6784C58.798 69.3946 59.3837 68.9139 59.7957 68.2973C60.2078 67.6806 60.4277 66.9555 60.4277 66.2139C60.4277 65.2193 60.0326 64.2655 59.3294 63.5622C58.6261 62.859 57.6723 62.4639 56.6777 62.4639ZM56.6777 67.4639C56.4305 67.4639 56.1888 67.3906 55.9833 67.2532C55.7777 67.1159 55.6175 66.9206 55.5229 66.6922C55.4283 66.4638 55.4035 66.2125 55.4518 65.97C55.5 65.7275 55.619 65.5048 55.7939 65.33C55.9687 65.1552 56.1914 65.0361 56.4339 64.9879C56.6763 64.9397 56.9277 64.9644 57.1561 65.059C57.3845 65.1536 57.5797 65.3138 57.7171 65.5194C57.8544 65.725 57.9277 65.9666 57.9277 66.2139C57.9277 66.5454 57.796 66.8633 57.5616 67.0978C57.3272 67.3322 57.0093 67.4639 56.6777 67.4639Z" fill="#212121"/>
</svg>
