<svg width="110" height="110" viewBox="0 0 110 110" fill="none" xmlns="http://www.w3.org/2000/svg">
    <path fill-rule="evenodd" clip-rule="evenodd" d="M0 17.95L91.9343 0L109.862 92.05L17.9274 110L0 17.95Z" fill="#FC3926"/>
    <path fill-rule="evenodd" clip-rule="evenodd" d="M91.8811 66.7894H13.2101C12.8282 66.7894 12.5186 66.4794 12.5186 66.097V22.2509C12.5186 21.8684 12.8282 21.5584 13.2101 21.5584H17.3764C17.373 21.5303 17.3706 21.5019 17.3706 21.4729V17.2423C17.3706 16.8598 17.6803 16.5498 18.0622 16.5498H24.1085C24.4904 16.5498 24.8001 16.8598 24.8001 17.2423V21.4729C24.8001 21.5019 24.7977 21.5303 24.7943 21.5584H30.8705C30.867 21.5303 30.8647 21.5019 30.8647 21.4729V17.2423C30.8647 16.8598 31.1743 16.5498 31.5563 16.5498H73.535C73.9169 16.5498 74.2266 16.8598 74.2266 17.2423V21.4729C74.2266 21.5019 74.2243 21.5303 74.2208 21.5584H80.297C80.2935 21.5303 80.2912 21.5019 80.2912 21.4729V17.2423C80.2912 16.8598 80.6008 16.5498 80.9828 16.5498H87.029C87.411 16.5498 87.7206 16.8598 87.7206 17.2423V21.4729C87.7206 21.5019 87.7182 21.5303 87.7148 21.5584H91.8811C92.263 21.5584 92.5727 21.8684 92.5727 22.2509V66.097C92.5727 66.4794 92.263 66.7894 91.8811 66.7894Z" fill="white"/>
    <path fill-rule="evenodd" clip-rule="evenodd" d="M77.2207 40.7177C79.5386 40.7177 81.433 40.9719 82.9038 41.4805C84.3745 41.989 85.5989 42.9466 86.5774 44.3537C87.5554 45.7609 88.0449 47.425 88.0449 49.3467C88.0449 51.2564 87.6786 52.7782 86.947 53.9127C86.2154 55.0472 85.2077 55.9707 83.9239 56.6837C82.6401 57.3968 80.863 57.7527 78.5931 57.7527H70.9275V30.3997H85.2439V35.4548H76.0801V40.7177H77.2207ZM76.0801 52.8015H77.3968C79.8045 52.8015 81.3277 52.4909 81.9674 51.8688C82.6071 51.2467 82.927 50.407 82.927 49.3499C82.927 46.6881 81.0083 45.3573 77.1709 45.3573H76.0801V52.8015ZM61.1059 57.7527L52.6645 45.5558V57.7527H47.4083V30.3997H52.6645V39.8618L60.1155 30.3997H66.3455L56.7909 42.6047L67.2748 57.7527H61.1059ZM35.8123 52.109H24.6703L22.4447 57.7527H17.0388L27.5865 30.3997H32.8713L43.3547 57.7527H37.9504L35.8123 52.109ZM30.2486 37.6567L26.5804 47.0539H33.8974L30.2486 37.6567Z" fill="#FC3926" stroke="#1B1B1B" stroke-width="0.0748075"/>
    <path fill-rule="evenodd" clip-rule="evenodd" d="M89.6309 93.1994C88.0966 94.7353 86.2194 95.5037 83.9998 95.5037H79.1767C79.1767 94.245 79.503 93.289 80.156 92.6355C80.8251 91.9653 81.633 91.6305 82.5798 91.6305H83.9998C85.0932 91.6305 86.0235 91.2383 86.7909 90.4538C87.509 89.7019 87.8926 88.8194 87.9416 87.8063H83.9754C81.788 87.8063 79.9192 87.0383 78.3687 85.502C76.8018 83.966 76.0183 82.103 76.0183 79.9128C76.0183 77.7721 76.8018 75.9171 78.3687 74.3482C79.9517 72.8122 81.8208 72.0439 83.9754 72.0439C86.1459 72.0439 88.0231 72.8122 89.6065 74.3482C91.1895 75.9171 91.9813 77.7721 91.9813 79.9128L92.0058 87.6347C92.0058 89.8571 91.2139 91.712 89.6309 93.1994ZM87.8926 79.9128C87.8926 78.8017 87.517 77.8621 86.7664 77.0937C85.999 76.3093 85.0687 75.9171 83.9754 75.9171C82.8817 75.9171 81.9593 76.3093 81.2088 77.0937C80.4578 77.8621 80.0825 78.8017 80.0825 79.9128C80.0825 81.057 80.4578 82.0049 81.2088 82.7565C81.9758 83.5248 82.8981 83.9086 83.9754 83.9086H87.8926V79.9128ZM60.7902 85.502C59.2233 83.9821 58.4398 82.1275 58.4398 79.9373V72.0439C59.729 72.0439 60.7167 72.3955 61.4023 73.098C62.1203 73.8173 62.4795 74.6508 62.4795 75.5984V79.9373C62.4795 81.065 62.8548 82.013 63.6057 82.781C64.3728 83.5493 65.3031 83.9331 66.3968 83.9331H70.3141V75.5984C70.3141 74.6343 70.6649 73.8008 71.3669 73.098C72.0685 72.3955 73.0643 72.0439 74.3538 72.0439V87.8063H66.3968C64.2094 87.8063 62.3407 87.0383 60.7902 85.502ZM65.7358 74.961C65.0338 74.2585 64.683 73.4167 64.683 72.4361V68.3423C65.9561 68.3423 66.9515 68.702 67.6699 69.4209C68.388 70.0912 68.7472 70.9247 68.7472 71.9213V76.0151C67.4901 76.0151 66.4863 75.6639 65.7358 74.961ZM52.1478 83.9331H53.5923C54.5388 83.9331 55.3387 84.2683 55.9917 84.9382C56.6772 85.6085 57.02 86.5645 57.02 87.8063H52.1478C49.9769 87.8063 48.1161 87.0383 46.5657 85.502C44.9988 83.9821 44.2153 82.1275 44.2153 79.9373C44.2153 77.7801 44.9988 75.9171 46.5657 74.3482C48.0997 72.8122 49.9604 72.0439 52.1478 72.0439H57.02C57.02 73.3025 56.6772 74.2585 55.9917 74.912C55.3222 75.5823 54.5227 75.9171 53.5923 75.9171H52.1478C51.4294 75.9171 50.7684 76.1093 50.1647 76.4932C49.5606 76.8773 49.0874 77.3799 48.7447 78.0008H57.02C57.02 79.2594 56.6772 80.2154 55.9917 80.8689C55.3387 81.5227 54.5388 81.8494 53.5923 81.8494H48.7447C49.0874 82.4868 49.5606 82.9936 50.1647 83.3693C50.7684 83.7454 51.4294 83.9331 52.1478 83.9331ZM35.6955 87.8063H31.7782V87.9534C31.7782 88.901 31.419 89.7345 30.7009 90.4538C30.0154 91.1563 29.0276 91.5079 27.7385 91.5079V79.9373C27.7385 77.7801 28.5219 75.9171 30.0888 74.3482C31.6718 72.8122 33.541 72.0439 35.6955 72.0439C37.866 72.0439 39.7432 72.8122 41.3266 74.3482C42.9095 75.9171 43.7014 77.7801 43.7014 79.9373C43.7014 82.1275 42.9095 83.9821 41.3266 85.502C39.7922 87.0383 37.915 87.8063 35.6955 87.8063ZM38.4621 77.1183C37.7111 76.3177 36.7888 75.9171 35.6955 75.9171C34.6018 75.9171 33.6794 76.3177 32.9289 77.1183C32.1779 77.8866 31.8027 78.8262 31.8027 79.9373V83.9331H35.6955C36.7888 83.9331 37.7191 83.5493 38.4865 82.781C39.2371 82.013 39.6128 81.065 39.6128 79.9373C39.6128 78.8262 39.2291 77.8866 38.4621 77.1183ZM25.5348 76.1377H23.0375V87.8063C21.7644 87.8063 20.7686 87.4551 20.0506 86.7522C19.3486 86.0333 18.9978 85.1917 18.9978 84.2273V76.1377H16.5006C15.5537 76.1377 14.7538 75.811 14.1012 75.1571C13.4317 74.4872 13.0974 73.5231 13.0974 72.2645H28.938C28.938 73.5231 28.6032 74.4872 27.9342 75.1571C27.2811 75.811 26.4812 76.1377 25.5348 76.1377Z" fill="white" stroke="#1B1B1B" stroke-width="0.0748075"/>
</svg>
