<svg width="141" height="140" viewBox="0 0 141 140" fill="none" xmlns="http://www.w3.org/2000/svg"><path d="M114.083 74.375h21.875v45.937h-21.875V74.375zm-109.375 0h21.875v45.937H4.708V74.375zm28.437-28.437v-35a6.562 6.562 0 016.563-6.563h61.25a6.562 6.562 0 016.563 6.563v35a6.562 6.562 0 01-6.563 6.562H81.27L70.334 63.438 59.395 52.5H39.709a6.562 6.562 0 01-6.563-6.563z" fill="#EC4B3C"/><path d="M50.645 32.813l9.391 9.39a5.28 5.28 0 007.469 0L90.02 19.687l-6.563-6.562L63.77 32.813l-6.562-6.563-6.563 6.563z" fill="#fff"/><path d="M26.583 76.563h87.5v4.374h-87.5v-4.374z" fill="#000"/><path d="M99.147 124.687a8.31 8.31 0 01-5.922-2.454L75.35 104.359l3.093-3.093 17.876 17.874a4.022 4.022 0 002.829 1.172 4.003 4.003 0 002.828-6.829l-21.61-21.608h-6.939l-10.673 10.671A8.31 8.31 0 0156.832 105c-4.616 0-8.374-3.756-8.374-8.376a8.32 8.32 0 012.452-5.921L64.411 77.2l3.094 3.093-13.502 13.5a4.004 4.004 0 002.828 6.832 4.036 4.036 0 002.83-1.171L70.973 88.14a2.18 2.18 0 011.546-.641h8.75c.582 0 1.138.23 1.547.64l22.251 22.25a8.325 8.325 0 012.453 5.922c0 4.62-3.759 8.375-8.374 8.375zm-26.251 8.75a8.31 8.31 0 01-5.921-2.454l-13.501-13.499 3.093-3.093 13.501 13.499a4.022 4.022 0 002.828 1.172 4.003 4.003 0 002.829-6.829l3.093-3.091a8.318 8.318 0 012.452 5.92c0 4.62-3.758 8.375-8.374 8.375z" fill="#000"/><path d="M59.772 137.812a8.31 8.31 0 01-5.922-2.454l-17.235-17.233H26.583v-4.375h10.938c.581 0 1.137.23 1.546.641l17.876 17.874a4.023 4.023 0 002.829 1.173 4.004 4.004 0 002.828-6.83l3.093-3.091a8.318 8.318 0 012.453 5.92c0 4.62-3.759 8.375-8.374 8.375zm45.561-24.062h8.75v4.375h-8.75v-4.375zm-19.312 15.312a8.31 8.31 0 01-5.921-2.454l-15.69-15.686 3.093-3.094 15.689 15.687a4.022 4.022 0 002.828 1.172 4.003 4.003 0 002.829-6.829l3.093-3.091a8.318 8.318 0 012.452 5.92c0 4.62-3.758 8.375-8.374 8.375zM70.333 65.625c-.56 0-1.12-.214-1.547-.64L58.49 54.687H39.708c-4.826 0-8.75-3.925-8.75-8.75v-35c0-4.826 3.924-8.75 8.75-8.75h61.25c4.826 0 8.75 3.924 8.75 8.75v35c0 4.825-3.924 8.75-8.75 8.75H82.176L71.88 64.983a2.181 2.181 0 01-1.547.641zM39.708 6.562a4.38 4.38 0 00-4.375 4.375v35a4.38 4.38 0 004.375 4.376h19.688c.581 0 1.137.23 1.546.64l9.391 9.391 9.39-9.39a2.18 2.18 0 011.547-.642h19.688a4.38 4.38 0 004.375-4.374v-35a4.38 4.38 0 00-4.375-4.376h-61.25z" fill="#000"/><path d="M63.77 45.938a7.422 7.422 0 01-5.28-2.188l-9.392-9.39a2.185 2.185 0 010-3.094l6.563-6.563a2.185 2.185 0 013.093 0l5.016 5.016 18.141-18.14a2.185 2.185 0 013.093 0l6.563 6.562a2.185 2.185 0 010 3.093L69.05 43.75a7.422 7.422 0 01-5.28 2.188zM53.738 32.812l7.845 7.845c1.17 1.168 3.204 1.17 4.375 0l20.969-20.97-3.47-3.469-18.14 18.141a2.185 2.185 0 01-3.093 0l-5.016-5.016-3.47 3.47zM26.583 122.5H4.708c-1.21 0-2.187-.98-2.187-2.188V74.375c0-1.207.977-2.188 2.187-2.188h21.875c1.21 0 2.188.98 2.188 2.188v45.937a2.187 2.187 0 01-2.188 2.188zm-19.687-4.375h17.5V76.562h-17.5v41.563zm129.062 4.375h-21.875c-1.21 0-2.187-.98-2.187-2.188V74.375c0-1.207.977-2.188 2.187-2.188h21.875c1.21 0 2.188.98 2.188 2.188v45.937a2.187 2.187 0 01-2.188 2.188zm-19.687-4.375h17.5V76.562h-17.5v41.563z" fill="#000"/></svg>