<svg width="141" height="140" viewBox="0 0 141 140" fill="none" xmlns="http://www.w3.org/2000/svg"><path d="M92.208 21.875h-87.5v70h87.5v-70z" fill="#EC4B3C"/><path d="M79.083 13.125h-61.25V70h61.25V13.125z" fill="#fff"/><path d="M57.208 13.125v35l-8.75-8.75-8.75 8.75v-35" fill="#EC4B3C"/><path d="M4.708 19.688h10.938v-6.563a2.188 2.188 0 012.187-2.188h61.25a2.188 2.188 0 012.188 2.188v6.563h10.937a2.188 2.188 0 012.188 2.187v28.438h19.379a10.914 10.914 0 019.102 4.871l14.901 22.352c.239.36.367.782.368 1.214v30.625a6.56 6.56 0 01-1.923 4.64 6.56 6.56 0 01-4.64 1.923h-6.737a15.294 15.294 0 01-30.276 0h-26.6a15.285 15.285 0 01-28.263 5.659 15.282 15.282 0 01-16.132 7.166 15.285 15.285 0 01-12.13-12.825H4.708a2.189 2.189 0 01-2.187-2.188V21.875a2.187 2.187 0 012.187-2.188zm50.313-4.375H41.895v27.531l5.016-5.016a2.188 2.188 0 013.094 0l5.015 5.016V15.312zm21.874 0h-17.5v32.812a2.188 2.188 0 01-3.734 1.547l-7.203-7.204-7.203 7.204a2.188 2.188 0 01-3.735-1.547V15.312h-17.5v52.5h56.876v-52.5zm13.126 8.75h-8.75V70a2.188 2.188 0 01-2.188 2.188h-61.25A2.188 2.188 0 0115.646 70V24.062h-8.75v65.626H90.02V24.061zm29.214 33.547a6.552 6.552 0 00-5.46-2.922h-8.442v13.124a8.75 8.75 0 008.75 8.75h17.789L119.235 57.61zm14.536 32.078h-6.563a2.188 2.188 0 00-2.187 2.187v4.375a2.188 2.188 0 002.187 2.188h6.563v-8.75zm-24.063 35a10.94 10.94 0 007.734-18.672 10.938 10.938 0 00-18.671 7.734 10.949 10.949 0 0010.937 10.938zm-56.875 0a10.937 10.937 0 10-10.938-10.938 10.949 10.949 0 0010.938 10.938zm-26.25 0a10.937 10.937 0 10-10.937-10.938 10.949 10.949 0 0010.937 10.938zM6.896 111.562h4.55a15.284 15.284 0 0128.262-5.659 15.285 15.285 0 0128.263 5.659h26.6a15.292 15.292 0 0125.153-9.382 15.299 15.299 0 015.122 9.382h6.737a2.188 2.188 0 002.188-2.187v-6.563h-6.563a6.56 6.56 0 01-6.562-6.562v-4.375a6.561 6.561 0 016.562-6.563h6.563v-4.374h-19.688a13.139 13.139 0 01-13.125-13.126V54.688h-6.563v37.187a2.188 2.188 0 01-2.187 2.188H6.896v17.499z" fill="#212121"/><path d="M109.708 107.188a6.562 6.562 0 11.003 13.124 6.562 6.562 0 01-.003-13.124zm0 8.75a2.187 2.187 0 10-.001-4.374 2.187 2.187 0 00.001 4.374zm-83.125-8.75a6.562 6.562 0 11.003 13.125 6.562 6.562 0 01-.003-13.125zm0 8.75a2.19 2.19 0 002.146-2.615 2.19 2.19 0 00-2.983-1.594 2.189 2.189 0 00.837 4.209zm26.25-8.75a6.562 6.562 0 11.003 13.125 6.562 6.562 0 01-.003-13.125zm0 8.75a2.19 2.19 0 002.145-2.615 2.19 2.19 0 00-2.982-1.594 2.189 2.189 0 00.837 4.209z" fill="#212121"/></svg>