<svg width="141" height="140" viewBox="0 0 141 140" fill="none" xmlns="http://www.w3.org/2000/svg"><path d="M114.417 135.625a21.873 21.873 0 01-20.21-13.504 21.876 21.876 0 1142.085-8.371 21.897 21.897 0 01-21.875 21.875zm4.469-122.524H9.511a4.375 4.375 0 00-4.375 4.375v21.125H123.26V17.476a4.373 4.373 0 00-4.375-4.375z" fill="#EC4B3C"/><path d="M15.98 4.375h13.125v17.5H15.979v-17.5zm26.25 0h13.125v17.5H42.23v-17.5zm30.625 0h13.124v17.5H72.856v-17.5zm26.25 0h13.124v17.5H99.105v-17.5z" fill="#EC4B3C"/><path d="M61.917 19.688h4.375v4.375h-4.375v-4.375z" fill="#E2E7F6"/><path fill="#fff" d="M80.667 93h11v11h-11z"/><path d="M110.042 124.687c-.58 0-1.137-.23-1.547-.64l-6.562-6.563 3.093-3.093 5.016 5.016 15.953-15.954 3.093 3.094-17.5 17.5c-.41.41-.966.64-1.546.64z" fill="#F2F2F2"/><path d="M125.354 92.343V17.5a6.561 6.561 0 00-6.562-6.563h-4.375V4.375a2.185 2.185 0 00-2.188-2.188H99.105a2.187 2.187 0 00-2.188 2.188v6.563h-8.75V4.375a2.188 2.188 0 00-2.188-2.188H72.856a2.187 2.187 0 00-2.188 2.188v6.563H57.542V4.375a2.188 2.188 0 00-2.188-2.188H42.23a2.187 2.187 0 00-2.188 2.188v6.563h-8.75V4.375a2.188 2.188 0 00-2.188-2.188H15.98a2.187 2.187 0 00-2.188 2.188v6.563H9.417A6.563 6.563 0 002.854 17.5v105a6.561 6.561 0 006.563 6.562h86.448a24.039 24.039 0 0029.022 6.353 24.042 24.042 0 0012.934-16.104c.824-3.477.863-7.093.115-10.587a24.064 24.064 0 00-12.582-16.38zm-24.062-85.78h8.75v13.125h-8.75V6.563zm-26.25 0h8.75v13.125h-8.75V6.563zm-30.625 0h8.75v13.125h-8.75V6.563zm-26.25 0h8.75v13.125h-8.75V6.563zm-8.75 8.75h4.375v6.562a2.188 2.188 0 002.188 2.188h13.125a2.188 2.188 0 002.187-2.188v-6.563h8.75v6.563a2.188 2.188 0 002.188 2.188h13.125a2.188 2.188 0 002.187-2.188v-6.563h13.125v6.563a2.188 2.188 0 002.188 2.188h13.124a2.188 2.188 0 002.188-2.188v-6.563h8.75v6.563a2.188 2.188 0 002.188 2.188h13.124a2.186 2.186 0 002.188-2.188v-6.563h4.375a2.188 2.188 0 012.187 2.188v19.688H7.229V17.5a2.187 2.187 0 012.188-2.188zm0 109.375a2.189 2.189 0 01-2.188-2.188V41.562h113.75V90.62a23.912 23.912 0 00-26.25 9.35v-8.094a2.188 2.188 0 00-2.187-2.188H79.417a2.188 2.188 0 00-2.188 2.188V105a2.188 2.188 0 002.188 2.188h11.87a23.75 23.75 0 001.723 17.5H9.417zm80.938-30.626v8.75h-8.75v-8.75h8.75zm24.062 39.376a19.691 19.691 0 01-18.189-12.154 19.687 19.687 0 1137.876-7.534 19.705 19.705 0 01-19.687 19.688z" fill="#000"/><path d="M61.913 19.688h4.375v4.375h-4.375v-4.375z" fill="#000"/><path fill="#fff" d="M14.667 49h11v11h-11zm1 23h11v11h-11zm-1 21h11v11h-11zm22-44h11v11h-11zm1 23h11v11h-11zm-1 21h11v11h-11zm22-44h11v11h-11zm1 23h11v11h-11zm-1 21h11v11h-11zm22-44h11v11h-11zm1 23h11v11h-11zm21-23h11v11h-11zm1 23h11v11h-11z"/><path d="M13.792 63.438h13.125a2.188 2.188 0 002.188-2.188V48.125a2.188 2.188 0 00-2.188-2.188H13.792a2.188 2.188 0 00-2.188 2.188V61.25a2.188 2.188 0 002.188 2.188zm2.188-13.126h8.75v8.75h-8.75v-8.75zm19.687 13.126h13.125a2.188 2.188 0 002.188-2.188V48.125a2.188 2.188 0 00-2.188-2.188H35.667a2.188 2.188 0 00-2.188 2.188V61.25a2.188 2.188 0 002.188 2.188zm2.188-13.126h8.75v8.75h-8.75v-8.75zm19.687 13.126h13.125a2.188 2.188 0 002.188-2.188V48.125a2.188 2.188 0 00-2.188-2.188H57.542a2.188 2.188 0 00-2.188 2.188V61.25a2.188 2.188 0 002.188 2.188zm2.188-13.126h8.75v8.75h-8.75v-8.75zm19.687 13.126h13.125a2.188 2.188 0 002.188-2.188V48.125a2.188 2.188 0 00-2.188-2.188H79.417a2.188 2.188 0 00-2.188 2.188V61.25a2.188 2.188 0 002.188 2.188zm2.188-13.126h8.75v8.75h-8.75v-8.75zm19.687 13.126h13.125a2.188 2.188 0 002.187-2.188V48.125a2.188 2.188 0 00-2.187-2.188h-13.125a2.187 2.187 0 00-2.188 2.188V61.25a2.188 2.188 0 002.188 2.188zm2.187-13.126h8.75v8.75h-8.75v-8.75zM13.792 85.313h13.125a2.188 2.188 0 002.188-2.188V70a2.188 2.188 0 00-2.188-2.188H13.792A2.188 2.188 0 0011.604 70v13.125a2.188 2.188 0 002.188 2.188zm2.188-13.126h8.75v8.75h-8.75v-8.75zm19.687 13.126h13.125a2.188 2.188 0 002.188-2.188V70a2.188 2.188 0 00-2.188-2.188H35.667A2.188 2.188 0 0033.479 70v13.125a2.188 2.188 0 002.188 2.188zm2.188-13.126h8.75v8.75h-8.75v-8.75zm19.687 13.126h13.125a2.188 2.188 0 002.188-2.188V70a2.188 2.188 0 00-2.188-2.188H57.542A2.188 2.188 0 0055.354 70v13.125a2.188 2.188 0 002.188 2.188zm2.188-13.126h8.75v8.75h-8.75v-8.75zm-45.938 35.001h13.125A2.189 2.189 0 0029.105 105V91.875a2.188 2.188 0 00-2.188-2.188H13.792a2.188 2.188 0 00-2.188 2.188V105a2.188 2.188 0 002.188 2.188zm2.188-13.126h8.75v8.75h-8.75v-8.75zm19.687 13.126h13.125A2.189 2.189 0 0050.98 105V91.875a2.188 2.188 0 00-2.188-2.188H35.667a2.188 2.188 0 00-2.188 2.188V105a2.188 2.188 0 002.188 2.188zm2.188-13.126h8.75v8.75h-8.75v-8.75zm19.687 13.126h13.125A2.189 2.189 0 0072.855 105V91.875a2.188 2.188 0 00-2.188-2.188H57.542a2.188 2.188 0 00-2.188 2.188V105a2.188 2.188 0 002.188 2.188zm2.188-13.126h8.75v8.75h-8.75v-8.75zm19.687-8.749h13.125a2.188 2.188 0 002.188-2.188V70a2.188 2.188 0 00-2.188-2.188H79.417A2.188 2.188 0 0077.229 70v13.125a2.188 2.188 0 002.188 2.188zm2.188-13.126h8.75v8.75h-8.75v-8.75zm19.687 13.126h13.125a2.188 2.188 0 002.187-2.188V70a2.188 2.188 0 00-2.187-2.188h-13.125A2.187 2.187 0 0099.104 70v13.125a2.188 2.188 0 002.188 2.188zm2.187-13.126h8.75v8.75h-8.75v-8.75zM11.6 113.75h74.376v4.375H11.6v-4.375zm98.442 5.657l-5.016-5.016-3.099 3.093 6.562 6.563a2.194 2.194 0 002.386.474c.265-.11.506-.271.71-.474l17.5-17.5-3.096-3.094-15.947 15.954z" fill="#000"/></svg>