<svg width="140" height="142" viewBox="0 0 140 142" fill="none" xmlns="http://www.w3.org/2000/svg"><path d="M100.625 44.917h8.75v8.75h-8.75v-8.75zm-35 0h8.75v8.75h-8.75v-8.75zm-35 0h8.75v8.75h-8.75v-8.75zm70-39.375h8.75v8.75h-8.75v-8.75zm-35 0h8.75v8.75h-8.75v-8.75zm-35 0h8.75v8.75h-8.75v-8.75zm32.813 78.75h13.124v17.5H63.438v-17.5z" fill="#fff"/><path d="M135.625 3.354h-8.75c-1.21 0-2.188.98-2.188 2.188v19.687h-4.375V5.542a2.186 2.186 0 00-2.187-2.188h-26.25c-1.21 0-2.188.98-2.188 2.188v19.687h-4.374V5.542a2.187 2.187 0 00-2.188-2.188h-26.25c-1.21 0-2.188.98-2.188 2.188v19.687h-4.374V5.542a2.187 2.187 0 00-2.188-2.188h-26.25c-1.21 0-2.188.98-2.188 2.188v19.687h-4.375V5.542a2.187 2.187 0 00-2.187-2.188h-8.75c-1.21 0-2.188.98-2.188 2.188v131.25c0 1.207.978 2.187 2.188 2.187h8.75c1.21 0 2.188-.98 2.188-2.187v-6.563h109.374v6.563c0 1.207.978 2.187 2.188 2.187h8.75c1.21 0 2.187-.98 2.187-2.187V5.542a2.186 2.186 0 00-2.187-2.188zM10.937 134.604H6.564V7.729h4.375v126.875zM102.813 7.729h4.375v4.375h-4.375V7.73zm-8.75 0h4.376v6.563c0 1.207.977 2.187 2.187 2.187h8.75c1.21 0 2.187-.98 2.187-2.187V7.729h4.375v17.5H94.063V7.73zm-26.25 0h4.376v4.375h-4.376V7.73zm-8.75 0h4.376v6.563c0 1.207.977 2.187 2.187 2.187h8.75c1.21 0 2.188-.98 2.188-2.187V7.729h4.374v17.5H59.064V7.73zm-26.25 0h4.376v4.375h-4.376V7.73zm-8.75 0h4.375v6.563c0 1.207.978 2.187 2.188 2.187h8.75c1.21 0 2.188-.98 2.188-2.187V7.729h4.374v17.5H24.064V7.73zm100.625 21.875v4.375H15.313v-4.375h109.374zM65.625 86.48h8.75v13.125h-8.75V86.48zm-2.188 17.5h13.126c1.21 0 2.187-.98 2.187-2.187V86.479h37.187v30.625H24.063V86.479H61.25v15.313c0 1.207.978 2.187 2.188 2.187zm54.688-21.875h-96.25c-1.21 0-2.188.98-2.188 2.188v32.812h-4.375V77.729h109.375v39.375h-4.375V84.292a2.186 2.186 0 00-2.187-2.188zm-102.813-8.75V68.98h109.375v4.375H15.313zm17.5-26.25h4.376v4.375h-4.376v-4.375zm-2.187 8.75h8.75c1.21 0 2.188-.98 2.188-2.187v-6.563h4.374v17.5H24.064v-17.5h4.375v6.563c0 1.207.977 2.187 2.187 2.187zm37.188-8.75h4.374v4.375h-4.374v-4.375zm-2.188 8.75h8.75c1.21 0 2.188-.98 2.188-2.187v-6.563h4.374v17.5H59.064v-17.5h4.374v6.563c0 1.207.978 2.187 2.188 2.187zm37.187-8.75h4.375v4.375h-4.375v-4.375zm-2.187 8.75h8.75c1.21 0 2.187-.98 2.187-2.187v-6.563h4.375v17.5H94.063v-17.5h4.374v6.563c0 1.207.978 2.187 2.188 2.187zm19.687 8.75V44.917a2.186 2.186 0 00-2.187-2.188h-26.25c-1.21 0-2.188.98-2.188 2.188v19.687h-4.374V44.917a2.187 2.187 0 00-2.188-2.188h-26.25c-1.21 0-2.188.98-2.188 2.188v19.687h-4.374V44.917a2.187 2.187 0 00-2.188-2.188h-26.25c-1.21 0-2.188.98-2.188 2.188v19.687h-4.375v-26.25h109.375v26.25h-4.375zm-105 61.25v-4.375h109.375v4.375H15.313zm118.125 8.75h-4.375V7.729h4.375v126.875z" fill="#212121"/><path d="M102.812 108.354h8.75v4.375h-8.75v-4.375zm0-8.75h8.75v4.375h-8.75v-4.375z" fill="#212121"/><path fill="#F8F8F8" d="M17.5 0h106.167v25.229H17.5zm-.583 39.375h106.167v25.229H16.917z"/><path fill="#F8F8F8" d="M15.167 39.375h109.958v77.729H15.167z"/><path fill="#EC4B3C" d="M35.344 65.844h68.396v43.604H35.344z"/><path d="M111.173 65.819a1.691 1.691 0 001.689-1.69v-7.887a1.691 1.691 0 00-1.689-1.689h-6.643V47.91a1.688 1.688 0 00-1.689-1.69h-11.11a1.689 1.689 0 00-1.688 1.69v6.643h-6.344v-3.866a1.689 1.689 0 00-1.688-1.689H57.014a1.688 1.688 0 00-1.689 1.689v3.866h-6.343V47.91a1.689 1.689 0 00-1.689-1.69h-11.11a1.689 1.689 0 00-1.688 1.69v6.643h-6.643a1.689 1.689 0 00-1.69 1.689v7.888a1.689 1.689 0 001.69 1.689h3.866v43.838h-3.866a1.691 1.691 0 00-1.69 1.689v7.888a1.689 1.689 0 001.69 1.688h83.321c.448 0 .878-.178 1.195-.494.316-.317.494-.746.494-1.194v-7.888c0-.448-.178-.878-.494-1.195a1.693 1.693 0 00-1.195-.494h-3.866V65.819h3.866zM93.42 49.599h7.733v4.954H93.42v-4.955zm-34.717 2.777h21.62v2.177h-21.62v-2.177zm-20.83-2.778h7.732v4.955h-7.732v-4.955zM29.54 57.93h79.945v4.511H29.54v-4.51zm79.945 59.615H29.54v-4.511h79.945v4.511zm-5.555-7.888H35.095V65.819h68.835v43.838z" fill="#212121" stroke="#212121" stroke-width=".6"/><path d="M62.569 90.515h3.776L63.999 99.9a1.388 1.388 0 002.432 1.204l11.11-13.887a1.39 1.39 0 00-1.085-2.257H72.68l2.345-9.383a1.389 1.389 0 00-2.431-1.206l-11.11 13.887a1.39 1.39 0 001.085 2.257zm8.218-9.443l-1.233 4.937a1.39 1.39 0 001.347 1.729h2.665l-5.328 6.665 1.233-4.938a1.388 1.388 0 00-1.347-1.727h-2.665l5.328-6.666z" fill="#fff"/><path d="M71.291 78.604c-2.212 2.771-6.664 8.386-6.78 8.677l-1.678 1.24 4.74.802-.584 8.823 8.823-10.865c-1.507-.34-4.52-1.05-4.52-1.166v-7.51z" fill="#fff"/><path d="M91.73 67.996h-.3v3.377h8.934v-3.377h-8.633zM37.272 73.85v.3h2.778v2.778h3.377v-2.777h2.777v-3.378h-2.776v-2.777H40.05v2.777h-2.778v3.078z" fill="#212121" stroke="#212121" stroke-width=".6"/></svg>