<svg width="40" height="40" viewBox="0 0 40 40" fill="none" xmlns="http://www.w3.org/2000/svg"><path d="M25 3.333a6.667 6.667 0 015.773 10.002l7.56-.002v3.334H35v16.666A1.667 1.667 0 0133.333 35H6.667A1.667 1.667 0 015 33.333V16.667H1.667v-3.334l7.56.002A6.667 6.667 0 0120 5.592a6.638 6.638 0 015-2.259zm-6.667 13.334h-10v15h10v-15zm13.334 0h-10v15h10v-15zM15 6.667a3.333 3.333 0 00-.25 6.658l.25.008h3.333V10a3.333 3.333 0 00-2.828-3.295l-.257-.03L15 6.667zm10 0a3.333 3.333 0 00-3.325 3.083l-.008.25v3.333H25a3.334 3.334 0 003.325-3.083l.008-.25A3.333 3.333 0 0025 6.667z" fill="#E84C3D"/></svg>