<svg width="80" height="80" viewBox="0 0 80 80" fill="none" xmlns="http://www.w3.org/2000/svg"><path d="M25 42.5A22.5 22.5 0 0147.5 65v12.5h-45V65A22.5 22.5 0 0125 42.5z" fill="#EC4B3C"/><path d="M35.108 44.892L25 55 14.893 44.892A22.414 22.414 0 0125 42.5c3.51-.005 6.972.815 10.108 2.392z" fill="#fff"/><path fill-rule="evenodd" clip-rule="evenodd" d="M20 62.5H10v5a5 5 0 1010 0v-5z" fill="#fff"/><path d="M28.75 58.75h2.5v2.5h-2.5v-2.5zm0 5h2.5v2.5h-2.5v-2.5zm0 5h2.5v2.5h-2.5v-2.5zM20 61.25H10a1.25 1.25 0 00-1.25 1.25v5a6.25 6.25 0 1012.5 0v-5A1.25 1.25 0 0020 61.25zm-1.25 6.25a3.75 3.75 0 11-7.5 0v-3.75h7.5v3.75z" fill="#212121"/><path fill-rule="evenodd" clip-rule="evenodd" d="M37.627 38.336a17.584 17.584 0 01-5.663 3.96A23.79 23.79 0 0148.75 65v12.5a1.25 1.25 0 01-1.25 1.25h-45a1.25 1.25 0 01-1.25-1.25V65a23.79 23.79 0 0116.786-22.704A17.583 17.583 0 018.674 32.5H7.5a6.25 6.25 0 01-2.463-11.99 19.975 19.975 0 0139.925 0A6.25 6.25 0 0144.4 32.2v2.085c0 .583-.164 1.428-.694 2.164-.576.8-1.525 1.38-2.849 1.38h-2.764c-.152.171-.307.34-.466.507zm2.317-3.022h.913c.278 0 .448-.056.552-.11a.714.714 0 00.257-.225c.155-.216.22-.514.22-.694V32.5h-.56c-.377.98-.84 1.921-1.382 2.814zm5.208-6.413A3.75 3.75 0 0042.5 22.5h-.415a17.16 17.16 0 010 7.5h.415a3.75 3.75 0 002.652-1.099zM36.91 8.45A17.509 17.509 0 0025 3.75 17.509 17.509 0 007.564 20h1.11a17.47 17.47 0 0132.652 0h1.11A17.51 17.51 0 0036.91 8.45zm-8.16 7.8h7.399a14.963 14.963 0 00-25.923 7.5H21.25a2.5 2.5 0 002.5-2.5 5 5 0 015-5zM4.848 28.9A3.75 3.75 0 007.5 30h.415a17.15 17.15 0 010-7.5H7.5a3.75 3.75 0 00-2.652 6.4zm16.402-2.65H10a14.993 14.993 0 0024.526 11.578h-4.754a2.567 2.567 0 01-2.058 1.029h-4a2.571 2.571 0 110-5.143h4c1.077 0 1.999.661 2.382 1.6h6.844a14.99 14.99 0 001.03-16.564h-9.22a2.5 2.5 0 00-2.5 2.5 5 5 0 01-5 5zM25 53.232l7.931-7.931a21.051 21.051 0 00-15.862 0L25 53.232zM6.689 54.235A21.259 21.259 0 003.75 65v11.25h20V55.517l-9.075-9.075a21.258 21.258 0 00-7.986 7.793zM26.25 76.25h20V65a21.26 21.26 0 00-10.925-18.558l-9.075 9.075V76.25z" fill="#212121"/><path d="M56.678 34.964a19.973 19.973 0 00-16.136 31.781l-2.614 6.969 6.969-2.614a19.99 19.99 0 1011.78-36.136z" fill="#fff"/><path d="M47.928 51.214v-1.25a7.5 7.5 0 1115 0 9.051 9.051 0 01-2.651 6.401 3.75 3.75 0 00-1.1 2.653v.946h-5v-.946a9.786 9.786 0 012.867-6.92 3.019 3.019 0 00.884-2.134 2.5 2.5 0 10-5 0v1.25h-5zm8.75 17.5a2.5 2.5 0 100-5 2.5 2.5 0 000 5z" fill="#EC4B3C"/><path d="M56.678 33.714a21.274 21.274 0 00-21.25 21.25 21.04 21.04 0 003.711 11.961l-2.383 6.349a1.25 1.25 0 001.612 1.611l6.349-2.382a21.04 21.04 0 0011.96 3.71 21.25 21.25 0 000-42.5zm0 40a18.598 18.598 0 01-11.044-3.625 1.249 1.249 0 00-1.176-.161l-4.394 1.647 1.648-4.394a1.25 1.25 0 00-.162-1.176 18.733 18.733 0 1115.128 7.709z" fill="#212121"/><path d="M55.428 41.214a8.761 8.761 0 00-8.75 8.75v1.25a1.25 1.25 0 001.25 1.25h5a1.25 1.25 0 001.25-1.25v-1.25a1.25 1.25 0 112.5 0 1.758 1.758 0 01-.518 1.25 10.96 10.96 0 00-3.232 7.802v.948a1.25 1.25 0 001.25 1.25h5a1.25 1.25 0 001.25-1.25v-.948a2.519 2.519 0 01.732-1.767 10.234 10.234 0 003.018-7.285 8.76 8.76 0 00-8.75-8.75zm3.965 14.267a5.031 5.031 0 00-1.455 3.233h-2.51a8.48 8.48 0 012.5-5.733 4.235 4.235 0 001.25-3.017 3.75 3.75 0 00-7.5 0h-2.5a6.25 6.25 0 0112.5 0 7.749 7.749 0 01-2.285 5.517zm-2.715 6.983a3.75 3.75 0 100 7.5 3.75 3.75 0 000-7.5zm0 5a1.25 1.25 0 110-2.499 1.25 1.25 0 010 2.499z" fill="#212121"/></svg>