<svg width="110" height="110" viewBox="0 0 110 110" fill="none" xmlns="http://www.w3.org/2000/svg"><path fill-rule="evenodd" clip-rule="evenodd" d="M0 17.95L91.934 0l17.928 92.05L17.927 110 0 17.95z" fill="#FC3926"/><path fill-rule="evenodd" clip-rule="evenodd" d="M91.881 66.79h-78.67a.692.692 0 01-.692-.693V22.251c0-.383.31-.693.691-.693h4.166a.71.71 0 01-.005-.085v-4.23c0-.383.31-.693.691-.693h6.046c.382 0 .692.31.692.692v4.23a.71.71 0 01-.006.086h6.076a.69.69 0 01-.005-.085v-4.23c0-.383.31-.693.691-.693h41.979c.382 0 .692.31.692.692v4.23a.69.69 0 01-.006.086h6.076a.69.69 0 01-.006-.085v-4.23c0-.383.31-.693.692-.693h6.046c.382 0 .692.31.692.692v4.23a.71.71 0 01-.006.086h4.166c.382 0 .692.31.692.693v43.846c0 .382-.31.692-.692.692z" fill="#fff"/><path fill-rule="evenodd" clip-rule="evenodd" d="M77.22 40.718c2.319 0 4.213.254 5.684.762 1.47.509 2.695 1.467 3.673 2.874.978 1.407 1.468 3.071 1.468 4.993 0 1.91-.366 3.431-1.098 4.566-.732 1.134-1.74 2.058-3.023 2.77-1.284.714-3.061 1.07-5.33 1.07h-7.666V30.4h14.316v5.055H76.08v5.263h1.14zM76.08 52.8h1.317c2.407 0 3.93-.31 4.57-.932.64-.622.96-1.462.96-2.52 0-2.66-1.919-3.992-5.756-3.992h-1.09V52.8zm-14.974 4.952l-8.442-12.197v12.197h-5.256V30.4h5.256v9.462l7.451-9.462h6.23l-9.554 12.205 10.484 15.148h-6.17zm-25.294-5.644H24.67l-2.225 5.644h-5.406L27.586 30.4h5.285l10.484 27.353H37.95l-2.138-5.644zM30.25 37.657l-3.669 9.397h7.317l-3.648-9.397z" fill="#FC3926" stroke="#1B1B1B" stroke-width=".075"/><path fill-rule="evenodd" clip-rule="evenodd" d="M89.63 93.2c-1.533 1.535-3.41 2.304-5.63 2.304h-4.823c0-1.259.326-2.215.979-2.869a3.3 3.3 0 012.424-1.005H84c1.093 0 2.023-.392 2.79-1.176.719-.752 1.103-1.635 1.152-2.648h-3.967c-2.187 0-4.056-.768-5.606-2.304-1.567-1.536-2.35-3.399-2.35-5.59 0-2.14.783-3.995 2.35-5.564 1.583-1.536 3.452-2.304 5.606-2.304 2.17 0 4.048.768 5.632 2.304 1.582 1.57 2.374 3.424 2.374 5.565l.025 7.722c0 2.222-.792 4.077-2.375 5.564zm-1.737-13.287c0-1.111-.376-2.05-1.127-2.82-.767-.784-1.697-1.176-2.79-1.176-1.094 0-2.017.392-2.767 1.177-.751.768-1.127 1.708-1.127 2.819 0 1.144.376 2.092 1.127 2.844.767.768 1.69 1.152 2.766 1.152h3.918v-3.996zM60.79 85.502c-1.567-1.52-2.35-3.374-2.35-5.565v-7.893c1.289 0 2.277.352 2.962 1.054.718.72 1.078 1.553 1.078 2.5v4.34c0 1.127.375 2.075 1.126 2.843.767.768 1.697 1.152 2.79 1.152h3.918v-8.335c0-.964.35-1.797 1.053-2.5.701-.703 1.697-1.054 2.987-1.054v15.762h-7.957c-2.188 0-4.056-.768-5.607-2.304zm4.946-10.541c-.702-.703-1.053-1.544-1.053-2.525v-4.094c1.273 0 2.268.36 2.987 1.079.718.67 1.077 1.504 1.077 2.5v4.094c-1.257 0-2.26-.351-3.011-1.054zm-13.588 8.972h1.444c.947 0 1.747.335 2.4 1.005.685.67 1.028 1.626 1.028 2.868h-4.872c-2.171 0-4.032-.768-5.582-2.304-1.567-1.52-2.35-3.374-2.35-5.565 0-2.157.783-4.02 2.35-5.589 1.534-1.536 3.394-2.304 5.582-2.304h4.872c0 1.258-.343 2.215-1.028 2.868-.67.67-1.47 1.005-2.4 1.005h-1.444c-.719 0-1.38.192-1.983.576a4.12 4.12 0 00-1.42 1.508h8.275c0 1.258-.343 2.214-1.028 2.868-.653.654-1.453.98-2.4.98h-4.847a3.97 3.97 0 001.42 1.52 3.678 3.678 0 001.983.564zm-16.453 3.873h-3.917v.147c0 .948-.359 1.781-1.077 2.5-.686.703-1.673 1.055-2.963 1.055v-11.57c0-2.158.784-4.02 2.35-5.59 1.584-1.536 3.453-2.304 5.608-2.304 2.17 0 4.047.768 5.63 2.304 1.584 1.57 2.375 3.432 2.375 5.59 0 2.19-.791 4.044-2.374 5.564-1.535 1.536-3.412 2.304-5.631 2.304zm2.767-10.688c-.75-.8-1.673-1.2-2.767-1.2-1.093 0-2.016.4-2.766 1.2-.751.769-1.126 1.708-1.126 2.82v3.995h3.893c1.093 0 2.023-.384 2.79-1.152.751-.768 1.127-1.716 1.127-2.844 0-1.11-.384-2.05-1.15-2.819zm-12.927-.98h-2.497v11.668c-1.274 0-2.27-.35-2.987-1.054-.702-.719-1.053-1.56-1.053-2.525v-8.09H16.5c-.947 0-1.747-.326-2.4-.98-.67-.67-1.004-1.634-1.004-2.892h15.841c0 1.258-.335 2.222-1.004 2.892-.653.654-1.453.98-2.4.98z" fill="#fff" stroke="#1B1B1B" stroke-width=".075"/></svg>